<svg width="247" height="166" viewBox="0 0 247 166" fill="none" xmlns="http://www.w3.org/2000/svg">
<g clip-path="url(#clip0_39_1913)">
<path d="M246.701 87.8833C246.701 121.33 225.502 149.827 195.81 160.671C191.293 162.324 186.63 163.548 181.884 164.326C168.826 166.468 155.438 165.252 142.979 160.793C113.099 150.039 91.7449 121.445 91.759 87.8669C91.759 45.0982 126.445 10.4123 169.23 10.4123C185.4 10.3888 201.168 15.4475 214.307 24.8736C233.921 38.9263 246.701 61.9117 246.701 87.8833Z" fill="#E5E5E5"/>
<path d="M195.81 160.671C191.293 162.324 186.63 163.548 181.884 164.326C168.826 166.468 155.438 165.252 142.979 160.793L146.557 146.437L146.773 145.576L154.074 145.604L190.753 145.735L191.223 147.123L195.81 160.671Z" fill="#2F2E41"/>
<path d="M67.2944 0H0V76.1458H67.2944V0Z" fill="#E6E6E6"/>
<path d="M65.9768 1.61093H1.19971V74.5351H65.9768V1.61093Z" fill="white"/>
<path d="M33.6472 71.9422C35.6525 71.9422 37.2782 70.3165 37.2782 68.3112C37.2782 66.3058 35.6525 64.6801 33.6472 64.6801C31.6418 64.6801 30.0161 66.3058 30.0161 68.3112C30.0161 70.3165 31.6418 71.9422 33.6472 71.9422Z" fill="#E6E6E6"/>
<path d="M33.0339 27.4245H12.1785V29.558H33.0339V27.4245Z" fill="#E6E6E6"/>
<path d="M43.6549 33.8177H12.1785V35.9513H43.6549V33.8177Z" fill="#1F2B6C"/>
<path d="M40.5653 40.2511H12.1785V42.3846H40.5653V40.2511Z" fill="#E6E6E6"/>
<path d="M56.0137 46.5146H12.1785V48.6481H56.0137V46.5146Z" fill="#1F2B6C"/>
<path d="M48.359 52.4796H12.6343V54.6131H48.359V52.4796Z" fill="#E6E6E6"/>
<path d="M95.6906 123.905C95.9465 124.167 96.1813 124.45 96.3928 124.75L129.285 123.945L133.122 116.933L144.461 121.341L138.874 134.414C138.422 135.47 137.641 136.351 136.646 136.925C135.651 137.499 134.497 137.735 133.357 137.598L96.1942 133.108C95.3176 134.218 94.1239 135.035 92.7719 135.449C91.4199 135.864 89.9736 135.858 88.6255 135.43C87.2773 135.003 86.0912 134.176 85.2249 133.058C84.3585 131.94 83.853 130.585 83.7756 129.173C83.6982 127.761 84.0525 126.359 84.7914 125.153C85.5303 123.947 86.6189 122.995 87.9122 122.423C89.2056 121.85 90.6424 121.686 92.0317 121.95C93.421 122.215 94.6968 122.896 95.6895 123.903L95.6906 123.905Z" fill="#9F616A"/>
<path d="M139.962 83.8661L155.355 78.8214L159.876 72.6211L181.877 73.9231L185.107 81.1584L196.838 86.7018L195.035 120.184L191.951 151.519C176.091 143.307 146.492 149.568 146.233 149.67L139.962 83.8661Z" fill="#1F2B6C"/>
<path d="M143.252 129.187L127.595 122.922L127.662 122.644C127.729 122.362 134.393 94.5152 135.278 90.0402C136.199 85.3781 139.567 84.089 139.71 84.0367L139.815 83.9982L146.011 85.8842L148.732 107.266L143.252 129.187Z" fill="#1F2B6C"/>
<path d="M177.059 150.142C177.426 150.133 177.793 150.154 178.157 150.203L199.93 125.536L197.398 117.956L208.339 112.639L214.127 125.624C214.595 126.673 214.71 127.845 214.454 128.965C214.199 130.085 213.587 131.092 212.711 131.834L184.152 156.032C184.37 157.429 184.157 158.859 183.542 160.133C182.926 161.406 181.938 162.462 180.708 163.16C179.478 163.858 178.065 164.165 176.656 164.04C175.248 163.915 173.91 163.364 172.822 162.461C171.734 161.558 170.947 160.344 170.565 158.983C170.184 157.621 170.226 156.175 170.685 154.838C171.145 153.501 172.002 152.335 173.14 151.496C174.279 150.658 175.645 150.185 177.059 150.142Z" fill="#9F616A"/>
<path d="M198.193 127.937L189.11 106.572L192.652 91.6906L196.469 86.8684C196.749 86.7488 197.05 86.6886 197.354 86.6914C197.658 86.6942 197.958 86.7601 198.236 86.8848C199.644 87.4513 200.842 89.1878 201.799 92.0458L210.311 116.292L198.193 127.937Z" fill="#1F2B6C"/>
<path d="M151.069 64.7044V48.5975C151.06 45.7631 151.609 42.9547 152.685 40.3325C153.761 37.7103 155.343 35.3257 157.34 33.3148C159.338 31.304 161.712 29.7063 164.327 28.613C166.942 27.5196 169.747 26.9521 172.581 26.9427C175.415 26.9333 178.224 27.4823 180.846 28.5582C183.468 29.6342 185.853 31.2162 187.864 33.2137C189.875 35.2113 191.472 37.5853 192.566 40.2003C193.659 42.8154 194.226 45.6201 194.236 48.4545C194.236 48.5021 194.236 48.5498 194.236 48.5975V64.7044C194.235 65.4731 193.929 66.21 193.386 66.7536C192.842 67.2971 192.105 67.6028 191.337 67.6037H153.968C153.2 67.6028 152.463 67.2971 151.919 66.7536C151.376 66.21 151.07 65.4731 151.069 64.7044Z" fill="#2F2E41"/>
<path d="M168.217 67.2284C176.957 67.2284 184.041 60.1438 184.041 51.4044C184.041 42.665 176.957 35.5803 168.217 35.5803C159.478 35.5803 152.393 42.665 152.393 51.4044C152.393 60.1438 159.478 67.2284 168.217 67.2284Z" fill="#9F616A"/>
<path d="M145.963 49.8861C145.968 45.3595 147.769 41.0197 150.969 37.8189C154.17 34.6182 158.51 32.8177 163.037 32.8126H166.258C170.785 32.8177 175.124 34.6182 178.325 37.819C181.526 41.0198 183.326 45.3595 183.331 49.8861V50.2082H176.523L174.201 43.7053L173.737 50.2082H170.219L169.047 46.9276L168.813 50.2082H145.963V49.8861Z" fill="#2F2E41"/>
<path d="M166.66 69.4151C166.341 68.9823 166.15 68.468 166.11 67.9315C166.069 67.3949 166.182 66.858 166.433 66.3824C169.847 59.8894 174.626 47.8915 168.282 40.4923L167.827 39.9613H186.246V67.6137L169.514 70.5659C169.345 70.5958 169.173 70.611 169.001 70.6112C168.544 70.6112 168.094 70.5028 167.687 70.295C167.281 70.0872 166.929 69.7859 166.661 69.4158L166.66 69.4151Z" fill="#2F2E41"/>
<path d="M33.5888 5.93056C32.0617 5.93048 30.5688 6.38326 29.2989 7.23164C28.0291 8.08003 27.0394 9.28591 26.4549 10.6968C25.8704 12.1077 25.7174 13.6602 26.0152 15.158C26.3131 16.6559 27.0484 18.0318 28.1282 19.1117C29.2081 20.1916 30.5839 20.9271 32.0817 21.2251C33.5795 21.5231 35.132 21.3703 36.543 20.7859C37.9539 20.2016 39.1599 19.212 40.0084 17.9422C40.8569 16.6725 41.3099 15.1796 41.3099 13.6525V13.652C41.3099 12.638 41.1102 11.634 40.7222 10.6972C40.3341 9.76035 39.7654 8.90914 39.0484 8.19213C38.3314 7.47512 37.4801 6.90636 36.5433 6.51832C35.6065 6.13028 34.6024 5.93056 33.5884 5.93056H33.5888ZM33.5888 8.2468C34.0469 8.24679 34.4948 8.38264 34.8757 8.63715C35.2566 8.89166 35.5535 9.25341 35.7288 9.67664C35.9041 10.0999 35.95 10.5656 35.8606 11.0149C35.7712 11.4642 35.5506 11.8769 35.2267 12.2009C34.9028 12.5248 34.49 12.7454 34.0407 12.8348C33.5914 12.9241 33.1257 12.8783 32.7025 12.703C32.2792 12.5277 31.9175 12.2308 31.663 11.8499C31.4084 11.469 31.2726 11.0212 31.2726 10.563C31.2726 9.94874 31.5166 9.3596 31.951 8.92522C32.3854 8.49083 32.9745 8.2468 33.5888 8.2468ZM33.5888 19.3982C32.6737 19.394 31.7735 19.1667 30.9662 18.7358C30.1588 18.305 29.4688 17.6837 28.9559 16.9258C28.9931 15.3815 32.0445 14.5314 33.5888 14.5314C35.1331 14.5314 38.1845 15.3815 38.2217 16.9258C37.7083 17.6831 37.0182 18.304 36.2109 18.7348C35.4037 19.1655 34.5038 19.3933 33.5888 19.3982Z" fill="#1F2B6C"/>
<path d="M33.6787 69.703C36.8597 63.8737 44.48 60.1821 50.7136 63.5096C53.5195 65.0071 55.7499 67.6562 56.458 70.7872C57.2796 74.4243 55.5483 77.8924 53.761 80.9481C52.791 82.6067 51.728 84.2314 50.9251 85.9809C50.0938 87.7925 49.4997 89.8864 50.1255 91.8572C50.689 93.6327 52.1018 94.9241 53.6488 95.8732C55.3563 96.8811 57.1725 97.6923 59.0626 98.2913C62.9534 99.5852 67.0573 100.116 71.1493 99.855C73.183 99.7168 75.1996 99.3908 77.1733 98.8812C79.2727 98.346 81.333 97.6675 83.436 97.144C86.947 96.2718 90.9504 95.8382 94.2798 97.59C97.5143 99.2925 98.9619 102.853 99.4096 106.317C100.236 112.713 97.7003 119.351 93.1213 123.83C90.9244 125.979 88.1598 127.755 85.1488 128.481C82.5216 129.115 79.1481 129.074 77.0573 127.11C74.7242 124.918 75.2731 121.403 77.1261 119.091C79.4913 116.14 83.4982 115.431 87.0738 115.36C91.1413 115.278 95.205 115.884 99.2701 115.507C101.254 115.353 103.201 114.883 105.038 114.116C106.652 113.406 108.125 112.409 109.384 111.174C111.894 108.736 113.587 105.488 114.428 102.111C115.442 98.0495 115.221 93.781 114.434 89.7016C114.015 87.5981 113.475 85.5204 112.817 83.4788C112.545 82.6172 111.185 82.9858 111.459 83.8532C113.881 91.5355 115.232 100.419 110.551 107.551C108.614 110.576 105.597 112.748 102.113 113.625C98.062 114.632 93.811 114.135 89.6923 113.985C85.7761 113.842 81.4757 113.996 78.1186 116.277C75.3647 118.148 73.4384 121.706 74.2709 125.066C75.0736 128.305 78.187 129.949 81.3008 130.202C84.568 130.468 87.783 129.371 90.5269 127.657C96.2347 124.09 100.03 117.817 100.824 111.167C101.238 107.701 100.817 103.969 99.2452 100.823C98.4171 99.1207 97.1283 97.6843 95.525 96.6773C93.9262 95.6972 92.0796 95.2147 90.225 95.044C86.0115 94.656 81.9633 96.1026 77.9663 97.2092C75.9244 97.8016 73.8315 98.2011 71.7151 98.4025C69.6609 98.5727 67.595 98.5391 65.5474 98.3021C63.5157 98.0623 61.5135 97.618 59.5711 96.9757C57.6678 96.3872 55.8454 95.5634 54.1463 94.5231C52.6473 93.5646 51.351 92.1917 51.2773 90.3209C51.1972 88.2923 52.2201 86.3948 53.1929 84.6845C55.1149 81.3061 57.489 78.0016 57.9903 74.0466C58.4293 70.5869 57.0371 67.177 54.6332 64.7094C53.4284 63.457 51.978 62.4668 50.3727 61.8008C48.7675 61.1349 47.0421 60.8076 45.3045 60.8394C41.7378 60.9415 38.3227 62.4926 35.6993 64.8747C34.3981 66.0569 33.3032 67.4477 32.4596 68.9901C32.025 69.7861 33.2408 70.4977 33.6759 69.7009L33.6787 69.703Z" fill="#3F3D56"/>
</g>
<defs>
<clipPath id="clip0_39_1913">
<rect width="246.701" height="165.354" fill="white"/>
</clipPath>
</defs>
</svg>
