<svg width="36" height="42" viewBox="0 0 36 42" fill="none" xmlns="http://www.w3.org/2000/svg">
<path d="M18 20.5714C23.6812 20.5714 28.2857 15.967 28.2857 10.2857C28.2857 4.60446 23.6812 0 18 0C12.3188 0 7.71429 4.60446 7.71429 10.2857C7.71429 15.967 12.3188 20.5714 18 20.5714ZM8.35714 34.0714C8.35714 35.1402 9.21696 36 10.2857 36C11.3545 36 12.2143 35.1402 12.2143 34.0714C12.2143 33.0027 11.3545 32.1429 10.2857 32.1429C9.21696 32.1429 8.35714 33.0027 8.35714 34.0714ZM25.7143 23.1911V27.1286C28.6473 27.7232 30.8571 30.3268 30.8571 33.4286V36.7795C30.8571 37.3902 30.4232 37.9205 29.8205 38.0411L27.233 38.5554C26.8875 38.6277 26.55 38.4027 26.4777 38.0491L26.2286 36.7875C26.1562 36.442 26.3813 36.0964 26.7348 36.0321L28.2857 35.7187V33.4286C28.2857 28.3821 20.5714 28.1973 20.5714 33.5812V35.7268L22.1223 36.0402C22.4679 36.1125 22.6929 36.45 22.6286 36.7955L22.3795 38.0571C22.3071 38.4027 21.9696 38.6277 21.6241 38.5634L19.117 38.2259C18.4821 38.1375 18.008 37.5991 18.008 36.9482V33.4286C18.008 30.3268 20.2179 27.7312 23.1509 27.1286V23.4964C22.9741 23.5527 22.7973 23.5848 22.6205 23.6491C21.1741 24.1554 19.6232 24.4366 18.008 24.4366C16.3929 24.4366 14.842 24.1554 13.3955 23.6491C12.8009 23.4402 12.1982 23.3116 11.5795 23.2312V29.7884C13.4357 30.3429 14.7938 32.0464 14.7938 34.0795C14.7938 36.5625 12.7768 38.5795 10.2938 38.5795C7.81071 38.5795 5.79375 36.5625 5.79375 34.0795C5.79375 32.0464 7.15179 30.3429 9.00804 29.7884V23.3277C3.89732 24.1875 0 28.5911 0 33.9429V37.5429C0 39.5277 1.61518 41.1429 3.6 41.1429H32.4C34.3848 41.1429 36 39.5277 36 37.5429V33.9429C36 28.1571 31.4357 23.4723 25.7143 23.1911Z" fill="#BED1F7"/>
</svg>
