<svg width="48" height="49" viewBox="0 0 48 49" fill="none" xmlns="http://www.w3.org/2000/svg">
<path d="M4.99875 2.03784V3.68869" stroke="#BED1F7" stroke-width="1.65085" stroke-linecap="round" stroke-linejoin="round"/>
<path d="M4.99875 6.99048V8.64132" stroke="#BED1F7" stroke-width="1.65085" stroke-linecap="round" stroke-linejoin="round"/>
<path d="M1.69708 5.3396H3.34793" stroke="#BED1F7" stroke-width="1.65085" stroke-linecap="round" stroke-linejoin="round"/>
<path d="M6.6496 5.3396H8.30044" stroke="#BED1F7" stroke-width="1.65085" stroke-linecap="round" stroke-linejoin="round"/>
<path d="M45.0318 11.1176C46.1715 11.1176 47.0953 10.1937 47.0953 9.05404C47.0953 7.91436 46.1715 6.99048 45.0318 6.99048C43.8921 6.99048 42.9682 7.91436 42.9682 9.05404C42.9682 10.1937 43.8921 11.1176 45.0318 11.1176Z" stroke="#BED1F7" stroke-width="1.65085" stroke-linecap="round" stroke-linejoin="round"/>
<path d="M1.76475 18.2716C1.76508 18.4462 1.71361 18.6169 1.61685 18.7623C1.52009 18.9076 1.3824 19.0209 1.22119 19.088C1.05999 19.155 0.88252 19.1727 0.711247 19.1389C0.539974 19.105 0.382595 19.0211 0.259027 18.8978C0.135459 18.7744 0.051257 18.6172 0.0170762 18.446C-0.0171045 18.2748 0.000272692 18.0973 0.0670089 17.936C0.133745 17.7746 0.246841 17.6367 0.391982 17.5397C0.537124 17.4427 0.707788 17.3909 0.882376 17.3909C1.11604 17.3911 1.3401 17.4839 1.50549 17.649C1.67087 17.814 1.7641 18.0379 1.76475 18.2716Z" fill="#BED1F7"/>
<path d="M34.0132 0.882377C34.0132 1.0569 33.9614 1.22749 33.8645 1.3726C33.7675 1.51771 33.6297 1.6308 33.4685 1.69759C33.3073 1.76437 33.1298 1.78185 32.9587 1.7478C32.7875 1.71375 32.6303 1.62971 32.5069 1.50631C32.3835 1.38291 32.2994 1.22569 32.2654 1.05452C32.2314 0.883356 32.2488 0.705939 32.3156 0.544706C32.3824 0.383473 32.4955 0.245664 32.6406 0.148707C32.7857 0.0517506 32.9563 0 33.1308 0C33.3648 0 33.5893 0.0929646 33.7548 0.258442C33.9202 0.42392 34.0132 0.648356 34.0132 0.882377Z" fill="#BED1F7"/>
<path d="M23.9835 47.9455C34.8628 47.9455 43.6822 39.1261 43.6822 28.2468C43.6822 17.3675 34.8628 8.5481 23.9835 8.5481C13.1042 8.5481 4.28476 17.3675 4.28476 28.2468C4.28476 39.1261 13.1042 47.9455 23.9835 47.9455Z" stroke="#BED1F7" stroke-width="1.65085" stroke-linecap="round" stroke-linejoin="round"/>
<path d="M31.3644 13.999C33.2694 14.9885 34.9572 16.3491 36.3285 18.0007L31.3644 13.999Z" fill="#BED1F7"/>
<path d="M31.3644 13.999C33.2694 14.9885 34.9572 16.3491 36.3285 18.0007" stroke="#BED1F7" stroke-width="1.65085" stroke-linecap="round" stroke-linejoin="round"/>
<path d="M29.7325 25.6187C28.998 26.4462 28.1075 27.1209 27.1121 27.604C26.1166 28.0872 25.0357 28.3694 23.931 28.4345C22.8264 28.4995 21.7198 28.3462 20.6745 27.9833C19.6292 27.6204 18.6657 27.055 17.839 26.3194C17.2004 27.3215 16.3378 28.1617 15.3193 28.7737C14.3008 29.3857 13.154 29.753 11.9694 29.8465C11.9282 30.4006 11.9073 30.9627 11.9067 31.5328C11.9067 40.6273 17.3141 48 23.9835 48C30.6529 48 36.0594 40.6273 36.0594 31.5328C36.0594 30.9616 36.0385 30.3978 35.9967 29.8415C34.6769 29.7379 33.4064 29.2946 32.3088 28.5546C31.2111 27.8146 30.3236 26.8032 29.7325 25.6187Z" stroke="#BED1F7" stroke-width="1.65085" stroke-linecap="round" stroke-linejoin="round"/>
<path d="M20.6818 43.2348L21.6467 41.7986C21.7143 41.662 21.8111 41.542 21.9302 41.4469C22.0493 41.3518 22.1878 41.284 22.3359 41.2483C22.484 41.2126 22.6382 41.2098 22.7875 41.2401C22.9368 41.2704 23.0777 41.3331 23.2002 41.4238L23.9835 42.0066L24.7668 41.4238C24.8893 41.3331 25.0301 41.2704 25.1795 41.2401C25.3288 41.2098 25.483 41.2126 25.6311 41.2483C25.7792 41.284 25.9177 41.3518 26.0368 41.4469C26.1559 41.542 26.2526 41.662 26.3203 41.7986L27.2852 43.2348C24.8089 45.7854 23.1581 45.7854 20.6818 43.2348Z" stroke="#BED1F7" stroke-width="1.65085" stroke-linecap="round" stroke-linejoin="round"/>
<path d="M11.9067 30.2673C11.9427 28.1326 12.3272 26.0181 13.045 24.0073" stroke="#BED1F7" stroke-width="1.65085" stroke-linecap="round" stroke-linejoin="round"/>
<path d="M36.0437 30.388C36.0076 28.253 35.6232 26.1383 34.9055 24.1272" stroke="#BED1F7" stroke-width="1.65085" stroke-linecap="round" stroke-linejoin="round"/>
</svg>
