<svg width="251" height="245" viewBox="0 0 251 245" fill="none" xmlns="http://www.w3.org/2000/svg">
<g clip-path="url(#clip0_484_452)">
<path d="M159.34 55.0993H91.7088C90.1676 55.1012 88.69 55.7143 87.6002 56.8041C86.5104 57.8939 85.8974 59.3714 85.8955 60.9126V211.224L85.1204 211.461L68.5293 216.542C67.743 216.781 66.8937 216.699 66.1678 216.314C65.442 215.928 64.8989 215.27 64.6577 214.484L15.3068 53.2817C15.0666 52.4954 15.1485 51.6459 15.5344 50.9199C15.9203 50.1939 16.5786 49.6509 17.3647 49.4101L42.9316 41.5815L117.051 18.8942L142.617 11.0657C143.007 10.9459 143.415 10.9041 143.821 10.9426C144.226 10.981 144.62 11.099 144.979 11.2898C145.339 11.4806 145.657 11.7404 145.917 12.0544C146.176 12.3684 146.37 12.7304 146.489 13.1197L159.104 54.3242L159.34 55.0993Z" fill="#F2F2F2"/>
<path d="M174.098 54.3249L158.895 4.66399C158.642 3.83655 158.228 3.06706 157.678 2.39949C157.127 1.73193 156.451 1.17937 155.687 0.773392C154.923 0.367415 154.086 0.115973 153.225 0.0334447C152.363 -0.0490839 151.494 0.0389177 150.667 0.292412L114.722 11.295L40.6064 33.9862L4.66097 44.9926C2.99113 45.5054 1.59296 46.6597 0.773339 48.2023C-0.0462788 49.7448 -0.220377 51.5496 0.289266 53.2203L52.2522 222.941C52.6662 224.29 53.5016 225.47 54.6358 226.309C55.7699 227.148 57.1431 227.602 58.5539 227.603C59.2069 227.603 59.8561 227.505 60.4799 227.312L85.1205 219.771L85.8956 219.53V218.72L85.1205 218.957L60.2514 226.572C58.7774 227.021 57.1854 226.868 55.8246 226.145C54.4638 225.422 53.4453 224.189 52.9925 222.716L1.03352 52.9917C0.809166 52.2619 0.730972 51.495 0.803415 50.735C0.875858 49.9749 1.09751 49.2366 1.45569 48.5623C1.81388 47.8881 2.30155 47.2911 2.89079 46.8056C3.48002 46.32 4.15924 45.9555 4.88955 45.7328L40.835 34.7264L114.95 12.0391L150.896 1.03264C151.45 0.863592 152.026 0.777397 152.605 0.776857C153.848 0.779648 155.057 1.18036 156.056 1.9203C157.055 2.66024 157.79 3.70052 158.155 4.88878L173.288 54.3249L173.529 55.1H174.335L174.098 54.3249Z" fill="#3F3D56"/>
<path d="M47.5452 49.5369C46.7982 49.5364 46.0711 49.2965 45.4705 48.8524C44.8698 48.4084 44.4273 47.7835 44.2079 47.0695L39.216 30.7645C39.0819 30.3266 39.0354 29.8664 39.0791 29.4105C39.1228 28.9545 39.2559 28.5116 39.4708 28.1071C39.6857 27.7026 39.9782 27.3443 40.3315 27.0529C40.6849 26.7614 41.0922 26.5424 41.5302 26.4084L109.716 5.53337C110.6 5.26345 111.556 5.35551 112.372 5.78933C113.189 6.22315 113.8 6.9633 114.072 7.84732L119.064 24.1525C119.334 25.037 119.241 25.9925 118.808 26.8092C118.374 27.6258 117.634 28.2371 116.75 28.5089L48.5642 49.3839C48.234 49.4852 47.8906 49.5368 47.5452 49.5369Z" fill="#1F2B6C"/>
<path d="M73.6943 17.422C77.9751 17.422 81.4453 13.9517 81.4453 9.67095C81.4453 5.39018 77.9751 1.91992 73.6943 1.91992C69.4135 1.91992 65.9433 5.39018 65.9433 9.67095C65.9433 13.9517 69.4135 17.422 73.6943 17.422Z" fill="#1F2B6C"/>
<path d="M73.6943 14.5791C76.405 14.5791 78.6025 12.3816 78.6025 9.67089C78.6025 6.96017 76.405 4.7627 73.6943 4.7627C70.9836 4.7627 68.7861 6.96017 68.7861 9.67089C68.7861 12.3816 70.9836 14.5791 73.6943 14.5791Z" fill="white"/>
<path d="M233.553 225.622H102.56C101.687 225.621 100.85 225.274 100.232 224.657C99.6145 224.039 99.2671 223.202 99.2661 222.328V65.3699C99.2671 64.4965 99.6145 63.6592 100.232 63.0416C100.85 62.424 101.687 62.0767 102.56 62.0757H233.553C234.426 62.0767 235.263 62.4241 235.881 63.0416C236.499 63.6592 236.846 64.4965 236.847 65.3699V222.328C236.846 223.202 236.498 224.039 235.881 224.656C235.263 225.274 234.426 225.621 233.553 225.622Z" fill="#E6E6E6"/>
<path d="M173.288 54.3242H91.7087C89.9622 54.3267 88.2878 55.0216 87.0528 56.2566C85.8178 57.4917 85.1228 59.166 85.1204 60.9126V218.956L85.8955 218.72V60.9126C85.8973 59.3714 86.5104 57.8939 87.6002 56.8041C88.69 55.7143 90.1675 55.1012 91.7087 55.0993H173.529L173.288 54.3242ZM244.404 54.3242H91.7087C89.9622 54.3267 88.2878 55.0216 87.0528 56.2566C85.8178 57.4917 85.1228 59.166 85.1204 60.9126V238.411C85.1228 240.158 85.8178 241.832 87.0528 243.067C88.2878 244.302 89.9622 244.997 91.7087 245H244.404C246.151 244.997 247.825 244.302 249.06 243.067C250.295 241.832 250.99 240.158 250.992 238.411V60.9126C250.99 59.166 250.295 57.4917 249.06 56.2566C247.825 55.0216 246.151 54.3267 244.404 54.3242ZM250.217 238.411C250.215 239.952 249.602 241.43 248.513 242.52C247.423 243.61 245.945 244.223 244.404 244.225H91.7087C90.1675 244.223 88.69 243.61 87.6002 242.52C86.5104 241.43 85.8973 239.952 85.8955 238.411V60.9126C85.8973 59.3714 86.5104 57.8939 87.6002 56.8041C88.69 55.7143 90.1675 55.1012 91.7087 55.0993H244.404C245.945 55.1012 247.423 55.7143 248.513 56.8041C249.602 57.8939 250.215 59.3714 250.217 60.9126V238.411Z" fill="#3F3D56"/>
<path d="M203.711 71.3768H132.402C131.477 71.3758 130.59 71.008 129.937 70.3541C129.283 69.7002 128.915 68.8136 128.914 67.8889V50.8366C128.915 49.9119 129.283 49.0253 129.937 48.3714C130.59 47.7175 131.477 47.3497 132.402 47.3486H203.711C204.636 47.3497 205.523 47.7175 206.176 48.3714C206.83 49.0253 207.198 49.9119 207.199 50.8366V67.8889C207.198 68.8136 206.83 69.7002 206.176 70.3541C205.523 71.008 204.636 71.3758 203.711 71.3768Z" fill="#1F2B6C"/>
<path d="M168.056 48.5113C172.337 48.5113 175.807 45.0411 175.807 40.7603C175.807 36.4795 172.337 33.0093 168.056 33.0093C163.776 33.0093 160.305 36.4795 160.305 40.7603C160.305 45.0411 163.776 48.5113 168.056 48.5113Z" fill="#1F2B6C"/>
<path d="M168.056 45.4813C170.664 45.4813 172.778 43.3676 172.778 40.7602C172.778 38.1528 170.664 36.0391 168.056 36.0391C165.449 36.0391 163.335 38.1528 163.335 40.7602C163.335 43.3676 165.449 45.4813 168.056 45.4813Z" fill="white"/>
</g>
<defs>
<clipPath id="clip0_484_452">
<rect width="250.992" height="245" fill="white"/>
</clipPath>
</defs>
</svg>
