<svg width="211" height="169" viewBox="0 0 211 169" fill="none" xmlns="http://www.w3.org/2000/svg">
<g clip-path="url(#clip0_814_1347)">
<path d="M177.824 161.055C178.655 161.107 179.113 160.074 178.485 159.473L178.422 159.224C178.43 159.204 178.438 159.184 178.447 159.165C178.942 157.982 180.307 157.423 181.492 157.912C185.237 159.461 181.283 163.02 181.58 165.428C181.684 166.259 184.94 166.305 184.756 167.12C186.487 163.335 187.397 159.202 187.396 155.046C187.395 154.002 187.338 152.958 187.221 151.916C187.124 151.064 186.991 150.218 186.82 149.379C185.891 144.844 183.882 140.525 180.984 136.918C179.592 136.157 180.441 134.968 179.739 133.542C179.487 133.028 177.238 133.016 177.145 132.452C177.245 132.466 178.699 130.956 178.219 130.21C177.903 129.719 178.001 129.093 178.407 128.673C178.447 128.632 178.484 128.589 178.519 128.542C179.718 126.916 181.37 127.199 182.233 129.408C184.077 130.338 184.095 131.88 182.965 133.364C182.246 134.308 182.147 135.585 181.516 136.596C181.581 136.679 181.649 136.759 181.714 136.842C182.905 138.369 183.936 140.011 184.805 141.735C184.559 139.818 184.92 137.509 185.537 136.02C186.245 134.312 187.576 132.875 188.742 131.397C190.134 129.632 192.969 130.433 193.215 132.667C193.217 132.689 193.22 132.71 193.222 132.732C193.05 132.829 192.881 132.933 192.716 133.042C191.775 133.664 192.101 135.123 193.216 135.294L193.241 135.298C193.179 135.919 190.976 137.875 190.82 138.48C192.31 144.234 191.195 144.994 186.611 145.09L186.371 145.433C186.805 146.682 187.155 147.961 187.417 149.256C187.664 150.459 187.836 151.675 187.933 152.895C188.053 154.436 188.043 155.984 187.913 157.521L187.921 157.467C188.251 155.773 189.17 154.191 190.504 153.094C192.493 151.46 195.302 150.857 197.448 149.543C198.48 148.911 199.804 149.727 199.624 150.925L199.615 150.982C199.296 151.112 198.984 151.263 198.683 151.432C198.511 151.529 198.341 151.633 198.176 151.742C197.236 152.365 197.562 153.823 198.677 153.994L198.702 153.998C198.72 154.001 198.736 154.003 198.754 154.006C198.207 155.307 192.989 157.143 192.034 158.185C191.104 163.211 191.561 163.062 187.284 161.6H187.281C186.814 163.636 186.132 165.626 185.255 167.523L178.008 167.525C177.982 167.445 177.958 167.362 177.935 167.281C178.605 167.322 179.28 167.283 179.94 167.161C179.402 166.501 178.864 165.837 178.326 165.177C178.313 165.164 178.303 165.151 178.292 165.138L178.284 165.128L177.538 162.672C177.597 162.127 177.693 161.587 177.824 161.055Z" fill="#F2F2F2"/>
<path d="M101.241 167.466L37.1142 167.489C33.8927 167.49 31.0069 165.825 29.3951 163.036C28.5892 161.641 28.1861 160.111 28.1855 158.58C28.185 157.05 28.5872 155.519 29.392 154.124L61.4351 95.7913C63.0451 93.0006 65.9298 91.334 69.1513 91.3329C72.3729 91.3318 75.2587 92.9964 76.8706 95.786L108.958 154.104C109.762 155.495 110.164 157.023 110.164 158.553C110.164 160.082 109.762 161.613 108.957 163.008C107.347 165.799 104.463 167.465 101.241 167.466ZM28.9916 158.579C28.9915 159.972 36.0677 156.97 36.8008 158.239C38.2672 160.777 34.183 166.685 37.114 166.684C37.114 166.684 106.796 165.145 108.26 162.606C108.993 161.337 109.359 159.944 109.358 158.552C109.358 157.16 108.991 155.768 108.257 154.499L76.1699 96.1811C74.7077 93.6506 72.0826 92.1362 69.1516 92.1372C66.222 92.1382 28.9917 157.186 28.9916 158.579Z" fill="#3F3D56"/>
<path d="M101.953 166.662C101.149 168.271 138.796 167.776 139.241 167.776C139.241 167.776 149.823 167.542 150.045 167.157C150.156 166.964 150.212 166.753 150.212 166.541C150.212 166.33 150.156 166.118 150.045 165.926L145.172 157.07C144.95 156.686 144.551 156.456 144.106 156.456C144.088 156.456 144.061 156.472 144.025 156.504C137.525 162.313 129.514 166.153 120.798 166.282C111.529 166.42 102.004 166.56 101.953 166.662Z" fill="#3F3D56"/>
<path d="M3.0102e-08 167.732C9.25263e-05 167.998 0.21332 168.211 0.478757 168.211L210.522 168.138C210.787 168.138 211 167.925 211 167.659C211 167.394 210.787 167.181 210.521 167.181L0.478427 167.254C0.212991 167.254 -9.24661e-05 167.467 3.0102e-08 167.732Z" fill="#CCCCCC"/>
<path d="M162.422 165.41L158.785 165.41L157.05 151.381L162.418 151.379L162.422 165.41Z" fill="#A0616A"/>
<path d="M149.96 165.331C149.847 165.522 149.788 166.138 149.788 166.36C149.788 167.041 150.341 167.594 151.023 167.594L162.287 167.59C162.752 167.59 163.129 167.212 163.129 166.747L163.129 166.278C163.129 166.278 163.686 164.869 162.538 163.132C162.538 163.132 161.112 164.492 158.981 162.363L158.352 161.224L153.805 164.552L151.284 164.864C150.733 164.932 150.244 164.853 149.96 165.331Z" fill="#2F2E41"/>
<path d="M148.475 153.41L145.03 154.576L138.893 141.841L143.978 140.12L148.475 153.41Z" fill="#A0616A"/>
<path d="M136.644 157.327C136.598 157.544 136.739 158.147 136.81 158.357C137.029 159.003 137.73 159.349 138.375 159.13L149.045 155.519C149.486 155.37 149.722 154.892 149.573 154.451L149.423 154.007C149.423 154.007 149.499 152.493 147.855 151.215C147.855 151.215 146.941 152.961 144.239 151.626L143.279 150.749L140.037 155.358L137.749 156.46C137.248 156.701 136.76 156.784 136.644 157.327Z" fill="#2F2E41"/>
<path d="M142.857 72.0225L135.801 95.3881L127.473 116.405L140.659 146.42L145.548 144.245L139.698 116.673L151.966 97.9634L157.692 156.369L162.581 156.096L169.213 85.5966L170.158 70.2472L142.857 72.0225Z" fill="#2F2E41"/>
<path d="M164.165 20.2627L153.842 22.1679L153.029 26.7865L146.781 29.777L143.533 63.7363C143.533 63.7363 138.102 70.8015 142.45 72.9733L170.159 70.2471C170.159 70.2471 171.515 65.224 170.157 64.7474C168.798 64.2709 168.794 52.2727 168.794 52.2727L175.034 27.5939L165.796 24.3371L164.165 20.2627Z" fill="#E6E6E6"/>
<path d="M158.076 20.1735C162.68 20.1735 166.412 16.4414 166.412 11.8377C166.412 7.234 162.68 3.50195 158.076 3.50195C153.472 3.50195 149.74 7.234 149.74 11.8377C149.74 16.4414 153.472 20.1735 158.076 20.1735Z" fill="#A0616A"/>
<path d="M163.596 13.0751C162.931 13.4392 163.562 15.1778 163.146 15.3281C162.666 15.5019 160.914 13.5075 160.892 11.2737C160.885 10.5976 161.041 10.2729 160.891 9.47134C160.696 8.42279 160.095 7.18607 159.539 7.2189C159.209 7.23836 158.887 7.70439 158.863 8.12029C158.83 8.70318 159.396 8.93261 159.314 9.24659C159.159 9.84464 156.781 10.2575 155.935 9.24776C155.271 8.45611 155.78 7.06618 155.484 6.99501C155.265 6.94255 155.03 7.7078 154.132 8.57251C153.794 8.8983 153.291 9.38282 153.006 9.24878C152.594 9.05507 152.893 7.68992 152.78 7.67182C152.687 7.65683 152.628 8.61636 152.105 9.47438C151.434 10.5767 150.048 11.4263 149.402 11.0524C149.006 10.8232 148.975 10.1853 148.951 9.70076C148.901 8.68002 147.418 6.33212 147.801 5.24017C148.582 3.01773 149.921 4.58434 150.526 3.84266C151.345 2.83859 152.081 3.37843 153.454 2.26461C154.796 1.17651 154.808 0.0828855 155.706 0.0109154C156.516 -0.0538963 156.803 0.809311 157.734 0.686086C158.523 0.581698 158.694 -0.0878103 159.311 0.00966466C159.876 0.0989034 159.913 0.688704 160.663 0.910361C161.142 1.05187 161.247 0.847049 161.79 0.909971C162.918 1.0409 163.676 2.06852 163.818 2.26101C164.365 3.0031 164.153 3.31604 164.719 4.06303C165.208 4.7072 166.292 4.43365 166.699 4.75539C168.03 5.80666 168.601 7.74542 168.613 9.95513C168.621 11.5007 168.42 12.2815 167.97 14.2323C167.628 15.7136 166.047 17.6279 165.175 18.4815C164.941 18.7106 164.285 19.353 163.823 19.1578C163.386 18.9729 163.373 18.1413 163.373 18.0315C163.371 17.6539 163.471 17.1866 164.273 16.0036C165.115 14.7609 165.45 14.6191 165.399 14.2009C165.309 13.4616 164.126 12.7848 163.596 13.0751Z" fill="#2F2E41"/>
<path d="M134.52 90.791C134.26 92.9637 135.171 94.8588 136.553 95.0239C137.936 95.1891 139.267 93.5616 139.527 91.3889C139.64 90.4378 139.529 89.5399 139.253 88.817L140.237 79.5968L135.9 79.2273L135.391 88.3558C134.952 88.9933 134.633 89.8399 134.52 90.791Z" fill="#A0616A"/>
<path d="M146.985 29.5576C146.985 29.5576 144.738 29.5896 143.251 32.4949C142.46 34.0388 138.231 62.9091 138.231 62.9091L134.335 86.5594L140.971 86.5928L146.143 64.1955L150.493 51.2054L146.985 29.5576Z" fill="#E6E6E6"/>
<path d="M165.661 87.3206C165.025 89.4144 165.59 91.4396 166.923 91.8441C168.255 92.2485 169.85 90.8789 170.486 88.7851C170.764 87.8686 170.812 86.9652 170.667 86.2051L173.248 77.2992L169.043 76.1768L166.944 85.0754C166.401 85.6264 165.939 86.4041 165.661 87.3206Z" fill="#A0616A"/>
<path d="M170.28 28.0031C170.28 28.0031 173.539 25.557 176.257 29.3593C178.975 33.1617 180.072 64.4029 180.072 64.4029L172.472 83.6937L166.767 81.7941L172.192 58.1573L162.677 40.2307L170.28 28.0031Z" fill="#E6E6E6"/>
<path d="M87.8631 154.602C104.077 154.602 117.221 141.458 117.221 125.244C117.221 109.031 104.077 95.887 87.8631 95.887C71.6494 95.887 58.5056 109.031 58.5056 125.244C58.5056 141.458 71.6494 154.602 87.8631 154.602Z" fill="#1F2B6C"/>
<path d="M87.8685 143.241C89.3572 143.241 90.564 142.034 90.564 140.545C90.564 139.057 89.3572 137.85 87.8685 137.85C86.3798 137.85 85.173 139.057 85.173 140.545C85.173 142.034 86.3798 143.241 87.8685 143.241Z" fill="white"/>
<path d="M87.857 107.248C87.6094 108.893 88.053 109.238 88.0555 116.331C88.0579 123.424 89.5297 132.934 87.8659 132.935C86.2021 132.935 85.5935 113.308 79.816 111.571C73.0232 109.529 88.6586 101.922 87.857 107.248Z" fill="white"/>
<path d="M48.4611 140.233L45.8088 145.837C49.0153 143.538 54.0237 141.556 58.0093 140.494C54.2957 138.701 49.7517 135.809 47.037 132.945L48.5626 138.867C30.677 135.224 17.8331 121.503 17.8277 105.786L17.1816 105.563C17.1873 121.98 29.8535 136.514 48.4611 140.233Z" fill="#3F3D56"/>
</g>
<defs>
<clipPath id="clip0_814_1347">
<rect width="211" height="168.211" fill="white"/>
</clipPath>
</defs>
</svg>
