<svg width="197" height="162" viewBox="0 0 197 162" fill="none" xmlns="http://www.w3.org/2000/svg">
<g clip-path="url(#clip0_153_297)">
<path d="M158.871 80.4765H28.5302C26.5619 80.4765 24.9624 78.877 24.9624 76.9087V3.56782C24.9624 1.5996 26.5619 6.10352e-05 28.5302 6.10352e-05H158.874C160.842 6.10352e-05 162.442 1.5996 162.442 3.56782V76.9087C162.442 78.877 160.842 80.4765 158.874 80.4765H158.871ZM28.5302 2.32245C27.8422 2.32245 27.2848 2.87982 27.2848 3.56782V76.9087C27.2848 77.5967 27.8422 78.1541 28.5302 78.1541H158.874C159.562 78.1541 160.119 77.5967 160.119 76.9087V3.56782C160.119 2.87982 159.562 2.32245 158.874 2.32245H28.5302Z" fill="#D7D7D8"/>
<path d="M197.002 160.439C197.002 160.68 196.808 160.875 196.567 160.875H0.435447C0.1945 160.875 0 160.68 0 160.439C0 160.198 0.1945 160.004 0.435447 160.004H196.567C196.808 160.004 197.002 160.198 197.002 160.439Z" fill="#2F2E43"/>
<path d="M93.5774 80.1426C94.4657 82.1311 94.1057 84.23 92.7762 84.8367C91.4466 85.4405 89.6467 84.32 88.7584 82.3314C88.3927 81.5418 88.2301 80.6709 88.2852 79.7913L84.6333 71.3204L88.8484 69.5641L92.0011 78.1018C92.692 78.6417 93.2319 79.3414 93.5745 80.1426H93.5774Z" fill="#A0616A"/>
<path d="M64.8325 31.7296C64.8325 31.7296 71.042 29.3637 72.2235 31.0764C73.405 32.7892 92.3586 75.8027 92.3586 75.8027L82.7875 78.1018L64.8325 31.7325V31.7296Z" fill="#D7D7D8"/>
<path d="M66.7046 35.3293L74.142 37.7736V27.0703H67.3955L66.7046 35.3293Z" fill="#A0616A"/>
<path d="M73.2219 30.0314C77.3134 30.0314 80.6303 26.7145 80.6303 22.6229C80.6303 18.5314 77.3134 15.2145 73.2219 15.2145C69.1303 15.2145 65.8135 18.5314 65.8135 22.6229C65.8135 26.7145 69.1303 30.0314 73.2219 30.0314Z" fill="#A0616A"/>
<path d="M71.3349 23.2036L72.3567 24.4431L74.203 21.2092C74.203 21.2092 76.5602 21.3311 76.5602 19.5806C76.5602 17.8301 78.723 17.7808 78.723 17.7808C78.723 17.7808 81.7856 12.4335 75.4426 13.8414C75.4426 13.8414 71.0417 10.8282 68.8557 13.4031C68.8557 13.4031 62.1469 16.7822 64.0658 22.6636L67.2562 28.7279L67.979 27.3548C67.979 27.3548 67.5407 21.5924 71.3349 23.1978V23.2036Z" fill="#2F2E43"/>
<path d="M64.4783 155.04H70.5571V146.415H64.4783V155.04Z" fill="#A0616A"/>
<path d="M69.8835 159.98C68.8442 160.073 63.6421 160.486 63.3808 159.292C63.1427 158.198 63.494 157.054 63.5434 156.897C64.0427 151.922 64.2285 151.867 64.3417 151.835C64.5188 151.782 65.0355 152.029 65.8745 152.569L65.9267 152.604L65.9383 152.665C65.9528 152.743 66.3244 154.569 68.0865 154.288C69.2942 154.096 69.6861 153.829 69.8109 153.698C69.7093 153.652 69.5816 153.571 69.4916 153.431C69.3609 153.228 69.3377 152.967 69.4248 152.653C69.6512 151.826 70.3305 150.604 70.3596 150.554L70.4379 150.415L77.347 155.077L81.6144 156.297C81.9366 156.389 82.195 156.619 82.3256 156.927C82.5056 157.356 82.3953 157.855 82.047 158.169C81.2719 158.866 79.7333 160.059 78.1163 160.207C77.6867 160.248 77.1177 160.262 76.479 160.262C73.8112 160.262 69.9154 159.986 69.8864 159.98H69.8835Z" fill="#2F2E43"/>
<path d="M78.3196 72.0578L62.3735 71.2421C62.3735 71.2421 59.9292 80.5084 63.018 90.1637L63.3895 148.307H72.4004L80.8945 88.329L78.3196 72.0578Z" fill="#2F2E43"/>
<path d="M75.6285 33.274L66.876 28.6292C66.876 28.6292 57.4442 42.4126 58.7477 49.879C60.054 57.3455 62.3706 71.245 62.3706 71.245L81.6783 72.0607L78.308 44.6885L75.6285 33.274Z" fill="#D7D7D8"/>
<path d="M68.8006 155.04H74.8794V146.415H68.8006V155.04Z" fill="#A0616A"/>
<path d="M74.2062 159.98C73.167 160.073 67.9648 160.486 67.7035 159.292C67.4655 158.198 67.8168 157.054 67.8661 156.897C68.3654 151.922 68.5512 151.867 68.6644 151.835C68.8415 151.782 69.3582 152.029 70.1972 152.569L70.2495 152.604L70.2611 152.665C70.2756 152.743 70.6472 154.569 72.4093 154.288C73.6169 154.096 74.0088 153.829 74.1336 153.698C74.032 153.652 73.9043 153.571 73.8143 153.431C73.6837 153.228 73.6605 152.967 73.7476 152.653C73.974 151.826 74.6533 150.604 74.6823 150.554L74.7607 150.415L81.6698 155.077L85.9372 156.297C86.2594 156.389 86.5178 156.619 86.6484 156.927C86.8284 157.356 86.7181 157.855 86.3697 158.169C85.5946 158.866 84.056 160.059 82.4391 160.207C82.0094 160.248 81.4405 160.262 80.8018 160.262C78.134 160.262 74.2382 159.986 74.2091 159.98H74.2062Z" fill="#2F2E43"/>
<path d="M81.6783 72.0578L62.3706 71.2421C62.3706 71.2421 59.9263 80.5084 63.015 90.1637L66.7483 148.307H75.7591L84.2532 88.329L81.6783 72.0578Z" fill="#2F2E43"/>
<path d="M102.582 27.6655L101.36 30.7223C101.36 30.7223 100.234 35.0013 101.555 36.7082C102.873 38.4123 103.166 51.4786 101.749 52.4424C100.333 53.4091 119.704 43.4954 119.704 43.4954C119.704 43.4954 112.142 25.9585 112.014 25.8946C111.886 25.8308 106.931 24.2864 106.931 24.2864L102.588 27.6655H102.582Z" fill="#2F2E43"/>
<path d="M115.196 42.7754L108.705 44.9091V35.5673H114.595L115.196 42.7754Z" fill="#F3A3A6"/>
<path d="M95.357 95.8158C95.0058 97.9553 93.5775 99.491 92.1695 99.2442C90.7616 98.9975 89.9023 97.0612 90.2565 94.9188C90.3842 94.0624 90.7239 93.2496 91.2464 92.5558L92.8546 83.5072L97.2323 84.4245L95.1799 93.2467C95.4499 94.0827 95.5109 94.9623 95.357 95.8158Z" fill="#F3A3A6"/>
<path d="M112.758 147.367H106.679V155.992H112.758V147.367Z" fill="#F3A3A6"/>
<path d="M100.757 161.214C100.118 161.214 99.549 161.2 99.1193 161.159C97.5053 161.011 95.9638 159.818 95.1887 159.121C94.8404 158.808 94.73 158.308 94.91 157.879C95.0407 157.571 95.299 157.339 95.6213 157.249L99.8886 156.029L106.798 151.367L106.876 151.507C106.905 151.559 107.584 152.781 107.811 153.605C107.898 153.919 107.875 154.18 107.744 154.383C107.654 154.523 107.526 154.604 107.425 154.65C107.55 154.781 107.942 155.048 109.149 155.24C110.911 155.518 111.283 153.693 111.297 153.617L111.309 153.556L111.361 153.521C112.2 152.981 112.717 152.735 112.894 152.787C113.004 152.819 113.19 152.877 113.692 157.85C113.742 158.006 114.093 159.15 113.855 160.245C113.597 161.435 108.394 161.025 107.352 160.933C107.323 160.935 103.427 161.214 100.76 161.214H100.757Z" fill="#2F2E43"/>
<path d="M130.066 140.591L124.908 143.808L129.472 151.126L134.63 147.909L130.066 140.591Z" fill="#F3A3A6"/>
<path d="M123.217 160.03C122.503 160.03 121.847 159.943 121.379 159.861C120.921 159.78 120.561 159.414 120.485 158.956C120.433 158.625 120.529 158.291 120.755 158.044L123.731 154.752L127.127 147.14L127.266 147.216C127.319 147.245 128.541 147.921 129.171 148.502C129.412 148.723 129.531 148.958 129.525 149.199C129.522 149.367 129.458 149.501 129.394 149.596C129.569 149.643 130.042 149.66 131.168 149.184C132.811 148.49 132.161 146.743 132.132 146.67L132.109 146.612L132.135 146.557C132.562 145.654 132.866 145.172 133.046 145.123C133.16 145.091 133.345 145.042 136.402 148.998C136.527 149.103 137.43 149.89 137.807 150.943C138.217 152.09 133.586 154.497 132.654 154.967C132.625 154.99 127.78 158.511 125.789 159.513C124.999 159.911 124.064 160.033 123.214 160.033L123.217 160.03Z" fill="#2F2E43"/>
<path d="M117.234 75.2424H100.214L98.6694 91.0752L105.428 149.576H114.116L110.641 115.788L124.735 146.293L132.457 140.887L121.452 112.409C121.452 112.409 125.383 87.6004 122.294 81.4199C119.205 75.2424 117.234 75.2424 117.234 75.2424Z" fill="#2F2E43"/>
<path d="M125.699 76.2091H96.1582L106.777 41.263H118.555L125.699 76.2091Z" fill="#D7D7D8"/>
<path d="M108.635 41.2688C108.635 41.2688 101.299 41.0743 100.527 43.0077C99.7549 44.9381 90.6802 90.8894 90.6802 90.8894H96.6661L108.638 41.2688H108.635Z" fill="#D7D7D8"/>
<path d="M109.509 38.1539C113.081 38.1539 115.977 35.2581 115.977 31.686C115.977 28.114 113.081 25.2182 109.509 25.2182C105.937 25.2182 103.042 28.114 103.042 31.686C103.042 35.2581 105.937 38.1539 109.509 38.1539Z" fill="#F3A3A6"/>
<path d="M110.763 21.6359C110.763 21.6359 118.549 19.6416 120.933 30.0023C120.933 30.0023 120.997 32.705 122.349 33.7994C123.702 34.8939 123.249 40.5576 123.249 40.5576C123.249 40.5576 125.824 44.8046 123.635 46.7351C123.635 46.7351 122.669 50.6599 124.085 52.9127C125.502 55.1654 130.843 67.5553 121.96 68.3101C121.96 68.3101 117.455 65.59 119.58 57.4819C121.705 49.3739 119.321 44.8946 119.321 44.8946C119.321 44.8946 112.499 42.4213 112.886 37.1437C113.272 31.866 108.508 26.6523 108.189 26.7191C107.869 26.7858 104.519 24.8524 103.039 30.7745L101.454 30.5045C101.454 30.5045 100.786 20.5415 110.763 21.6359Z" fill="#2F2E43"/>
<path d="M130.741 94.7766C131.174 96.9016 130.381 98.8437 128.976 99.1137C127.571 99.3837 126.082 97.877 125.653 95.752C125.47 94.9044 125.499 94.0276 125.737 93.1916L124.027 84.1604L128.445 83.4608L129.662 92.4368C130.21 93.1219 130.579 93.9231 130.741 94.7766Z" fill="#F3A3A6"/>
<path d="M113.411 41.3095C113.411 41.3095 119.873 40.4908 120.645 42.4213C121.417 44.3518 130.492 90.3031 130.492 90.3031H124.506L113.411 41.3095Z" fill="#D7D7D8"/>
<path d="M111.451 102.371C126.023 102.371 137.836 90.5577 137.836 75.9855C137.836 61.4134 126.023 49.6003 111.451 49.6003C96.879 49.6003 85.0659 61.4134 85.0659 75.9855C85.0659 90.5577 96.879 102.371 111.451 102.371Z" fill="#1F2B6C"/>
<path d="M115.547 62.4635C113.756 68.4553 111.965 74.447 110.171 80.4388C109.181 78.7666 108.191 77.0945 107.204 75.4224C106.217 73.7532 103.61 75.2686 104.603 76.9436C106.179 79.6056 107.753 82.2676 109.329 84.9297C110 86.0618 111.712 85.8064 112.084 84.5697C114.209 77.469 116.331 70.3654 118.456 63.2647C119.013 61.4039 116.105 60.6056 115.55 62.4635H115.547Z" fill="white"/>
<path d="M96.4108 84.0848C97.5488 85.9311 97.4762 88.0271 96.2511 88.7644C95.0261 89.5018 93.1101 88.6019 91.9722 86.7556C91.5077 86.024 91.2319 85.188 91.168 84.3229L86.4507 76.4355L90.3581 74.2553L94.5935 82.2618C95.3454 82.7146 95.9696 83.3417 96.4137 84.0848H96.4108Z" fill="#A0616A"/>
<path d="M61.706 39.8696C61.706 39.8696 67.4888 36.8737 68.8793 38.4181C70.2698 39.9654 94.6316 79.9684 94.6316 79.9684L85.5366 83.2662L61.7031 39.8696H61.706Z" fill="#D7D7D8"/>
</g>
<defs>
<clipPath id="clip0_153_297">
<rect width="197.002" height="161.214" fill="white"/>
</clipPath>
</defs>
</svg>
