<svg width="255" height="220" viewBox="0 0 255 220" fill="none" xmlns="http://www.w3.org/2000/svg">
<g clip-path="url(#clip0_38_1268)">
<path d="M0 217.127C0 217.447 0.257125 217.704 0.577312 217.704H253.947C254.267 217.704 254.524 217.447 254.524 217.127C254.524 216.807 254.267 216.549 253.947 216.549H0.577312C0.257122 216.549 0 216.807 0 217.127Z" fill="#3F3C57"/>
<path d="M82.667 23.3112L85.4223 35.8842L79.5617 53.3847L70.1196 34.5819L71.4297 23.6736L82.667 23.3112Z" fill="#FDB4B4"/>
<path d="M85.9343 35.233H69.6313V54.9312H85.9343V35.233Z" fill="#1F2B6C"/>
<path d="M79.2302 29.6444C85.3792 29.6444 90.3639 24.6597 90.3639 18.5106C90.3639 12.3616 85.3792 7.37686 79.2302 7.37686C73.0811 7.37686 68.0964 12.3616 68.0964 18.5106C68.0964 24.6597 73.0811 29.6444 79.2302 29.6444Z" fill="#FDB4B4"/>
<path d="M69.5387 26.7898C69.5387 26.7898 61.2396 11.4626 68.7222 4.08678C76.2049 -3.28904 82.2116 1.57117 82.2116 1.57117L85.6417 1.43255C85.6417 1.43255 86.357 4.13195 87.5106 2.67065C88.6641 1.20935 90.7486 6.53121 90.7486 6.53121C94.6174 13.4988 81.2056 15.0597 81.2056 15.0597C81.2056 15.0597 82.1741 18.1447 81.1897 18.7908C80.2053 19.4368 77.5752 21.8673 77.5752 21.8673L75.2211 23.6452L73.8221 21.5137C73.8221 21.5137 72.3608 20.3602 71.6225 20.8447C70.8842 21.3293 71.8998 27.7048 71.8998 27.7048L69.5387 26.7898Z" fill="#2E2E41"/>
<path d="M56.1822 139.549L51.9254 203.045L62.3899 203.4L76.2243 140.081L56.1822 139.549Z" fill="#2E2E41"/>
<path d="M81.5452 139.194L77.2885 202.691L87.7529 203.045L101.587 139.726L81.5452 139.194Z" fill="#2E2E41"/>
<path d="M53.6189 154.056L59.1896 84.8997L50.6467 48.8883C49.9102 43.5352 53.283 38.4701 58.4887 37.0889L66.8481 34.8711L70.5481 31.171L78.9638 49.7558L84.2199 31.1852L88.3191 34.1664L100.477 39.5301L100.471 39.6557L98.5209 83.1572L102.874 153.44L102.681 153.443L53.6189 154.056Z" fill="#E8E9EA"/>
<path d="M87.0811 202.324L90.1111 211.369C90.1111 211.369 101.965 212.981 102.15 216.651C102.334 220.321 86.0393 218.196 76.4977 218.676C66.9561 219.156 74.8987 208.823 74.8987 208.823L75.9155 202.885L87.0811 202.324Z" fill="#2E2E41"/>
<path d="M62.3362 201.673L65.3663 210.718C65.3663 210.718 77.2204 212.33 77.4049 216C77.5893 219.67 61.2944 217.545 51.7528 218.025C42.2112 218.504 50.1539 208.172 50.1539 208.172L51.1707 202.234L62.3362 201.673Z" fill="#2E2E41"/>
<path d="M47.5532 117.328C47.4247 115.544 47.7253 113.756 48.4298 112.113L46.1684 93.5617L55.0269 92.7438L56.3668 111.65C57.2571 113.2 57.7632 114.94 57.8428 116.726C58.1033 121.193 56.0111 124.947 53.1693 125.113C50.3276 125.279 47.813 121.793 47.5532 117.328Z" fill="#FDB4B4"/>
<path d="M103.661 120.051C103.552 118.266 103.872 116.481 104.594 114.846L102.535 96.271L111.402 95.5497L112.536 114.469C113.409 116.029 113.896 117.775 113.956 119.561C114.168 124.031 112.035 127.762 109.192 127.897C106.349 128.031 103.872 124.519 103.661 120.051Z" fill="#FDB4B4"/>
<path d="M46.132 109.888L46.102 109.728L41.4852 84.9569L46.9404 44.6195C47.4272 41.0182 50.6429 38.424 54.2691 38.7139C56.1629 38.8655 57.862 39.7637 59.0538 41.2434C60.2455 42.723 60.7612 44.5746 60.5057 46.4572L56.3999 76.7098L58.9849 109.068L46.132 109.888Z" fill="#E8E9EA"/>
<path d="M100.925 109.307L91.6428 47.3475C91.1603 45.5307 91.4427 43.6294 92.4421 42.0138C93.4415 40.3981 95.0164 39.2965 96.877 38.9116C100.436 38.1755 103.951 40.3513 104.88 43.8643L113.797 108.529L100.925 109.307Z" fill="#E8E9EA"/>
<path d="M79.2362 55.4196C79.8655 55.4196 80.3757 54.9094 80.3757 54.28C80.3757 53.6507 79.8655 53.1405 79.2362 53.1405C78.6068 53.1405 78.0966 53.6507 78.0966 54.28C78.0966 54.9094 78.6068 55.4196 79.2362 55.4196Z" fill="#D6D7D8"/>
<path d="M79.2362 64.0477C79.8655 64.0477 80.3757 63.5375 80.3757 62.9082C80.3757 62.2788 79.8655 61.7686 79.2362 61.7686C78.6068 61.7686 78.0966 62.2788 78.0966 62.9082C78.0966 63.5375 78.6068 64.0477 79.2362 64.0477Z" fill="#D6D7D8"/>
<path d="M79.2362 72.6759C79.8655 72.6759 80.3757 72.1657 80.3757 71.5363C80.3757 70.907 79.8655 70.3968 79.2362 70.3968C78.6068 70.3968 78.0966 70.907 78.0966 71.5363C78.0966 72.1657 78.6068 72.6759 79.2362 72.6759Z" fill="#D6D7D8"/>
<path d="M79.2362 81.304C79.8655 81.304 80.3757 80.7938 80.3757 80.1644C80.3757 79.5351 79.8655 79.0249 79.2362 79.0249C78.6068 79.0249 78.0966 79.5351 78.0966 80.1644C78.0966 80.7938 78.6068 81.304 79.2362 81.304Z" fill="#D6D7D8"/>
<path d="M79.2362 89.9321C79.8655 89.9321 80.3757 89.4219 80.3757 88.7926C80.3757 88.1632 79.8655 87.653 79.2362 87.653C78.6068 87.653 78.0966 88.1632 78.0966 88.7926C78.0966 89.4219 78.6068 89.9321 79.2362 89.9321Z" fill="#D6D7D8"/>
<path d="M79.2362 98.5602C79.8655 98.5602 80.3757 98.05 80.3757 97.4207C80.3757 96.7913 79.8655 96.2811 79.2362 96.2811C78.6068 96.2811 78.0966 96.7913 78.0966 97.4207C78.0966 98.05 78.6068 98.5602 79.2362 98.5602Z" fill="#D6D7D8"/>
<path d="M79.2362 107.188C79.8655 107.188 80.3757 106.678 80.3757 106.049C80.3757 105.419 79.8655 104.909 79.2362 104.909C78.6068 104.909 78.0966 105.419 78.0966 106.049C78.0966 106.678 78.6068 107.188 79.2362 107.188Z" fill="#D6D7D8"/>
<path d="M79.2362 115.816C79.8655 115.816 80.3757 115.306 80.3757 114.677C80.3757 114.048 79.8655 113.537 79.2362 113.537C78.6068 113.537 78.0966 114.048 78.0966 114.677C78.0966 115.306 78.6068 115.816 79.2362 115.816Z" fill="#D6D7D8"/>
<path d="M79.2375 122.491L57.6757 119.617L57.2604 119.562L46.2407 94.1533L39.678 79.0255H56.7717L79.2375 122.491Z" fill="#1F2B6C"/>
<path d="M165.689 26.0756L179.398 18.5657V40.0225H163.543L165.689 26.0756Z" fill="#2E2E41"/>
<path d="M182.337 30.8593L183.602 41.3933L174.484 59.551L168.824 42.651L171.485 30.5094L182.337 30.8593Z" fill="#FDB4B4"/>
<path d="M184.073 42.0222H168.33V61.0444H184.073V42.0222Z" fill="#1F2B6C"/>
<path d="M197.061 142.759L201.172 204.076L191.066 204.419L177.707 143.273L197.061 142.759Z" fill="#2E2E41"/>
<path d="M172.568 142.416L176.679 203.734L166.574 204.076L153.214 142.93L172.568 142.416Z" fill="#2E2E41"/>
<path d="M207.737 155.764L207.497 155.763L143.12 155.553L143.178 155.325L159.729 89.7497L155.583 56.6563C154.798 50.3854 158.155 44.4582 163.937 41.9074L166.024 40.9866L169.989 38.1029L175.062 56.0283L183.186 38.0889L186.765 41.667L194.835 43.8083C199.866 45.1428 203.125 50.0372 202.416 55.1929L202.407 55.2288L190.082 90.3971L207.737 155.764Z" fill="#E8E9EA"/>
<path d="M167.222 203.379L178.005 203.921L178.987 209.655C178.987 209.655 186.657 219.634 177.443 219.171C168.228 218.707 152.493 220.759 152.671 217.215C152.849 213.671 164.296 212.115 164.296 212.115L167.222 203.379Z" fill="#2E2E41"/>
<path d="M191.118 202.751L201.901 203.293L202.882 209.027C202.882 209.027 210.553 219.005 201.338 218.542C192.124 218.079 176.388 220.13 176.567 216.586C176.745 213.042 188.192 211.486 188.192 211.486L191.118 202.751Z" fill="#2E2E41"/>
<path d="M200.992 120.671C200.741 124.983 198.313 128.349 195.569 128.189C192.824 128.029 190.804 124.404 191.056 120.09C191.132 118.366 191.621 116.685 192.481 115.188L193.775 96.9307L202.329 97.7205L200.146 115.635C200.826 117.222 201.116 118.949 200.992 120.671Z" fill="#FDB4B4"/>
<path d="M157.031 119.032C156.688 123.337 154.189 126.651 151.449 126.432C148.709 126.214 146.766 122.546 147.109 118.239C147.223 116.517 147.747 114.846 148.638 113.368L150.321 95.1428L158.856 96.1145L156.292 113.978C156.938 115.58 157.192 117.312 157.031 119.032Z" fill="#FDB4B4"/>
<path d="M202.37 113.494L189.946 112.701L189.961 112.514L192.442 81.447L188.478 52.2333C188.231 50.4136 188.729 48.6237 189.881 47.1936C191.033 45.7633 192.675 44.8951 194.506 44.7485C198.011 44.4722 201.119 46.976 201.59 50.4569L206.858 89.4112L206.853 89.4403L202.37 113.494Z" fill="#E8E9EA"/>
<path d="M159.099 112.303L146.656 111.551L146.683 111.355L155.264 49.12C156.166 45.7019 159.565 43.5995 163.004 44.3107C164.803 44.6827 166.325 45.7475 167.291 47.3093C168.257 48.8712 168.53 50.7088 168.06 52.4839L159.099 112.303Z" fill="#E8E9EA"/>
<path d="M174.798 61.5161C175.406 61.5161 175.899 61.0234 175.899 60.4156C175.899 59.8078 175.406 59.3151 174.798 59.3151C174.19 59.3151 173.698 59.8078 173.698 60.4156C173.698 61.0234 174.19 61.5161 174.798 61.5161Z" fill="#D6D7D8"/>
<path d="M174.798 69.8481C175.406 69.8481 175.899 69.3554 175.899 68.7477C175.899 68.1399 175.406 67.6472 174.798 67.6472C174.19 67.6472 173.698 68.1399 173.698 68.7477C173.698 69.3554 174.19 69.8481 174.798 69.8481Z" fill="#D6D7D8"/>
<path d="M174.798 78.1802C175.406 78.1802 175.899 77.6875 175.899 77.0797C175.899 76.472 175.406 75.9793 174.798 75.9793C174.19 75.9793 173.698 76.472 173.698 77.0797C173.698 77.6875 174.19 78.1802 174.798 78.1802Z" fill="#D6D7D8"/>
<path d="M174.798 86.5123C175.406 86.5123 175.899 86.0196 175.899 85.4118C175.899 84.804 175.406 84.3113 174.798 84.3113C174.19 84.3113 173.698 84.804 173.698 85.4118C173.698 86.0196 174.19 86.5123 174.798 86.5123Z" fill="#D6D7D8"/>
<path d="M174.798 94.8443C175.406 94.8443 175.899 94.3516 175.899 93.7439C175.899 93.1361 175.406 92.6434 174.798 92.6434C174.19 92.6434 173.698 93.1361 173.698 93.7439C173.698 94.3516 174.19 94.8443 174.798 94.8443Z" fill="#D6D7D8"/>
<path d="M174.798 103.176C175.406 103.176 175.899 102.684 175.899 102.076C175.899 101.468 175.406 100.975 174.798 100.975C174.19 100.975 173.698 101.468 173.698 102.076C173.698 102.684 174.19 103.176 174.798 103.176Z" fill="#D6D7D8"/>
<path d="M174.798 111.508C175.406 111.508 175.899 111.016 175.899 110.408C175.899 109.8 175.406 109.308 174.798 109.308C174.19 109.308 173.698 109.8 173.698 110.408C173.698 111.016 174.19 111.508 174.798 111.508Z" fill="#D6D7D8"/>
<path d="M174.798 119.841C175.406 119.841 175.899 119.348 175.899 118.74C175.899 118.132 175.406 117.64 174.798 117.64C174.19 117.64 173.698 118.132 173.698 118.74C173.698 119.348 174.19 119.841 174.798 119.841Z" fill="#D6D7D8"/>
<path d="M176.469 36.2355C182.153 36.2355 186.762 31.6271 186.762 25.9423C186.762 20.2575 182.153 15.6491 176.469 15.6491C170.784 15.6491 166.175 20.2575 166.175 25.9423C166.175 31.6271 170.784 36.2355 176.469 36.2355Z" fill="#FDB4B4"/>
<path d="M181.863 13.9263C182.356 14.9295 181.574 16.1825 180.539 16.6043C179.503 17.026 178.334 16.8551 177.23 16.6796C176.126 16.504 174.955 16.3375 173.923 16.7668C172.587 17.3221 171.834 18.7152 171.186 20.008C169.975 22.4214 168.764 24.8348 167.553 27.2481C166.961 28.4273 166.356 29.6594 166.344 30.9786C166.324 33.4001 168.244 35.3353 169.278 37.5253C170.536 40.1917 170.433 43.4593 169.008 46.0405C167.583 48.6217 164.873 50.4505 161.946 50.8062C161.176 50.8998 160.361 50.8897 159.668 50.5398C158.976 50.19 158.447 49.426 158.576 48.6609C158.826 47.1645 161.113 46.8148 161.533 45.3568C161.752 44.5957 161.364 43.7829 160.841 43.1884C160.317 42.5939 159.655 42.1302 159.156 41.5152C158.005 40.0973 157.928 37.9085 158.977 36.4135C159.594 35.5349 160.547 34.8821 160.946 33.8855C161.286 33.036 161.162 32.0811 161.034 31.1753C160.868 30.0114 160.703 28.8474 160.538 27.6835C160.345 26.3256 160.155 24.9189 160.536 23.6014C161.409 20.582 164.819 19.164 166.818 16.7387C167.747 15.6117 168.372 14.2563 169.325 13.1496C170.925 11.2923 173.443 10.2678 175.885 10.4808C178.326 10.6938 180.629 12.1388 181.883 14.2449" fill="#2E2E41"/>
<path d="M180.238 14.1167C179.735 14.2965 179.548 14.9515 179.693 15.4656C179.838 15.9797 180.217 16.3881 180.564 16.7942C184.488 21.3864 185.4 28.3326 182.795 33.7821C182.101 35.2316 181.178 36.5958 180.805 38.1584C180.533 39.2954 180.547 40.5425 179.916 41.5268C179.274 42.5289 178.002 43.2004 177.876 44.3839C177.795 45.1434 178.258 45.8812 178.879 46.3265C179.499 46.7718 180.257 46.9755 181.003 47.1416C182.94 47.5734 184.922 47.8091 186.907 47.844C187.554 47.8554 188.222 47.8414 188.815 47.5836C189.409 47.3257 189.916 46.7665 189.922 46.1193C189.928 45.6107 189.634 45.1415 189.597 44.6342C189.485 43.1141 191.53 42.3054 191.929 40.8342C192.191 39.867 191.674 38.8717 191.125 38.034C190.575 37.1963 189.947 36.3166 189.961 35.3146C189.974 34.3554 190.576 33.5107 190.81 32.5803C191.133 31.2934 190.736 29.9474 190.341 28.6804C190.006 27.6033 189.671 26.5261 189.336 25.449C188.979 24.3039 188.623 23.1588 188.267 22.0138C187.644 20.0147 186.991 17.9578 185.645 16.3545C184.299 14.7511 182.068 13.7003 180.079 14.3549" fill="#2E2E41"/>
<path d="M187.252 54.0028L186.546 53.7972C188.016 48.7576 184.847 39.3528 184.815 39.2585L185.51 39.0213C185.645 39.4158 188.786 48.7425 187.252 54.0028Z" fill="#3F3C57"/>
<path d="M186.899 59.7914C188.595 59.7914 189.969 58.4171 189.969 56.7217C189.969 55.0264 188.595 53.6521 186.899 53.6521C185.204 53.6521 183.829 55.0264 183.829 56.7217C183.829 58.4171 185.204 59.7914 186.899 59.7914Z" fill="#3F3C57"/>
<path d="M166.729 67.5894H164.868C164.665 67.5894 164.5 67.4249 164.5 67.222C164.5 67.0191 164.665 66.8545 164.868 66.8545H166.729C167.243 66.8545 167.724 66.6547 168.087 66.2915C168.449 65.9286 168.648 65.4461 168.647 64.9333L168.624 53.4666C168.624 50.9755 166.598 48.9495 164.108 48.9495C161.618 48.9495 159.591 50.9755 159.591 53.4658L159.614 64.1988C159.616 65.2459 160.47 66.1042 161.517 66.1123L162.795 66.122C162.997 66.1236 163.161 66.2892 163.159 66.4923C163.158 66.6941 162.994 66.8569 162.792 66.8569H162.789L161.511 66.8472C160.063 66.8361 158.882 65.6485 158.879 64.2002L158.857 53.4666C158.857 50.5704 161.212 48.2146 164.108 48.2146C167.004 48.2146 169.359 50.5704 169.359 53.4658L169.382 64.9319C169.383 65.6413 169.108 66.3086 168.607 66.8106C168.106 67.3128 167.439 67.5894 166.729 67.5894Z" fill="#3F3C57"/>
<path d="M162.792 67.7918C163.511 67.7918 164.094 67.2087 164.094 66.4894C164.094 65.7702 163.511 65.1871 162.792 65.1871C162.073 65.1871 161.49 65.7702 161.49 66.4894C161.49 67.2087 162.073 67.7918 162.792 67.7918Z" fill="#3F3C57"/>
<path d="M164.868 68.5244C165.587 68.5244 166.17 67.9413 166.17 67.222C166.17 66.5027 165.587 65.9197 164.868 65.9197C164.148 65.9197 163.565 66.5027 163.565 67.222C163.565 67.9413 164.148 68.5244 164.868 68.5244Z" fill="#3F3C57"/>
<path d="M89.6835 48.4949L88.978 48.2893C90.4478 43.2497 87.3142 33.6993 87.2823 33.6049L88.1641 34.2696C88.2987 34.6642 91.2179 43.2346 89.6835 48.4949Z" fill="#3F3C57"/>
<path d="M64.8844 49.3903L65.5899 49.1847C64.1201 44.145 67.2893 34.7403 67.3213 34.6459L66.5666 35.1514C66.4321 35.546 63.35 44.13 64.8844 49.3903Z" fill="#3F3C57"/>
<path d="M89.3308 54.2835C91.0261 54.2835 92.4005 52.9092 92.4005 51.2139C92.4005 49.5185 91.0261 48.1442 89.3308 48.1442C87.6355 48.1442 86.2611 49.5185 86.2611 51.2139C86.2611 52.9092 87.6355 54.2835 89.3308 54.2835Z" fill="#3F3C57"/>
<path d="M68.157 68.2677H66.2954C66.0923 68.2677 65.928 68.1032 65.928 67.9003C65.928 67.6974 66.0923 67.5328 66.2954 67.5328H68.157C68.6702 67.5328 69.1521 67.333 69.5145 66.9698C69.8766 66.6069 70.0757 66.1244 70.0747 65.6116L70.0521 54.1449C70.0521 51.6538 68.0261 49.6278 65.5357 49.6278C63.0454 49.6278 61.0191 51.6538 61.0191 54.1441L61.0417 64.8771C61.0438 65.9242 61.8975 66.7825 62.9446 66.7906L64.2224 66.8003C64.4251 66.8019 64.5884 66.9675 64.587 67.1706C64.5855 67.3724 64.4212 67.5352 64.2195 67.5352H64.2167L62.9388 67.5255C61.4906 67.5144 60.3097 66.3268 60.3068 64.8785L60.2842 54.1449C60.2842 51.2487 62.6399 48.8929 65.5357 48.8929C68.4312 48.8929 70.7869 51.2487 70.7869 54.1441L70.8096 65.6102C70.811 66.3196 70.5358 66.9869 70.0345 67.4889C69.5335 67.9911 68.8665 68.2677 68.157 68.2677Z" fill="#3F3C57"/>
<path d="M64.2197 68.4701C64.939 68.4701 65.5221 67.887 65.5221 67.1677C65.5221 66.4485 64.939 65.8654 64.2197 65.8654C63.5004 65.8654 62.9174 66.4485 62.9174 67.1677C62.9174 67.887 63.5004 68.4701 64.2197 68.4701Z" fill="#3F3C57"/>
<path d="M66.2953 69.2027C67.0146 69.2027 67.5977 68.6196 67.5977 67.9004C67.5977 67.1811 67.0146 66.598 66.2953 66.598C65.5761 66.598 64.993 67.1811 64.993 67.9004C64.993 68.6196 65.5761 69.2027 66.2953 69.2027Z" fill="#3F3C57"/>
</g>
<defs>
<clipPath id="clip0_38_1268">
<rect width="254.524" height="219.348" fill="white"/>
</clipPath>
</defs>
</svg>
