<svg width="142" height="124" viewBox="0 0 142 124" fill="none" xmlns="http://www.w3.org/2000/svg">
<g clip-path="url(#clip0_235_1073)">
<path d="M136.104 33.3383C136.028 33.4501 135.95 33.5601 135.872 33.6701L135.692 33.3099L135.664 33.2514L135.487 32.8965L130.969 23.7918L130.967 23.7901L123.309 8.36309V8.36132L123.133 8.0082V8.00643L119.343 0.371019L119.164 0.0090332C119.298 0.0125821 119.433 0.0179061 119.568 0.0250039L119.749 0.388763L123.529 8.00643L123.53 8.0082L123.706 8.36132V8.36309L131.169 23.3979V23.3997L131.345 23.7528V23.7546L135.863 32.8521L135.923 32.9746L136.104 33.3383Z" fill="#3F3D56"/>
<path d="M135.46 8.36319H101.65C101.74 8.2443 101.833 8.12541 101.928 8.0083H135.181C135.277 8.12541 135.369 8.2443 135.46 8.36319Z" fill="#3F3D56"/>
<path d="M139.744 23.3994C139.733 23.5183 139.721 23.6372 139.705 23.7543H131.043V23.3994H139.744Z" fill="#3F3D56"/>
<path d="M102.936 6.83862V35.7478C102.814 35.6183 102.697 35.4869 102.581 35.3556V7.23077C102.697 7.09947 102.814 6.96816 102.936 6.83862Z" fill="#3F3D56"/>
<path d="M135.775 32.896H102.759V33.2509H135.775V32.896Z" fill="#3F3D56"/>
<path d="M123.428 16.5505C123.428 19.5751 118.98 28.1046 117.31 31.2014C117.249 31.3141 117.159 31.4082 117.049 31.4739C116.939 31.5395 116.813 31.5742 116.685 31.5742C116.558 31.5742 116.432 31.5395 116.322 31.4739C116.212 31.4082 116.122 31.3141 116.061 31.2014C114.391 28.1046 109.943 19.5751 109.943 16.5505C109.943 14.7622 110.653 13.0471 111.918 11.7826C113.182 10.518 114.897 9.80762 116.685 9.80762C118.474 9.80762 120.189 10.518 121.453 11.7826C122.718 13.0471 123.428 14.7622 123.428 16.5505Z" fill="#1F2B6C"/>
<path d="M116.685 19.567C118.351 19.567 119.702 18.2165 119.702 16.5505C119.702 14.8845 118.351 13.5339 116.685 13.5339C115.019 13.5339 113.669 14.8845 113.669 16.5505C113.669 18.2165 115.019 19.567 116.685 19.567Z" fill="white"/>
<path d="M116.685 34.4723C117.371 34.4723 117.928 33.9161 117.928 33.2301C117.928 32.5441 117.371 31.988 116.685 31.988C115.999 31.988 115.443 32.5441 115.443 33.2301C115.443 33.9161 115.999 34.4723 116.685 34.4723Z" fill="#1F2B6C"/>
<path d="M39.2747 121.402C39.3279 121.427 39.3829 121.451 39.4379 121.473C39.3883 121.457 39.3385 121.441 39.2906 121.425C38.5879 121.192 37.8906 120.946 37.1985 120.685C36.0861 120.268 34.9883 119.815 33.9053 119.327C33.1315 118.98 32.365 118.615 31.6056 118.233C24.9409 114.881 18.9867 110.273 14.0705 104.662C13.6234 104.151 13.1851 103.631 12.7556 103.102C12.3902 102.653 12.0323 102.198 11.6821 101.736C9.6767 99.0966 7.90729 96.2863 6.39435 93.3372C2.08292 84.9502 -0.110214 75.6355 0.00636966 66.206C0.0560149 63.012 0.391408 59.7524 1.7329 56.8547C2.84192 54.461 4.73342 52.337 7.11479 51.283C7.31346 51.1942 7.51577 51.1126 7.72163 51.0416C8.03759 50.9279 8.36061 50.8348 8.68865 50.763C12.0921 50.0142 15.6853 51.5456 18.221 53.9357C20.7584 56.3259 22.4211 59.4791 23.9524 62.611C28.8232 72.5798 33.0766 82.9336 36.3912 93.5572C36.4285 93.6778 36.4657 93.7967 36.503 93.9156C35.251 94.8218 34.1362 95.9038 33.1931 97.1282L31.4569 99.9405C31.1027 100.672 30.8054 101.43 30.5675 102.208C30.4663 102.534 30.377 102.865 30.2995 103.201C29.4552 106.805 29.8886 110.59 31.5256 113.91C33.1626 117.229 35.9017 119.878 39.2747 121.402Z" fill="#F2F2F2"/>
<path d="M42.8111 122.467L42.7987 122.529L42.7951 122.543C42.7951 122.538 42.7934 122.534 42.7934 122.529C42.7898 122.506 42.788 122.483 42.7845 122.459C42.7934 122.461 42.8022 122.465 42.8111 122.467Z" fill="#F2F2F2"/>
<path d="M30.3422 101.746C30.4168 101.901 30.4913 102.055 30.5676 102.208C30.4664 102.534 30.3771 102.865 30.2996 103.201C30.2198 103.036 30.1382 102.87 30.0583 102.705C28.7595 100.041 27.4961 97.3617 26.2681 94.6663C24.153 90.0475 22.1106 85.3967 20.0647 80.7494C17.9105 75.8555 15.7569 70.9628 13.6039 66.0713C11.4516 61.1774 9.29858 56.2846 7.145 51.3931C7.13 51.358 7.11985 51.321 7.11484 51.2831C7.0775 50.9424 7.56019 50.6957 7.72169 51.0418C7.72384 51.0445 7.72562 51.0474 7.72697 51.0506C7.99669 51.6593 8.26522 52.2685 8.53257 52.8783C10.6849 57.7704 12.8379 62.6631 14.9915 67.5565C17.1369 72.4308 19.2828 77.3058 21.4292 82.1814C23.468 86.8127 25.5122 91.4422 27.6379 96.0327C28.5234 97.9455 29.4249 99.8501 30.3422 101.746Z" fill="white"/>
<path d="M41.2781 122.972C41.1592 122.786 41.0403 122.601 40.9232 122.415C40.8221 122.257 40.7227 122.099 40.6233 121.941C40.5985 121.902 40.5737 121.865 40.5524 121.826C40.8788 121.927 41.2065 122.024 41.5354 122.117C41.562 122.161 41.5903 122.207 41.6206 122.252C41.7004 122.378 41.7803 122.506 41.8619 122.632C41.8743 122.653 41.8849 122.672 41.8938 122.692C42.034 123.034 41.4999 123.316 41.2781 122.972Z" fill="white"/>
<path d="M39.6704 121.959C39.8158 122.163 39.9596 122.367 40.1016 122.573C39.8549 122.628 39.6101 122.681 39.3617 122.733C39.1646 122.772 38.9677 122.811 38.7707 122.846C31.6275 124.175 24.2458 123.145 17.7397 119.91C11.2336 116.676 5.956 111.413 2.70346 104.915C1.8677 103.244 1.16148 101.461 1.07631 99.594C1.00535 98.052 1.41526 96.4372 2.36633 95.2466C2.44439 95.1472 2.52783 95.0514 2.61473 94.9573C2.74898 94.814 2.8918 94.6789 3.0424 94.5528C3.99661 93.7917 5.17412 93.3647 6.39434 93.3373C7.22258 93.3015 8.05118 93.3992 8.8484 93.6265C10.8109 94.1837 12.525 95.3708 14.1663 96.5845C19.7632 100.689 25.0159 105.243 29.872 110.202C30.0316 110.367 30.1931 110.535 30.351 110.702C30.9403 113.041 32.0484 115.217 33.5932 117.069C35.138 118.921 37.0797 120.402 39.2747 121.402C39.2812 121.409 39.2865 121.416 39.2906 121.425C39.4202 121.602 39.5462 121.78 39.6704 121.959Z" fill="#F2F2F2"/>
<path d="M40.1287 122.613C40.1197 122.6 40.1106 122.586 40.1017 122.573C40.107 122.571 40.1106 122.571 40.1161 122.569L40.1287 122.613Z" fill="#F2F2F2"/>
<path d="M2.4108 95.2968L9.72742 101.173L17.044 107.05C19.3612 108.911 21.6769 110.775 24.0215 112.601C26.3455 114.412 28.6983 116.186 31.1064 117.884C33.5111 119.579 35.9715 121.197 38.506 122.692C38.8217 122.878 39.1384 123.063 39.4563 123.245C39.6764 123.371 39.8889 123.037 39.6672 122.91C37.1147 121.445 34.6369 119.854 32.2179 118.179C29.7964 116.502 27.433 114.742 25.1021 112.941C22.7587 111.131 20.4476 109.279 18.1389 107.425C15.7087 105.474 13.2787 103.522 10.8488 101.57L3.53221 95.6935L2.6217 94.9621C2.4237 94.8031 2.21401 95.1387 2.4108 95.2968Z" fill="white"/>
<path d="M102.725 121.402C102.672 121.427 102.617 121.451 102.562 121.473C102.612 121.457 102.661 121.441 102.709 121.425C103.412 121.192 104.109 120.946 104.801 120.685C105.914 120.268 107.012 119.815 108.095 119.327C108.868 118.98 109.635 118.615 110.394 118.233C117.059 114.881 123.013 110.273 127.929 104.662C128.376 104.151 128.815 103.631 129.244 103.102C129.61 102.653 129.967 102.198 130.318 101.736C132.323 99.0966 134.093 96.2863 135.605 93.3372C139.917 84.9502 142.11 75.6355 141.993 66.206C141.944 63.012 141.608 59.7524 140.267 56.8547C139.158 54.461 137.266 52.337 134.885 51.283C134.686 51.1942 134.484 51.1126 134.278 51.0416C133.962 50.9279 133.639 50.8348 133.311 50.763C129.908 50.0142 126.315 51.5456 123.779 53.9357C121.241 56.3259 119.579 59.4791 118.047 62.611C113.177 72.5798 108.923 82.9336 105.609 93.5572C105.571 93.6778 105.534 93.7967 105.497 93.9156C106.749 94.8218 107.864 95.9038 108.807 97.1282L110.543 99.9405C110.897 100.672 111.194 101.43 111.432 102.208C111.533 102.534 111.623 102.865 111.7 103.201C112.545 106.805 112.111 110.59 110.474 113.91C108.837 117.229 106.098 119.878 102.725 121.402Z" fill="#F2F2F2"/>
<path d="M99.1887 122.467L99.2012 122.529L99.2047 122.543C99.2047 122.538 99.2065 122.534 99.2065 122.529C99.21 122.506 99.2119 122.483 99.2153 122.459C99.2065 122.461 99.1976 122.465 99.1887 122.467Z" fill="#F2F2F2"/>
<path d="M111.658 101.746C111.583 101.901 111.509 102.055 111.432 102.208C111.533 102.534 111.623 102.865 111.7 103.201C111.78 103.036 111.862 102.87 111.942 102.705C113.24 100.041 114.504 97.3617 115.732 94.6663C117.847 90.0475 119.889 85.3967 121.935 80.7494C124.089 75.8555 126.243 70.9628 128.396 66.0713C130.548 61.1774 132.701 56.2846 134.855 51.3931C134.87 51.358 134.88 51.321 134.885 51.2831C134.922 50.9424 134.44 50.6957 134.278 51.0418C134.276 51.0445 134.274 51.0474 134.273 51.0506C134.003 51.6593 133.735 52.2685 133.467 52.8783C131.315 57.7704 129.162 62.6631 127.008 67.5565C124.863 72.4308 122.717 77.3058 120.571 82.1814C118.532 86.8127 116.488 91.4422 114.362 96.0327C113.476 97.9455 112.575 99.8501 111.658 101.746Z" fill="white"/>
<path d="M100.722 122.972C100.841 122.786 100.959 122.601 101.077 122.415C101.178 122.257 101.277 122.099 101.377 121.941C101.401 121.902 101.426 121.865 101.447 121.826C101.121 121.927 100.793 122.024 100.464 122.117C100.438 122.161 100.409 122.207 100.379 122.252C100.299 122.378 100.22 122.506 100.138 122.632C100.126 122.653 100.115 122.672 100.106 122.692C99.9659 123.034 100.5 123.316 100.722 122.972Z" fill="white"/>
<path d="M102.329 121.959C102.184 122.163 102.04 122.367 101.898 122.573C102.145 122.628 102.39 122.681 102.638 122.733C102.835 122.772 103.032 122.811 103.229 122.846C110.372 124.175 117.754 123.145 124.26 119.91C130.766 116.676 136.044 111.413 139.296 104.915C140.132 103.244 140.838 101.461 140.923 99.594C140.994 98.052 140.585 96.4372 139.633 95.2466C139.555 95.1472 139.472 95.0514 139.385 94.9573C139.251 94.814 139.108 94.6789 138.957 94.5528C138.003 93.7917 136.826 93.3647 135.605 93.3373C134.777 93.3015 133.949 93.3992 133.151 93.6265C131.189 94.1837 129.475 95.3708 127.833 96.5845C122.237 100.689 116.984 105.243 112.128 110.202C111.968 110.367 111.807 110.535 111.649 110.702C111.059 113.041 109.951 115.217 108.407 117.069C106.862 118.921 104.92 120.402 102.725 121.402C102.719 121.409 102.713 121.416 102.709 121.425C102.58 121.602 102.454 121.78 102.329 121.959Z" fill="#F2F2F2"/>
<path d="M101.872 122.613C101.881 122.6 101.89 122.586 101.899 122.573C101.893 122.571 101.89 122.571 101.884 122.569L101.872 122.613Z" fill="#F2F2F2"/>
<path d="M139.589 95.2968L132.273 101.173L124.956 107.05C122.639 108.911 120.323 110.775 117.979 112.601C115.655 114.412 113.302 116.186 110.894 117.884C108.489 119.579 106.029 121.197 103.494 122.692C103.178 122.878 102.862 123.063 102.544 123.245C102.324 123.371 102.111 123.037 102.333 122.91C104.885 121.445 107.363 119.854 109.782 118.179C112.204 116.502 114.567 114.742 116.898 112.941C119.241 111.131 121.552 109.279 123.861 107.425C126.291 105.474 128.721 103.522 131.151 101.57L138.468 95.6935L139.378 94.9621C139.576 94.8031 139.786 95.1387 139.589 95.2968Z" fill="white"/>
<path d="M65.4759 63.4338C65.3321 63.4823 65.1995 63.5589 65.0856 63.6592C64.9718 63.7594 64.879 63.8813 64.8127 64.0177L63.9014 65.8712L63.6574 66.3668C63.5226 66.6413 63.5021 66.958 63.6004 67.2476C63.6987 67.5371 63.9079 67.7759 64.1819 67.9115L71.2446 71.3862L83.7692 77.5455C84.0307 77.6738 84.331 77.6986 84.61 77.6149C84.8889 77.5313 85.126 77.3454 85.2738 77.0944C85.2885 77.0698 85.3009 77.0462 85.314 77.0209L86.0118 75.6027L86.47 74.6702C86.5069 74.5957 86.5357 74.5173 86.5557 74.4366C86.6078 74.2226 86.5978 73.9982 86.527 73.7896C86.4785 73.6459 86.4019 73.5133 86.3016 73.3994C86.2014 73.2856 86.0795 73.1928 85.9431 73.1265L84.45 72.3917L73.4045 66.959L66.3565 63.4908C66.0821 63.3558 65.7654 63.3353 65.4759 63.4338Z" fill="#1F2B6C"/>
<path d="M63.2908 64.1215C63.1591 64.3045 63.0471 64.5008 62.9566 64.7072C62.606 65.5038 62.5858 66.4069 62.9003 67.2185C63.2147 68.03 63.8382 68.6836 64.634 69.0361L70.1532 71.4725C70.3282 71.5492 70.5194 71.5814 70.7098 71.5663C70.9002 71.5512 71.084 71.4893 71.2446 71.386C71.3754 71.3016 71.4875 71.1913 71.5739 71.0619C71.6128 71.0056 71.6463 70.9457 71.6741 70.8831L73.394 66.9872C73.3984 66.9781 73.4019 66.9686 73.4046 66.9588C73.5188 66.6809 73.5201 66.3694 73.408 66.0906C73.296 65.8118 73.0794 65.5878 72.8046 65.4663L67.2854 63.0298C66.5953 62.7262 65.8219 62.669 65.0946 62.8678C64.3674 63.0665 63.7305 63.5092 63.2908 64.1215Z" fill="#2F2E41"/>
<path d="M78.4207 81.8442H75.8017C75.4959 81.8445 75.2027 81.9661 74.9865 82.1824C74.7702 82.3986 74.6486 82.6918 74.6483 82.9976V99.3242C74.6486 99.63 74.7702 99.9232 74.9864 100.139C75.2027 100.356 75.4959 100.477 75.8017 100.478H78.4207C78.5722 100.478 78.7222 100.448 78.8621 100.39C79.0021 100.332 79.1292 100.247 79.2363 100.14C79.3434 100.033 79.4284 99.9056 79.4863 99.7656C79.5443 99.6257 79.5741 99.4757 79.5741 99.3242V82.9976C79.5741 82.8462 79.5443 82.6962 79.4863 82.5562C79.4284 82.4163 79.3434 82.2891 79.2363 82.182C79.1292 82.0749 79.0021 81.99 78.8621 81.932C78.7222 81.8741 78.5722 81.8442 78.4207 81.8442Z" fill="#1F2B6C"/>
<path d="M76.8049 87.7659C76.614 87.7659 76.4248 87.7302 76.247 87.6605L61.6576 81.9527C61.2691 81.7954 60.9588 81.4904 60.7949 81.1046C60.6309 80.7189 60.6266 80.2838 60.7829 79.8949L62.0313 76.704C62.1833 76.3104 62.4841 75.9926 62.8687 75.8192C63.0564 75.7332 63.2596 75.686 63.466 75.6803C63.6725 75.6746 63.8779 75.7105 64.0702 75.786L78.6595 81.4939C78.8519 81.5689 79.0272 81.6819 79.175 81.8262C79.3228 81.9705 79.44 82.143 79.5196 82.3335C79.6844 82.7218 79.6897 83.1594 79.5342 83.5516L78.2859 86.7425C78.1703 87.042 77.9672 87.2998 77.703 87.4823C77.4389 87.6648 77.1259 87.7637 76.8049 87.7659Z" fill="#CCCCCC"/>
<path d="M78.4974 101.498H75.6583C75.3995 101.498 75.1512 101.395 74.9682 101.212C74.7852 101.029 74.6824 100.781 74.6824 100.522C74.6824 100.263 74.7852 100.015 74.9682 99.832C75.1512 99.649 75.3995 99.5461 75.6583 99.5461H78.4974C78.7563 99.5461 79.0045 99.649 79.1875 99.832C79.3705 100.015 79.4734 100.263 79.4734 100.522C79.4734 100.781 79.3705 101.029 79.1875 101.212C79.0045 101.395 78.7563 101.498 78.4974 101.498Z" fill="#2F2E41"/>
<path d="M56.1597 83.8092C55.803 83.812 55.447 83.7744 55.0987 83.6971C53.5236 83.3335 52.9419 82.6422 52.8466 82.2911C52.8256 82.2374 52.8199 82.179 52.8301 82.1223C52.8403 82.0656 52.866 82.0129 52.9043 81.9699C52.9438 81.9361 52.9922 81.9143 53.0437 81.9071C53.0952 81.9 53.1477 81.9077 53.1949 81.9295C53.6842 82.0928 60.6204 80.7212 63.0837 80.1527C64.1081 79.9164 64.8271 79.9553 65.2207 80.2685C65.3006 80.3273 65.3669 80.4028 65.4149 80.4896C65.463 80.5764 65.4917 80.6726 65.4992 80.7715V80.8333L60.6548 82.6275C60.4979 82.7055 58.2405 83.8092 56.1597 83.8092Z" fill="#2F2E41"/>
<path d="M94.0994 105.191C94.065 105.191 94.0312 105.181 94.0024 105.162C93.9735 105.143 93.9508 105.116 93.9369 105.084L84.7973 84.2958C84.7553 84.1993 84.6854 84.1175 84.5967 84.0609C84.508 84.0043 84.4044 83.9754 84.2992 83.9779L59.2916 84.4883C59.2022 84.4899 59.1147 84.5141 59.0372 84.5586C58.9597 84.6031 58.8947 84.6665 58.8483 84.7428L46.8465 104.369C46.8219 104.409 46.7824 104.438 46.7367 104.449C46.691 104.46 46.6427 104.452 46.6026 104.427C46.5624 104.403 46.5337 104.363 46.5226 104.318C46.5116 104.272 46.5192 104.224 46.5437 104.184L58.5456 84.5577C58.6229 84.4304 58.7312 84.3248 58.8604 84.2506C58.9896 84.1764 59.1354 84.1361 59.2843 84.1334L84.2919 83.623C84.4672 83.6195 84.6396 83.6679 84.7873 83.7622C84.9351 83.8566 85.0516 83.9925 85.1222 84.153L94.2618 104.942C94.2737 104.969 94.2786 104.998 94.2762 105.028C94.2737 105.057 94.264 105.085 94.2479 105.11C94.2318 105.135 94.2098 105.155 94.1839 105.169C94.158 105.183 94.1289 105.191 94.0994 105.191Z" fill="#2F2E41"/>
<path d="M65.1442 105.934C65.1057 105.934 65.0682 105.922 65.0375 105.898C65.0067 105.875 64.9844 105.843 64.9737 105.806L59.1892 85.6797C59.1763 85.6345 59.1819 85.5861 59.2047 85.545C59.2275 85.5039 59.2656 85.4735 59.3108 85.4605C59.356 85.4475 59.4044 85.453 59.4456 85.4757C59.4867 85.4984 59.5172 85.5365 59.5303 85.5816L65.3148 105.708C65.3213 105.73 65.3232 105.753 65.3206 105.777C65.318 105.8 65.3108 105.822 65.2995 105.843C65.2882 105.863 65.273 105.881 65.2548 105.895C65.2366 105.91 65.2157 105.921 65.1933 105.927C65.1773 105.932 65.1608 105.934 65.1442 105.934Z" fill="#2F2E41"/>
<path d="M66.3864 82.6002H60.7082C59.6497 82.599 58.6349 82.178 57.8864 81.4295C57.1379 80.6811 56.7169 79.6662 56.7157 78.6077V77.7205C56.7169 76.662 57.1379 75.6472 57.8864 74.8987C58.6349 74.1502 59.6497 73.7292 60.7082 73.728H66.3864C67.4449 73.7292 68.4597 74.1502 69.2082 74.8987C69.9567 75.6472 70.3777 76.662 70.3789 77.7205V78.6077C70.3777 79.6662 69.9567 80.6811 69.2082 81.4295C68.4597 82.178 67.4449 82.599 66.3864 82.6002Z" fill="#CCCCCC"/>
<path d="M95.5319 107.921C96.1199 107.921 96.5966 107.444 96.5966 106.856C96.5966 106.268 96.1199 105.791 95.5319 105.791C94.944 105.791 94.4673 106.268 94.4673 106.856C94.4673 107.444 94.944 107.921 95.5319 107.921Z" fill="#2F2E41"/>
<path d="M45.4928 107.921C46.0808 107.921 46.5574 107.444 46.5574 106.856C46.5574 106.268 46.0808 105.791 45.4928 105.791C44.9048 105.791 44.4281 106.268 44.4281 106.856C44.4281 107.444 44.9048 107.921 45.4928 107.921Z" fill="#2F2E41"/>
<path d="M83.4512 76.1287C83.3047 76.1288 83.1628 76.0771 83.0507 75.9828C82.9386 75.8884 82.8634 75.7574 82.8386 75.6129C82.8137 75.4685 82.8407 75.3199 82.9149 75.1935C82.989 75.0671 83.1054 74.9709 83.2436 74.922L88.5971 73.0294C88.7523 72.9745 88.9231 72.9835 89.0717 73.0545C89.2203 73.1255 89.3347 73.2526 89.3896 73.4079C89.4445 73.5632 89.4355 73.7339 89.3645 73.8825C89.2935 74.0311 89.1664 74.1455 89.0111 74.2004L83.6577 76.0931C83.5914 76.1166 83.5216 76.1287 83.4512 76.1287Z" fill="#2F2E41"/>
<path d="M69.4303 105.791C69.3954 105.791 69.3614 105.781 69.3323 105.762C69.3033 105.742 69.2805 105.715 69.2669 105.683C69.2533 105.651 69.2494 105.616 69.2558 105.581C69.2621 105.547 69.2784 105.516 69.3026 105.49L85.3442 88.8639C85.3603 88.8471 85.3796 88.8336 85.401 88.8242C85.4224 88.8149 85.4454 88.8098 85.4688 88.8094C85.4921 88.8089 85.5153 88.8131 85.5371 88.8216C85.5588 88.8301 85.5786 88.8429 85.5954 88.8591C85.6122 88.8753 85.6257 88.8946 85.635 88.916C85.6443 88.9375 85.6493 88.9605 85.6497 88.9838C85.65 89.0072 85.6458 89.0304 85.6372 89.0521C85.6286 89.0738 85.6158 89.0936 85.5996 89.1103L69.558 105.737C69.5414 105.754 69.5216 105.768 69.4997 105.777C69.4777 105.786 69.4541 105.791 69.4303 105.791Z" fill="#2F2E41"/>
<path d="M48.3717 107.929C48.3246 107.929 48.2795 107.91 48.2461 107.877C48.2128 107.844 48.194 107.799 48.194 107.752C48.1939 107.705 48.2125 107.66 48.2458 107.626C48.279 107.593 48.3241 107.574 48.3712 107.574L63.1919 107.531H63.1924C63.2395 107.531 63.2847 107.55 63.318 107.583C63.3513 107.616 63.3701 107.661 63.3701 107.708C63.3702 107.755 63.3516 107.8 63.3184 107.834C63.2851 107.867 63.24 107.886 63.193 107.886L48.3722 107.929H48.3717Z" fill="#2F2E41"/>
<path d="M84.5198 82.4693C84.4792 82.4693 84.4398 82.4553 84.4083 82.4298C84.3768 82.4043 84.3549 82.3687 84.3464 82.3291L83.5165 78.4529C83.511 78.4271 83.5113 78.4003 83.5174 78.3745C83.5236 78.3488 83.5354 78.3248 83.552 78.3042C83.5687 78.2836 83.5897 78.267 83.6136 78.2556C83.6374 78.2442 83.6636 78.2383 83.69 78.2383H86.5054V76.3356C86.5054 76.2886 86.524 76.2435 86.5573 76.2102C86.5906 76.1769 86.6357 76.1582 86.6828 76.1582C86.7299 76.1582 86.775 76.1769 86.8083 76.2102C86.8415 76.2435 86.8602 76.2886 86.8602 76.3356V78.4158C86.8602 78.4628 86.8415 78.508 86.8083 78.5412C86.775 78.5745 86.7299 78.5932 86.6828 78.5932H83.9095L84.6934 82.2547C84.699 82.2806 84.6987 82.3074 84.6926 82.3332C84.6864 82.3589 84.6746 82.383 84.6579 82.4036C84.6413 82.4242 84.6202 82.4408 84.5963 82.4521C84.5724 82.4635 84.5462 82.4694 84.5198 82.4693Z" fill="#2F2E41"/>
<path d="M66.3864 112.499C65.6845 112.499 64.9984 112.291 64.4148 111.901C63.8311 111.511 63.3763 110.957 63.1077 110.309C62.8391 109.66 62.7688 108.947 62.9057 108.258C63.0427 107.57 63.3806 106.937 63.877 106.441C64.3733 105.945 65.0056 105.607 65.6941 105.47C66.3825 105.333 67.096 105.403 67.7445 105.672C68.393 105.94 68.9472 106.395 69.3372 106.979C69.7271 107.562 69.9353 108.249 69.9353 108.95C69.9342 109.891 69.56 110.793 68.8947 111.459C68.2294 112.124 67.3273 112.498 66.3864 112.499ZM66.3864 105.757C65.7547 105.757 65.1372 105.944 64.6119 106.295C64.0867 106.646 63.6773 107.145 63.4355 107.728C63.1938 108.312 63.1306 108.954 63.2538 109.574C63.377 110.193 63.6812 110.762 64.1279 111.209C64.5746 111.656 65.1437 111.96 65.7633 112.083C66.3829 112.206 67.0251 112.143 67.6087 111.901C68.1923 111.66 68.6911 111.25 69.0421 110.725C69.3931 110.2 69.5804 109.582 69.5804 108.95C69.5794 108.104 69.2426 107.292 68.6438 106.693C68.0451 106.094 67.2332 105.757 66.3864 105.757Z" fill="#2F2E41"/>
<path d="M69.8026 109.838H66.9635C66.7047 109.838 66.4564 109.735 66.2734 109.552C66.0904 109.369 65.9875 109.121 65.9875 108.862C65.9875 108.603 66.0904 108.355 66.2734 108.172C66.4564 107.989 66.7047 107.886 66.9635 107.886H69.8026C70.0614 107.886 70.3097 107.989 70.4927 108.172C70.6757 108.355 70.7785 108.603 70.7785 108.862C70.7785 109.121 70.6757 109.369 70.4927 109.552C70.3097 109.735 70.0614 109.838 69.8026 109.838Z" fill="#2F2E41"/>
<path d="M137.59 123.322H6.58408C6.52805 123.322 6.47431 123.3 6.43468 123.261C6.39506 123.221 6.3728 123.167 6.3728 123.111C6.3728 123.055 6.39506 123.001 6.43468 122.962C6.47431 122.922 6.52805 122.9 6.58408 122.9H137.59C137.646 122.9 137.7 122.922 137.739 122.962C137.779 123.001 137.801 123.055 137.801 123.111C137.801 123.167 137.779 123.221 137.739 123.261C137.7 123.3 137.646 123.322 137.59 123.322Z" fill="#3F3D56"/>
<path d="M67.9741 58.6154C67.8231 58.63 67.6765 58.6744 67.5429 58.7462C67.4092 58.8179 67.2911 58.9154 67.1955 59.0332L65.8863 60.6307L65.5359 61.0578C65.3422 61.2944 65.2502 61.5981 65.2801 61.9025C65.3099 62.2068 65.4592 62.4869 65.6953 62.6813L71.782 67.6718L82.5766 76.5195C82.8021 76.7039 83.0888 76.7964 83.3795 76.7784C83.6702 76.7604 83.9434 76.6333 84.1444 76.4225C84.1643 76.402 84.1817 76.3818 84.2002 76.3601L85.2024 75.1379L85.8608 74.3342C85.9137 74.27 85.9595 74.2002 85.9974 74.1261C86.0968 73.9296 86.1382 73.7088 86.1167 73.4896C86.1021 73.3386 86.0577 73.192 85.986 73.0584C85.9143 72.9247 85.8167 72.8066 85.6989 72.711L84.4122 71.6558L74.8927 63.8523L68.8187 58.8714C68.5822 58.6775 68.2784 58.5854 67.9741 58.6154Z" fill="#1F2B6C"/>
<path d="M64.0908 52.0668C69.3356 52.0668 73.5874 47.815 73.5874 42.5701C73.5874 37.3253 69.3356 33.0735 64.0908 33.0735C58.8459 33.0735 54.5941 37.3253 54.5941 42.5701C54.5941 47.815 58.8459 52.0668 64.0908 52.0668Z" fill="#1F2B6C"/>
<path d="M72.1105 46.7682L72.1006 46.4133C72.7608 46.395 73.3429 46.3535 73.7802 46.034C73.9042 45.9383 74.0062 45.8169 74.0791 45.6783C74.152 45.5396 74.1942 45.3869 74.2028 45.2305C74.2105 45.1349 74.196 45.0389 74.1605 44.9498C74.1251 44.8607 74.0695 44.781 73.9982 44.7169C73.7079 44.4717 73.2407 44.551 72.9002 44.7072L72.6066 44.8418L73.1697 40.7268L73.5213 40.775L73.0423 44.2753C73.505 44.1393 73.9337 44.1979 74.2273 44.4459C74.3401 44.5443 74.4285 44.6674 74.4858 44.8057C74.543 44.944 74.5676 45.0936 74.5574 45.243C74.5471 45.4531 74.4909 45.6585 74.3928 45.8446C74.2947 46.0308 74.1571 46.1933 73.9896 46.3206C73.4276 46.7313 72.6973 46.7518 72.1105 46.7682Z" fill="#2F2E41"/>
<path d="M71.1384 41.0767H69.2271V41.4315H71.1384V41.0767Z" fill="#2F2E41"/>
<path d="M74.5498 63.1777L70.3158 58.8809C69.7048 58.2605 68.8725 57.9083 68.0018 57.9017C67.1312 57.8951 66.2935 58.2346 65.6732 58.8456C65.0529 59.4565 64.7007 60.2889 64.6941 61.1595C64.6874 62.0302 65.0269 62.8678 65.6379 63.4881L69.872 67.785C70.0585 67.9744 70.3047 68.0935 70.569 68.1222C70.8333 68.1509 71.0993 68.0874 71.3221 67.9424C71.3882 67.9017 71.4492 67.8531 71.5036 67.7977L74.5371 64.8093C74.6443 64.7046 74.7299 64.5797 74.7889 64.4419C74.8783 64.2311 74.9033 63.9986 74.8607 63.7736C74.8182 63.5487 74.71 63.3413 74.5498 63.1777Z" fill="#2F2E41"/>
<path d="M69.7259 89.6519H67.1069C66.8011 89.6521 66.5079 89.7738 66.2916 89.99C66.0754 90.2062 65.9538 90.4994 65.9535 90.8052V107.132C65.9538 107.438 66.0754 107.731 66.2916 107.947C66.5079 108.163 66.8011 108.285 67.1069 108.285H69.7259C69.8774 108.285 70.0274 108.255 70.1673 108.197C70.3072 108.14 70.4344 108.055 70.5415 107.947C70.6486 107.84 70.7336 107.713 70.7915 107.573C70.8495 107.433 70.8793 107.283 70.8793 107.132V90.8052C70.8793 90.6538 70.8495 90.5038 70.7915 90.3639C70.7336 90.2239 70.6486 90.0968 70.5415 89.9897C70.4344 89.8825 70.3072 89.7976 70.1673 89.7396C70.0274 89.6817 69.8774 89.6518 69.7259 89.6519Z" fill="#1F2B6C"/>
<path d="M65.7783 95.2684C64.9399 95.2685 64.2166 94.7495 64.0881 94.002L61.4327 78.5626C61.3991 78.3524 61.4119 78.1373 61.4702 77.9326C61.5286 77.7279 61.631 77.5384 61.7703 77.3775C62.0697 77.0237 62.4859 76.7888 62.9434 76.7154L66.7774 76.056C67.7568 75.8876 68.6722 76.4422 68.8184 77.2922L71.4737 92.7317C71.5075 92.9418 71.4948 93.1568 71.4367 93.3614C71.3785 93.5661 71.2763 93.7556 71.1372 93.9166C70.8376 94.2706 70.421 94.5056 69.963 94.5788L66.1291 95.2382C66.0132 95.2582 65.8959 95.2683 65.7783 95.2684Z" fill="#CCCCCC"/>
<path d="M69.6709 56.7212C69.2199 56.2077 68.6948 55.7643 68.1129 55.4057C66.858 54.6437 65.4167 54.2437 63.9486 54.2501C62.4804 54.2564 61.0427 54.6689 59.7944 55.4417C59.2976 55.7556 58.8426 56.1312 58.4405 56.5597C57.3928 57.6473 56.8021 59.0952 56.7902 60.6053V77.6875C56.7895 77.7396 56.7943 77.7917 56.8044 77.8428C56.8879 78.3743 57.4077 78.7852 58.0323 78.7852H69.9336C70.6166 78.7852 71.1757 78.2928 71.1757 77.6875V60.6053C71.1666 59.17 70.6312 57.7879 69.6709 56.7212Z" fill="#2F2E41"/>
<path d="M66.2253 43.327C64.9661 43.7453 63.5527 42.8855 63.4725 41.5314C63.4498 41.2171 63.4973 40.9017 63.6116 40.608C63.7259 40.3143 63.9042 40.0498 64.1334 39.8335C64.5558 39.4731 65.0741 39.2436 65.6248 39.1729C66.8203 38.9655 68.0493 39.1338 69.25 38.955C70.4612 38.7747 71.5288 38.1491 72.0597 37.0112C72.3141 36.4529 72.4483 35.8474 72.4536 35.2339C72.4589 34.6203 72.3351 34.0126 72.0903 33.45C71.5394 32.1899 70.4585 31.2304 69.2676 30.5844C66.9758 29.3413 64.225 29.0965 61.6997 29.6479C59.1634 30.1865 56.8762 31.5486 55.1943 33.522C54.993 33.7644 54.8022 34.0152 54.622 34.2741C54.5988 34.3147 54.5866 34.3605 54.5866 34.4072C54.5866 34.4539 54.5988 34.4998 54.6221 34.5403C54.6453 34.5808 54.6787 34.6145 54.719 34.6381C54.7593 34.6617 54.8051 34.6743 54.8518 34.6747L56.4087 34.4873L56.1788 34.0868L54.4868 37.1289C54.3827 37.316 54.5592 37.6059 54.7874 37.5199L57.2688 36.5847L57.0098 36.1398L54.547 39.1384C54.3312 39.4011 54.7057 39.7798 54.9234 39.5148L57.3862 36.5163C57.5359 36.3341 57.4024 35.9677 57.1273 36.0714L54.6459 37.0066L54.9464 37.3976L56.6385 34.3555C56.7268 34.1966 56.6192 33.9296 56.4087 33.955L54.8518 34.1423L55.0816 34.5428C56.5359 32.4601 58.7667 30.9932 61.2023 30.3193C63.6468 29.643 66.3683 29.7514 68.6682 30.8738C69.8835 31.4669 70.9952 32.3579 71.5789 33.6042C71.8283 34.1437 71.9469 34.7344 71.9251 35.3283C71.9033 35.9222 71.7417 36.5026 71.4535 37.0224C70.118 39.3025 67.0044 38.1307 64.9209 38.7947C63.7322 39.1735 62.8789 40.2191 62.9383 41.4996C62.9724 42.1487 63.2478 42.7617 63.7104 43.2183C64.1731 43.6748 64.7896 43.9421 65.4391 43.9676C65.7536 43.9832 66.0682 43.9401 66.3668 43.8403C66.6903 43.7328 66.5517 43.2185 66.2253 43.327Z" fill="#2F2E41"/>
<path d="M135.733 33.2512H135.774V33.1927C135.762 33.213 135.748 33.2326 135.733 33.2512ZM135.46 8.36294C135.37 8.24405 135.277 8.12516 135.182 8.00805C133.297 5.64326 130.929 3.70789 128.237 2.33121C125.544 0.954531 122.589 0.168235 119.568 0.0248451C119.433 0.0177402 119.299 0.0124175 119.164 0.00887576C118.961 0.00355244 118.759 3.02002e-06 118.555 3.02002e-06C115.62 -0.00156226 112.717 0.60535 110.029 1.78242C107.341 2.95949 104.926 4.68115 102.936 6.83869C102.814 6.96823 102.697 7.09953 102.581 7.23084C102.356 7.48459 102.138 7.74366 101.928 8.00805C101.833 8.12516 101.74 8.24405 101.65 8.36294C98.6512 12.2723 97.1044 17.1023 97.2744 22.0264C97.4443 26.9505 99.3204 31.6624 102.581 35.3557C102.697 35.487 102.814 35.6183 102.936 35.7479C105.081 38.0702 107.716 39.8852 110.65 41.0609C113.584 42.2366 116.744 42.7434 119.898 42.5443C123.053 42.3453 126.124 41.4455 128.887 39.9104C131.65 38.3752 134.036 36.2434 135.872 33.67C135.95 33.56 136.028 33.45 136.104 33.3382C138.072 30.4872 139.308 27.1959 139.705 23.7544C139.721 23.6373 139.733 23.5184 139.744 23.3995C139.813 22.7075 139.848 22.0054 139.848 21.2933C139.854 16.6168 138.311 12.0701 135.46 8.36294ZM139.348 23.7544C138.962 27.0578 137.787 30.2199 135.923 32.9744C135.875 33.0472 135.826 33.1199 135.774 33.1927C135.762 33.213 135.748 33.2326 135.733 33.2512C135.721 33.2707 135.707 33.2903 135.693 33.3098C133.882 35.8961 131.51 38.039 128.754 39.578C125.998 41.117 122.929 42.0121 119.778 42.1961C116.626 42.3801 113.474 41.8483 110.557 40.6406C107.641 39.4329 105.035 37.5806 102.936 35.2226C102.814 35.0878 102.695 34.9529 102.581 34.8145C99.4613 31.1383 97.7084 26.4962 97.6201 21.6751C97.5318 16.8541 99.1135 12.1509 102.097 8.36293C102.191 8.24404 102.285 8.12515 102.383 8.00804C102.447 7.92819 102.512 7.85011 102.581 7.77204C102.695 7.63363 102.814 7.49877 102.936 7.36392C104.897 5.15828 107.302 3.39319 109.994 2.18505C112.686 0.976907 115.604 0.353142 118.555 0.354883C118.819 0.354883 119.082 0.360205 119.343 0.370852C119.479 0.374401 119.614 0.381498 119.749 0.388596C122.637 0.553677 125.459 1.31607 128.037 2.62757C130.615 3.93907 132.893 5.77117 134.727 8.00804C134.825 8.12515 134.919 8.24404 135.013 8.36293C137.92 12.0455 139.499 16.6016 139.493 21.2933C139.493 22.0048 139.458 22.7069 139.389 23.3995C139.376 23.5184 139.364 23.6373 139.348 23.7544ZM135.733 33.2512H135.774V33.1927C135.762 33.213 135.748 33.2326 135.733 33.2512Z" fill="#CCCCCC"/>
<path d="M45.8029 122.917C42.6093 122.917 39.4873 121.97 36.8319 120.196C34.1765 118.422 32.1068 115.9 30.8847 112.949C29.6625 109.999 29.3427 106.752 29.9658 103.62C30.5888 100.487 32.1267 97.6103 34.385 95.352C36.6432 93.0938 39.5204 91.5559 42.6527 90.9328C45.785 90.3098 49.0317 90.6296 51.9823 91.8517C54.9328 93.0739 57.4547 95.1435 59.229 97.799C61.0033 100.454 61.9503 103.576 61.9503 106.77C61.9455 111.051 60.2427 115.155 57.2155 118.183C54.1883 121.21 50.084 122.913 45.8029 122.917ZM45.8029 90.9775C42.6795 90.9775 39.6261 91.9037 37.0291 93.639C34.432 95.3743 32.4078 97.8407 31.2125 100.726C30.0172 103.612 29.7045 106.787 30.3139 109.851C30.9232 112.914 32.4273 115.728 34.6359 117.937C36.8446 120.146 39.6585 121.65 42.722 122.259C45.7854 122.868 48.9607 122.556 51.8465 121.36C54.7322 120.165 57.1986 118.141 58.9339 115.544C60.6692 112.947 61.5954 109.893 61.5954 106.77C61.5907 102.583 59.9253 98.5688 56.9647 95.6082C54.0041 92.6475 49.9899 90.9822 45.8029 90.9775Z" fill="#2F2E41"/>
<path d="M95.8421 122.917C92.6485 122.917 89.5265 121.97 86.8711 120.196C84.2157 118.422 82.146 115.9 80.9239 112.949C79.7017 109.999 79.3819 106.752 80.005 103.62C80.628 100.487 82.1659 97.6103 84.4242 95.352C86.6824 93.0938 89.5596 91.5559 92.6919 90.9328C95.8242 90.3098 99.0709 90.6296 102.021 91.8517C104.972 93.0739 107.494 95.1435 109.268 97.799C111.042 100.454 111.99 103.576 111.99 106.77C111.985 111.051 110.282 115.155 107.255 118.183C104.228 121.21 100.123 122.913 95.8421 122.917ZM95.8421 90.9775C92.7186 90.9775 89.6653 91.9037 87.0683 93.639C84.4712 95.3743 82.447 97.8407 81.2517 100.726C80.0564 103.612 79.7437 106.787 80.353 109.851C80.9624 112.914 82.4665 115.728 84.6751 117.937C86.8837 120.146 89.6977 121.65 92.7611 122.259C95.8246 122.868 98.9999 122.556 101.886 121.36C104.771 120.165 107.238 118.141 108.973 115.544C110.708 112.947 111.635 109.893 111.635 106.77C111.63 102.583 109.965 98.5688 107.004 95.6082C104.043 92.6475 100.029 90.9822 95.8421 90.9775Z" fill="#2F2E41"/>
</g>
<defs>
<clipPath id="clip0_235_1073">
<rect width="142" height="123.399" fill="white"/>
</clipPath>
</defs>
</svg>
