<svg width="34" height="39" viewBox="0 0 34 39" fill="none" xmlns="http://www.w3.org/2000/svg">
<path d="M33.3425 7.52134C32.5162 4.12758 29.8069 1.36274 26.4371 0.487655C24.0213 -0.139763 21.709 0.870411 19.7472 2.31362C19.5032 2.49299 19.2248 2.59356 18.9591 2.7249L21.0845 4.09156C21.6414 4.44955 21.8035 5.19254 21.4448 5.75091C21.1101 6.27251 20.3738 6.49091 19.7854 6.11115L12.2422 1.26142C10.6886 0.447128 8.98648 0.0306008 7.22806 0.487655C3.85832 1.36349 1.14901 4.12758 0.322709 7.52134C-0.437547 10.6449 0.291188 13.5861 1.93628 15.8091C3.68945 18.1784 4.38892 20.962 4.65985 23.8657C4.99007 27.4051 5.43512 30.9324 6.2314 34.3968L6.81679 36.9447C7.0562 37.9856 7.97931 38.7234 9.04352 38.7234C10.092 38.7234 11.0061 38.0067 11.2605 36.9852L13.8475 26.5968C14.1897 25.2219 15.4205 24.2582 16.8315 24.2582C18.2424 24.2582 19.4732 25.2226 19.8154 26.5968L22.4024 36.9852C22.6568 38.0067 23.571 38.7234 24.6194 38.7234C25.6836 38.7234 26.6067 37.9856 26.8461 36.9447L27.4315 34.3968C28.2278 30.9332 28.6721 27.4051 29.0031 23.8657C29.274 20.9613 29.9735 18.1784 31.7266 15.8091C33.374 13.5869 34.1027 10.6457 33.3425 7.52134Z" fill="#BED1F7"/>
</svg>
