<svg width="228" height="151" viewBox="0 0 228 151" fill="none" xmlns="http://www.w3.org/2000/svg">
<g clip-path="url(#clip0_38_1116)">
<path d="M81.7838 87.2023C89.5974 73.4573 104.502 62.9034 120.28 63.9201C108.642 76.5761 101.855 92.9407 101.121 110.119C100.862 116.744 101.264 124.141 96.8645 129.102C94.1272 132.189 89.9431 133.685 85.8292 133.998C81.7152 134.312 77.6021 133.568 73.543 132.828L72.5584 133.131C72.1835 117.324 73.9702 100.947 81.7838 87.2023Z" fill="#F0F0F0"/>
<path d="M120.303 64.251C108.636 69.8677 98.687 79.2482 92.5798 90.6885C91.2594 93.1619 90.1353 95.7858 89.6449 98.5602C89.1543 101.336 89.497 103.978 90.445 106.614C91.3117 109.024 92.4773 111.389 92.7431 113.968C93.0232 116.686 92.0231 119.227 90.2228 121.244C88.0202 123.712 85.0621 125.242 82.1174 126.637C78.8478 128.186 75.4272 129.743 73.1115 132.633C72.8309 132.984 72.3038 132.528 72.584 132.178C76.613 127.149 83.5097 126.203 88.2922 122.152C90.5238 120.261 92.1992 117.687 92.0935 114.67C92.001 112.032 90.8011 109.593 89.9025 107.16C88.9589 104.606 88.4884 102.037 88.8267 99.3141C89.1729 96.5283 90.1968 93.8549 91.4481 91.3587C94.2702 85.729 98.1323 80.5605 102.556 76.0926C107.641 70.957 113.567 66.729 120.077 63.5916C120.48 63.3976 120.703 64.0582 120.303 64.251Z" fill="white"/>
<path d="M94.3688 86.8652C92.5802 85.5573 91.3146 83.6562 90.7983 81.5014C90.2819 79.3466 90.5483 77.0785 91.5499 75.1019C91.7539 74.7027 92.3839 75.001 92.1796 75.4008C91.2435 77.2396 90.9956 79.3524 91.4805 81.358C91.9654 83.3636 93.1513 85.1297 94.8241 86.3377C95.1873 86.6006 94.7299 87.1266 94.3688 86.8652Z" fill="white"/>
<path d="M89.8448 105.45C94.3268 104.795 98.3972 102.475 101.245 98.9522C101.526 98.603 102.054 99.0587 101.772 99.4075C98.8022 103.068 94.5614 105.474 89.8959 106.145C89.4511 106.209 89.4025 105.513 89.8448 105.45Z" fill="white"/>
<path d="M107.985 71.8144C108.572 72.4646 109.311 72.959 110.136 73.2531C110.961 73.5472 111.846 73.6318 112.712 73.4993C113.155 73.43 113.203 74.1255 112.763 74.1943C111.805 74.3362 110.828 74.2416 109.916 73.9187C109.004 73.5958 108.185 73.0544 107.53 72.3419C107.463 72.2799 107.422 72.1946 107.415 72.1033C107.408 72.012 107.436 71.9216 107.494 71.8505C107.555 71.7809 107.64 71.7381 107.732 71.7314C107.824 71.7246 107.915 71.7545 107.985 71.8144Z" fill="white"/>
<path d="M151.673 107.28C151.397 107.332 151.121 107.383 150.843 107.439C147.138 108.146 143.497 109.152 139.955 110.449C139.679 110.545 139.402 110.646 139.13 110.75C130.63 113.964 122.801 118.728 116.041 124.801C113.353 127.219 110.853 129.839 108.562 132.637C105.399 136.502 102.277 140.943 98.1442 143.463C97.716 143.731 97.2715 143.972 96.8135 144.184L73.0034 134.308C72.9605 134.259 72.9152 134.214 72.872 134.165L71.9034 133.814C72.0114 133.661 72.1267 133.505 72.2348 133.353C72.2971 133.264 72.3647 133.177 72.427 133.089C72.4702 133.03 72.5137 132.972 72.5494 132.917C72.5637 132.897 72.5783 132.878 72.5904 132.864C72.626 132.808 72.665 132.761 72.6984 132.711C73.3407 131.838 73.9903 130.968 74.6471 130.1C74.6494 130.095 74.6494 130.095 74.657 130.092C79.6786 123.496 85.2949 117.262 91.6789 112.079C91.871 111.923 92.0651 111.762 92.2681 111.61C95.1587 109.29 98.2341 107.209 101.464 105.39C103.235 104.399 105.056 103.499 106.918 102.693C111.735 100.618 116.848 99.314 122.07 98.8283C132.48 97.8616 143.083 100.235 151.068 106.775C151.272 106.942 151.471 107.108 151.673 107.28Z" fill="#F0F0F0"/>
<path d="M151.494 107.56C138.796 105.02 125.205 106.521 113.441 111.978C110.898 113.158 108.42 114.576 106.358 116.496C104.296 118.417 102.978 120.733 102.148 123.408C101.389 125.854 100.896 128.444 99.5557 130.663C98.1429 133.002 95.8142 134.429 93.1624 134.956C89.9178 135.6 86.6352 135.041 83.4441 134.381C79.901 133.65 76.2325 132.833 72.643 133.747C72.2081 133.858 72.0617 133.177 72.496 133.066C78.741 131.476 84.8169 134.874 91.0747 134.518C93.9947 134.352 96.8824 133.305 98.6142 130.833C100.129 128.671 100.639 126.001 101.386 123.518C102.171 120.91 103.341 118.576 105.251 116.605C107.205 114.59 109.632 113.072 112.134 111.832C117.777 109.036 123.972 107.234 130.195 106.331C137.346 105.292 144.623 105.483 151.711 106.898C152.149 106.986 151.929 107.648 151.494 107.56Z" fill="white"/>
<path d="M117.171 110.002C116.531 107.881 116.665 105.601 117.55 103.57C118.435 101.539 120.013 99.888 122.003 98.9129C122.406 98.717 122.729 99.3344 122.326 99.5306C120.471 100.435 119.001 101.973 118.181 103.866C117.361 105.76 117.244 107.884 117.852 109.855C117.984 110.284 117.302 110.429 117.171 110.002Z" fill="white"/>
<path d="M102.37 122.117C106.343 124.293 110.99 124.891 115.384 123.793C115.819 123.684 115.966 124.365 115.531 124.474C110.956 125.608 106.121 124.976 101.992 122.703C101.599 122.486 101.979 121.902 102.37 122.117Z" fill="white"/>
<path d="M137.105 106.183C137.182 107.056 137.474 107.895 137.956 108.627C138.437 109.358 139.093 109.959 139.864 110.374C140.26 110.586 139.88 111.17 139.486 110.96C138.637 110.497 137.913 109.833 137.38 109.026C136.846 108.219 136.518 107.293 136.424 106.33C136.407 106.24 136.426 106.147 136.476 106.071C136.525 105.994 136.602 105.938 136.691 105.916C136.781 105.897 136.875 105.915 136.953 105.965C137.03 106.015 137.085 106.093 137.105 106.183Z" fill="white"/>
<path d="M106.316 123.574C102.981 107.451 98.8132 102.076 98.8132 102.076L97.2208 100.841L95.3059 99.3532L95.3151 99.162L94.861 99.0076L94.7543 98.9247L94.5794 98.7905L94.5513 98.8207L94.492 98.8822L85.8267 95.9367L74.8333 92.2026L69.7426 85.5857C68.9136 84.5081 67.8462 83.6371 66.6241 83.041C65.4021 82.445 64.0586 82.14 62.699 82.1501L46.4411 82.2704C44.2429 82.2866 42.1302 83.1246 40.5185 84.6196L29.8325 94.5317L13.1816 102.484L13.1535 102.456L12.9786 102.581L10.4059 103.811L10.5121 104.364L8.9197 105.513C8.9197 105.513 4.75152 110.514 1.41696 125.517C0.568689 129.334 0.151137 137.523 0.000423537 147.613C-0.00714679 148.124 0.0868354 148.631 0.276903 149.104C0.466971 149.578 0.749333 150.009 1.10757 150.373C1.46581 150.737 1.89278 151.026 2.36365 151.223C2.83452 151.42 3.3399 151.522 3.8504 151.522H92.7861L103.886 151.522C104.397 151.522 104.902 151.42 105.372 151.223C105.843 151.026 106.27 150.738 106.628 150.374C106.986 150.011 107.268 149.58 107.459 149.107C107.649 148.634 107.743 148.127 107.737 147.617C107.589 136.637 107.172 127.714 106.316 123.574Z" fill="#3F3D56"/>
<path d="M117.727 14.0607C114.267 14.0607 110.948 15.4352 108.502 17.8819C106.055 20.3286 104.68 23.647 104.68 27.1071C104.68 30.5672 106.055 33.8856 108.502 36.3323C110.948 38.779 114.267 40.1535 117.727 40.1535H214.954C218.414 40.1535 221.732 38.779 224.179 36.3323C226.626 33.8856 228 30.5672 228 27.1071C228 23.647 226.626 20.3286 224.179 17.8819C221.732 15.4352 218.414 14.0607 214.954 14.0607H117.727Z" fill="#E5E5E5"/>
<path d="M117.727 16.7011C114.967 16.7011 112.32 17.7974 110.369 19.7489C108.417 21.7004 107.321 24.3473 107.321 27.1071C107.321 29.867 108.417 32.5138 110.369 34.4653C112.32 36.4168 114.967 37.5132 117.727 37.5132H214.954C217.714 37.5132 220.36 36.4168 222.312 34.4653C224.263 32.5138 225.36 29.867 225.36 27.1071C225.36 24.3473 224.263 21.7004 222.312 19.7489C220.36 17.7974 217.714 16.7011 214.954 16.7011H117.727Z" fill="white"/>
<path d="M57.1232 76.0423C68.8866 76.0423 78.4226 66.5063 78.4226 54.743C78.4226 42.9796 68.8866 33.4436 57.1232 33.4436C45.3599 33.4436 35.8239 42.9796 35.8239 54.743C35.8239 66.5063 45.3599 76.0423 57.1232 76.0423Z" fill="#9E616A"/>
<path d="M51.6744 74.9993C51.5834 74.799 51.4927 74.598 51.4022 74.3962C51.4371 74.3974 51.4716 74.4024 51.5065 74.4033L51.6744 74.9993Z" fill="#2F2E41"/>
<path d="M35.2314 34.4121C36.3087 33.5528 37.5677 32.7621 38.9451 32.8065C40.3223 32.8509 41.719 34.0949 41.4337 35.443C43.9635 30.9637 47.9903 27.5186 52.8071 25.7125C57.6239 23.9063 62.923 23.8544 67.7743 25.566C71.1975 26.7737 74.5544 29.1899 75.3408 32.7337C75.5427 33.6434 75.586 34.6408 76.154 35.3796C76.8701 36.3109 78.2404 36.5216 79.3686 36.194C79.3799 36.1907 79.3912 36.1874 79.4024 36.184C79.593 36.1189 79.7988 36.1125 79.9931 36.1656C80.1873 36.2188 80.3612 36.329 80.4922 36.482C80.6232 36.635 80.7052 36.8238 80.7277 37.0239C80.7502 37.2241 80.7122 37.4264 80.6184 37.6046L79.6499 39.4111C80.8708 39.6832 82.1395 39.6562 83.3478 39.3324C83.5485 39.2798 83.7606 39.2905 83.9549 39.3632C84.1493 39.4358 84.3164 39.5668 84.4334 39.7383C84.5504 39.9097 84.6114 40.113 84.6082 40.3205C84.605 40.528 84.5377 40.7294 84.4155 40.8971C81.2217 45.282 75.8859 48.1136 70.4409 48.0803C66.5709 48.0567 62.6611 46.7229 58.8947 47.6129C57.4376 47.9572 56.0761 48.6233 54.9101 49.5624C53.744 50.5015 52.803 51.6897 52.1561 53.04C51.5092 54.3902 51.1728 55.8681 51.1715 57.3653C51.1703 58.8624 51.5043 60.3409 52.1489 61.6922C50.9919 60.4266 48.7552 60.7263 47.5716 61.9671C46.3881 63.208 46.0817 65.06 46.2009 66.7707C46.3833 69.3871 47.4084 71.8524 48.4891 74.2519C39.4286 73.9667 30.8588 67.6108 27.9742 59.0145C25.0775 50.382 28.1134 40.0904 35.2314 34.4121Z" fill="#2F2E41"/>
<path opacity="0.2" d="M20.9641 118.706L26.9381 151.21L30.5226 151.522L20.9641 118.706Z" fill="black"/>
<path opacity="0.2" d="M86.7688 116.255L80.7948 151.186L77.2103 151.522L86.7688 116.255Z" fill="black"/>
<path d="M40.3268 23.4732C39.1814 23.9515 37.9861 23.4273 37.4849 22.2269C36.976 21.0082 37.4513 19.771 38.6151 19.285C39.779 18.799 40.9529 19.3245 41.47 20.5629C41.9794 21.7827 41.5093 22.9795 40.3268 23.4732ZM38.1326 16.8861L37.2219 17.2664C36.9944 17.3603 36.7399 17.3653 36.5088 17.2806C36.2777 17.1958 36.0869 17.0274 35.974 16.8087L35.929 16.7206C34.949 14.9533 34.8368 12.8054 35.5973 10.3399C36.3017 8.1282 36.5943 6.57274 36.0059 5.16357C35.3256 3.53431 33.8728 3.02394 32.0203 3.76327C31.3017 4.06329 31.0731 4.05851 30.5077 4.61943C30.3847 4.74293 30.2381 4.84039 30.0766 4.90601C29.9151 4.97163 29.7421 5.00406 29.5678 5.00136C29.3993 4.99938 29.233 4.96349 29.0787 4.89583C28.9244 4.82817 28.7853 4.73013 28.6697 4.60755C28.4469 4.37133 28.3222 4.0594 28.3205 3.73475C28.3189 3.4101 28.4405 3.09692 28.6608 2.85847C29.6112 1.86358 30.7575 1.0765 32.0274 0.546884C36.0078 -1.11518 38.0115 1.33862 38.9285 3.53455C39.8254 5.68241 39.3208 7.67527 38.5102 10.2562C37.8309 12.4008 37.8705 13.99 38.6421 15.5701C38.6979 15.6895 38.7288 15.819 38.7333 15.9507C38.7377 16.0825 38.7154 16.2137 38.6678 16.3367C38.6203 16.4596 38.5483 16.5716 38.4563 16.666C38.3644 16.7604 38.2543 16.8353 38.1326 16.8861Z" fill="#1F2B6C"/>
<path d="M139.203 33.3294H119.858C119.797 33.3298 119.736 33.3181 119.679 33.2948C119.622 33.2716 119.571 33.2374 119.527 33.194C119.483 33.1507 119.449 33.0992 119.425 33.0425C119.401 32.9858 119.389 32.9249 119.389 32.8634C119.389 32.802 119.401 32.7411 119.425 32.6844C119.449 32.6277 119.483 32.5762 119.527 32.5328C119.571 32.4895 119.622 32.4553 119.679 32.4321C119.736 32.4088 119.797 32.3971 119.858 32.3975H139.203C139.326 32.3983 139.444 32.4478 139.53 32.5351C139.617 32.6224 139.666 32.7404 139.666 32.8634C139.666 32.9865 139.617 33.1045 139.53 33.1918C139.444 33.2791 139.326 33.3286 139.203 33.3294Z" fill="#1F2B6C"/>
<path d="M163.743 33.4847H144.398C144.337 33.4851 144.276 33.4733 144.219 33.4501C144.162 33.4269 144.11 33.3926 144.067 33.3493C144.023 33.306 143.988 33.2545 143.965 33.1978C143.941 33.141 143.929 33.0802 143.929 33.0187C143.929 32.9573 143.941 32.8964 143.965 32.8397C143.988 32.7829 144.023 32.7314 144.067 32.6881C144.11 32.6448 144.162 32.6106 144.219 32.5873C144.276 32.5641 144.337 32.5524 144.398 32.5528H163.743C163.804 32.5524 163.865 32.5641 163.922 32.5873C163.979 32.6106 164.031 32.6448 164.074 32.6881C164.118 32.7314 164.152 32.7829 164.176 32.8397C164.2 32.8964 164.212 32.9573 164.212 33.0187C164.212 33.0802 164.2 33.141 164.176 33.1978C164.152 33.2545 164.118 33.306 164.074 33.3493C164.031 33.3926 163.979 33.4269 163.922 33.4501C163.865 33.4733 163.804 33.4851 163.743 33.4847Z" fill="#1F2B6C"/>
<path d="M188.282 33.64H168.938C168.815 33.6391 168.697 33.5897 168.61 33.5024C168.524 33.4151 168.475 33.297 168.475 33.174C168.475 33.051 168.524 32.933 168.61 32.8457C168.697 32.7584 168.815 32.7089 168.938 32.7081H188.282C188.344 32.7077 188.405 32.7194 188.462 32.7426C188.518 32.7659 188.57 32.8001 188.614 32.8434C188.657 32.8867 188.692 32.9382 188.716 32.995C188.739 33.0517 188.751 33.1126 188.751 33.174C188.751 33.2355 188.739 33.2963 188.716 33.3531C188.692 33.4098 188.657 33.4613 188.614 33.5046C188.57 33.5479 188.518 33.5822 188.462 33.6054C188.405 33.6286 188.344 33.6404 188.282 33.64Z" fill="#1F2B6C"/>
<path d="M212.822 33.7953H193.477C193.354 33.7945 193.237 33.745 193.15 33.6577C193.063 33.5704 193.015 33.4524 193.015 33.3294C193.015 33.2063 193.063 33.0883 193.15 33.001C193.237 32.9137 193.354 32.8643 193.477 32.8634H212.822C212.945 32.8643 213.063 32.9137 213.149 33.001C213.236 33.0883 213.285 33.2063 213.285 33.3294C213.285 33.4524 213.236 33.5704 213.149 33.6577C213.063 33.745 212.945 33.7945 212.822 33.7953Z" fill="#1F2B6C"/>
<path d="M129.488 29.0412C131.474 29.0412 133.083 27.4315 133.083 25.4458C133.083 23.4602 131.474 21.8505 129.488 21.8505C127.502 21.8505 125.893 23.4602 125.893 25.4458C125.893 27.4315 127.502 29.0412 129.488 29.0412Z" fill="#1F2B6C"/>
<path d="M154.176 29.0412C156.162 29.0412 157.771 27.4315 157.771 25.4458C157.771 23.4602 156.162 21.8505 154.176 21.8505C152.19 21.8505 150.581 23.4602 150.581 25.4458C150.581 27.4315 152.19 29.0412 154.176 29.0412Z" fill="#1F2B6C"/>
<path d="M178.864 29.0412C180.85 29.0412 182.459 27.4315 182.459 25.4458C182.459 23.4602 180.85 21.8505 178.864 21.8505C176.878 21.8505 175.269 23.4602 175.269 25.4458C175.269 27.4315 176.878 29.0412 178.864 29.0412Z" fill="#1F2B6C"/>
<path d="M203.552 29.0412C205.537 29.0412 207.147 27.4315 207.147 25.4458C207.147 23.4602 205.537 21.8505 203.552 21.8505C201.566 21.8505 199.956 23.4602 199.956 25.4458C199.956 27.4315 201.566 29.0412 203.552 29.0412Z" fill="#1F2B6C"/>
</g>
<defs>
<clipPath id="clip0_38_1116">
<rect width="228" height="151.522" fill="white"/>
</clipPath>
</defs>
</svg>
