<svg width="142" height="209" viewBox="0 0 142 209" fill="none" xmlns="http://www.w3.org/2000/svg">
<g clip-path="url(#clip0_643_913)">
<path d="M123.814 209H57.4502C47.6083 209 39.6014 200.993 39.6014 191.151V17.8488C39.6014 8.00687 47.6083 0 57.4502 0H123.814C133.656 0 141.663 8.00687 141.663 17.8488V191.151C141.663 200.993 133.656 209 123.814 209ZM57.4502 0.687285C47.9863 0.687285 40.2887 8.38488 40.2887 17.8488V191.151C40.2887 200.615 47.9863 208.313 57.4502 208.313H123.814C133.278 208.313 140.976 200.615 140.976 191.151V17.8488C140.976 8.38488 133.278 0.687285 123.814 0.687285H57.4502Z" fill="#DEDFE0"/>
<path d="M100.031 16.2746H81.2371C78.756 16.2746 76.7389 14.2575 76.7389 11.7764C76.7389 9.29526 78.756 7.27808 81.2371 7.27808H100.031C102.512 7.27808 104.529 9.29526 104.529 11.7764C104.529 14.2575 102.512 16.2746 100.031 16.2746Z" fill="#DADBDC"/>
<path d="M73.9107 208.639C73.9107 208.825 73.7595 208.976 73.5739 208.976H0.336793C0.151226 208.976 2.28882e-05 208.825 2.28882e-05 208.639C2.28882e-05 208.454 0.151226 208.302 0.336793 208.302H73.5739C73.7595 208.302 73.9107 208.454 73.9107 208.639Z" fill="#3F3D58"/>
<path d="M40.9485 104.505L47.7011 106.725V97.0068H41.5739L40.9485 104.505Z" fill="#F6AAAE"/>
<path d="M46.8626 99.6975C50.5786 99.6975 53.5911 96.6851 53.5911 92.969C53.5911 89.2529 50.5786 86.2405 46.8626 86.2405C43.1465 86.2405 40.134 89.2529 40.134 92.969C40.134 96.6851 43.1465 99.6975 46.8626 99.6975Z" fill="#F6AAAE"/>
<path d="M45.1512 93.4949L46.0791 94.6221L47.756 91.6874C47.756 91.6874 49.8969 91.7973 49.8969 90.2097C49.8969 88.6221 51.8626 88.5774 51.8626 88.5774C51.8626 88.5774 54.6426 83.7217 48.8832 85.0001C48.8832 85.0001 44.8866 82.2612 42.9004 84.6014C42.9004 84.6014 36.8076 87.6702 38.5499 93.0138L41.4468 98.519L42.1031 97.2716C42.1031 97.2716 41.7045 92.0379 45.1512 93.4949Z" fill="#2F2E43"/>
<path d="M44.5258 196.594H39.0894V204.306H44.5258V196.594Z" fill="#F6AAAE"/>
<path d="M43.9279 208.725C42.9966 208.811 38.3471 209.175 38.1134 208.11C37.9004 207.13 38.2131 206.106 38.2578 205.969C38.7045 201.522 38.8694 201.471 38.9691 201.44C39.1272 201.395 39.5911 201.612 40.3402 202.096L40.3883 202.127L40.3987 202.182C40.4124 202.251 40.7457 203.883 42.3196 203.636C43.3987 203.464 43.7492 203.227 43.8626 203.11C43.7698 203.069 43.6564 202.996 43.5773 202.869C43.4605 202.687 43.4399 202.453 43.5155 202.175C43.7182 201.436 44.3265 200.343 44.3505 200.299L44.4193 200.175L50.598 204.343L54.4124 205.433C54.7011 205.515 54.9313 205.721 55.0481 205.996C55.2096 206.381 55.11 206.828 54.8007 207.106C54.1066 207.728 52.732 208.797 51.2852 208.928C50.9004 208.962 50.3918 208.976 49.8213 208.976C47.433 208.976 43.9519 208.728 43.9244 208.725L43.9279 208.725Z" fill="#2F2E43"/>
<path d="M27.5694 185.014L22.654 190.956L26.8429 194.421L31.7583 188.479L27.5694 185.014Z" fill="#F6AAAE"/>
<path d="M23.5705 197.45C22.8007 196.921 18.9828 194.241 19.4811 193.272C19.9416 192.382 20.8351 191.794 20.9588 191.715C24.1375 188.574 24.299 188.639 24.3952 188.68C24.5464 188.746 24.7629 189.21 25.0344 190.058L25.0516 190.11L25.0241 190.158C24.9897 190.22 24.2062 191.691 25.5774 192.502C26.5189 193.058 26.9416 193.096 27.0997 193.079C27.055 192.99 27.0138 192.859 27.031 192.711C27.055 192.498 27.189 192.302 27.4296 192.138C28.0584 191.698 29.22 191.244 29.2715 191.223L29.4021 191.172L31.5052 198.323L33.7492 201.595C33.9176 201.842 33.9657 202.148 33.8798 202.437C33.7595 202.835 33.3987 203.117 32.9794 203.134C32.0481 203.172 30.3093 203.117 29.11 202.296C28.7938 202.079 28.3918 201.766 27.9519 201.402C26.1134 199.88 23.5877 197.471 23.567 197.45L23.5705 197.45Z" fill="#2F2E43"/>
<path d="M53.5189 137.12H34.8729L39.0172 198.756H45.2337L53.5224 137.12L53.5189 137.12Z" fill="#2F2E43"/>
<path d="M49.7217 140.515L53.5189 137.12L51.6186 171.017L30.3815 191.216L25.0894 186.842L37.4605 170.787L49.7217 140.515Z" fill="#2F2E43"/>
<path d="M49.7217 100.863L40.5121 99.3677L37.653 104.368C34.0172 110.725 32.5361 118.086 33.4261 125.354L34.8729 137.124H53.5189L49.7217 100.866L49.7217 100.863Z" fill="#DADBDC"/>
<path d="M42.244 148.216C42.6255 150.117 41.9141 151.852 40.6598 152.093C39.4021 152.33 38.0756 150.983 37.6942 149.079C37.5327 148.32 37.5602 147.536 37.7767 146.79L36.2646 138.711L40.2165 138.096L41.2853 146.127C41.7732 146.742 42.1031 147.457 42.244 148.22V148.216Z" fill="#F6AAAE"/>
<path d="M37.4365 146.027L31.6323 128.096V128.069L33.8248 109.605C34.1615 106.777 36.5602 104.646 39.4055 104.646C41.1478 104.646 42.7629 105.433 43.8351 106.808C44.9072 108.182 45.2818 109.938 44.8591 111.632L40.9863 127.12L41.9107 144.698L37.433 146.027L37.4365 146.027Z" fill="#DADBDC"/>
<path d="M70.6426 106.629C72.2543 115.237 80.5395 120.911 89.1512 119.296C91.756 118.808 94.0928 117.708 96.0378 116.172L115.625 137.299C116.825 138.591 118.869 138.588 120.065 137.289C121.182 136.076 121.12 134.193 119.924 133.055L98.9966 113.11C101.512 109.694 102.66 105.285 101.818 100.787C100.206 92.1788 91.921 86.5052 83.3093 88.1204C74.6976 89.7355 69.0275 98.0173 70.6426 106.629ZM74.0241 105.997C72.7629 99.2544 77.2028 92.7664 83.945 91.5052C90.6873 90.2441 97.1753 94.6839 98.4365 101.426C99.6976 108.168 95.2578 114.656 88.5155 115.918C81.7732 117.179 75.2852 112.739 74.0241 105.997Z" fill="#1F2B6C"/>
</g>
<defs>
<clipPath id="clip0_643_913">
<rect width="141.663" height="209" fill="white"/>
</clipPath>
</defs>
</svg>
