<svg width="43" height="43" viewBox="0 0 43 43" fill="none" xmlns="http://www.w3.org/2000/svg">
<path d="M41 21.5C41 32.8363 32.8363 41 21.5 41C10.1636 41 2 32.8363 2 21.5C2 10.1636 10.1636 2 21.5 2C32.8363 2 41 10.1636 41 21.5Z" stroke="#BED1F7" stroke-width="2.05263"/>
<path d="M24.5789 21.5001C24.5789 23.2005 23.2004 24.579 21.5 24.579C19.7996 24.579 18.4211 23.2005 18.4211 21.5001C18.4211 19.7997 19.7996 18.4211 21.5 18.4211C23.2004 18.4211 24.5789 19.7997 24.5789 21.5001Z" stroke="#BED1F7" stroke-width="2.05263"/>
<path d="M7.63528 12.7012C5.98761 15.2976 5.10247 18.3035 5.07944 21.3769C5.07899 21.4348 5.07878 21.4637 5.09685 21.4818C5.11491 21.5001 5.14398 21.5001 5.20213 21.5001H15.4681C15.5259 21.5001 15.5548 21.5001 15.5728 21.4824C15.5907 21.465 15.5914 21.4356 15.5926 21.3769C15.615 20.2985 15.9323 19.2461 16.5111 18.3341C17.0899 17.4221 17.9071 16.6868 18.8733 16.2073C18.9258 16.1812 18.9521 16.1682 18.9605 16.1445C18.9687 16.1207 18.9564 16.0946 18.9318 16.0423L14.5607 6.75331C14.536 6.70069 14.5236 6.67439 14.4994 6.66579C14.4753 6.65719 14.4492 6.66971 14.397 6.69475C11.626 8.02414 9.28294 10.1049 7.63528 12.7012Z" stroke="#BED1F7" stroke-width="2.05263"/>
<path d="M35.3647 12.7012C37.0124 15.2976 37.8975 18.3035 37.9206 21.3769C37.9211 21.4348 37.9213 21.4637 37.9032 21.4818C37.8851 21.5001 37.856 21.5001 37.7979 21.5001H27.5319C27.4742 21.5001 27.4452 21.5001 27.4272 21.4824C27.4093 21.465 27.4087 21.4356 27.4075 21.3769C27.3849 20.2985 27.0678 19.2461 26.4889 18.3341C25.9101 17.4221 25.0929 16.6868 24.1268 16.2073C24.0742 16.1812 24.0479 16.1682 24.0395 16.1445C24.0313 16.1207 24.0436 16.0946 24.0683 16.0423L28.4393 6.75331C28.4642 6.70069 28.4765 6.67439 28.5007 6.66579C28.5247 6.65719 28.5508 6.66971 28.6031 6.69475C31.374 8.02414 33.7171 10.1049 35.3647 12.7012Z" stroke="#BED1F7" stroke-width="2.05263"/>
<path d="M21.5511 37.9211C18.4761 37.9305 15.461 37.0766 12.8488 35.4573C12.7996 35.4269 12.775 35.4115 12.7692 35.3867C12.7635 35.3616 12.779 35.337 12.81 35.2879L18.2837 26.6028C18.3145 26.554 18.3301 26.5296 18.3545 26.5238C18.379 26.5179 18.404 26.5331 18.4543 26.5632C19.3786 27.1193 20.4382 27.412 21.5183 27.4087C22.5986 27.4054 23.6563 27.106 24.5771 26.5444C24.6272 26.5138 24.6522 26.4984 24.6766 26.5041C24.7011 26.5099 24.7167 26.5341 24.7479 26.5827L30.2756 35.2336C30.3068 35.2826 30.3226 35.307 30.3169 35.3321C30.3113 35.3571 30.2869 35.3725 30.2378 35.4033C27.6357 37.0386 24.6259 37.9114 21.5511 37.9211Z" stroke="#BED1F7" stroke-width="2.05263"/>
</svg>
