<svg width="156" height="121" viewBox="0 0 156 121" fill="none" xmlns="http://www.w3.org/2000/svg">
<g clip-path="url(#clip0_235_867)">
<path d="M2.39832 111.442C3.41717 114.976 6.39206 117.45 9.49525 119.552C9.92853 119.846 10.362 120.132 10.7955 120.413C10.7985 120.414 10.8015 120.417 10.8045 120.418C10.8253 120.431 10.8462 120.445 10.8657 120.458C10.9551 120.516 11.0447 120.574 11.1334 120.631L11.0846 120.652C11.0846 120.652 11.0368 120.678 11.0891 120.657C11.1047 120.65 11.1211 120.644 11.1366 120.638C12.9394 119.911 14.7742 119.13 16.1557 117.768C17.5888 116.353 18.4264 114.135 17.6503 112.277C17.5483 112.033 17.4195 111.802 17.2662 111.587C17.2032 111.497 17.1355 111.411 17.0649 111.326C16.6368 110.804 16.0773 110.405 15.4439 110.17C14.8105 109.936 14.1261 109.874 13.461 109.992C12.7959 110.11 12.1742 110.402 11.6597 110.84C11.1452 111.278 10.7566 111.844 10.5338 112.482C10.3058 110.359 12.0561 108.581 13.7405 107.269C15.4257 105.958 17.3405 104.53 17.6663 102.419C17.8483 101.245 17.4399 100.106 16.6959 99.1927C16.6728 99.1649 16.6498 99.1372 16.6261 99.1102C15.7205 98.046 14.4467 97.3626 13.0592 97.1966C10.4752 96.928 7.96524 98.2958 6.08803 100.092C3.06665 102.983 1.2401 107.423 2.39832 111.442Z" fill="#F1F1F1"/>
<path d="M7.25528 106.819C6.75936 107.59 6.37861 108.43 6.12505 109.312C5.91063 110.1 5.81519 110.915 5.84191 111.731C5.91108 113.41 6.3825 115.048 7.21652 116.507C7.84477 117.614 8.6104 118.638 9.49523 119.552C9.92852 119.846 10.3619 120.133 10.7955 120.413C10.7984 120.414 10.8015 120.417 10.8044 120.418C10.8253 120.432 10.8462 120.445 10.8656 120.458C10.9551 120.516 11.0446 120.574 11.1334 120.631C11.1334 120.631 11.0368 120.678 11.0891 120.657C11.1047 120.65 11.121 120.644 11.1366 120.638C10.975 119.313 11.1333 117.969 11.5982 116.718C12.0631 115.467 12.821 114.346 13.8085 113.448C14.7983 112.564 15.9831 111.927 17.2662 111.588C17.2032 111.498 17.1354 111.411 17.0648 111.327C16.5693 111.466 16.087 111.648 15.6236 111.872C13.9671 112.668 12.6107 113.975 11.7553 115.602C10.9876 117.078 10.6572 118.744 10.8029 120.402C10.7288 120.334 10.6547 120.266 10.5827 120.198C9.21284 118.921 7.9961 117.455 7.17265 115.763C6.45825 114.33 6.10714 112.744 6.15023 111.143C6.21743 109.398 6.91273 107.782 7.91944 106.375C9.02279 104.873 10.3262 103.53 11.7936 102.382C13.2723 101.198 14.8904 100.199 16.6118 99.4072C16.6506 99.3891 16.681 99.3568 16.6967 99.3169C16.7123 99.277 16.712 99.2326 16.6958 99.1929C16.6844 99.1573 16.6593 99.1277 16.6261 99.1105C16.609 99.1031 16.5905 99.0997 16.5719 99.1005C16.5533 99.1012 16.5351 99.1062 16.5187 99.115C16.3062 99.2129 16.0951 99.312 15.8857 99.4155C14.1419 100.277 12.5119 101.353 11.0332 102.616C9.60478 103.834 8.26006 105.226 7.25528 106.819Z" fill="white"/>
<path d="M48.0501 117.972H50.7575L52.0453 107.53L48.0497 107.53L48.0501 117.972Z" fill="#FFB7B7"/>
<path d="M47.3596 117.089L52.6912 117.088H52.6914C53.5925 117.088 54.4566 117.446 55.0938 118.084C55.731 118.721 56.089 119.585 56.0891 120.486V120.596L47.3598 120.597L47.3596 117.089Z" fill="#2F2E41"/>
<path d="M33.3921 117.972H36.0995L37.3873 107.53L33.3917 107.53L33.3921 117.972Z" fill="#FFB7B7"/>
<path d="M32.7017 117.089L38.0332 117.088H38.0334C38.9345 117.088 39.7987 117.446 40.4359 118.084C41.073 118.721 41.431 119.585 41.4311 120.486V120.596L32.7018 120.597L32.7017 117.089Z" fill="#2F2E41"/>
<path d="M32.2892 70.6455V98.2166L32.9872 116.015H38.7456L40.6653 82.5116L44.5042 96.2971L46.9472 115.666L53.9271 115.317L49.2157 70.6455H32.2892Z" fill="#2F2E41"/>
<path d="M38.9833 45.8667C41.2963 45.8667 43.1713 43.9917 43.1713 41.6787C43.1713 39.3657 41.2963 37.4907 38.9833 37.4907C36.6704 37.4907 34.7953 39.3657 34.7953 41.6787C34.7953 43.9917 36.6704 45.8667 38.9833 45.8667Z" fill="#FFB8B8"/>
<path d="M37.2432 46.9578L36.1282 48.1351L35.0811 71.6926L47.4707 71.3437L44.5042 50.7527L41.8868 48.2444L40.5586 46.9578H37.2432Z" fill="#1F2B6C"/>
<path d="M35.2557 49.5312L36.1961 48.0049L36.4772 51.2762C36.4772 51.2762 38.7457 58.6052 38.5712 65.0617C38.3967 71.5182 39.4437 86.6996 38.0477 86.8741C36.6517 87.0486 30.7187 87.3976 30.7187 86.1761C30.7187 84.9546 30.3697 52.4977 30.3697 52.4977L35.2557 49.5312Z" fill="#2F2E41"/>
<path d="M41.6056 48.0049L43.9807 49.8802L49.2156 51.7997C49.2156 51.7997 49.2156 74.1357 50.2626 79.3706C51.3096 84.6056 53.2291 85.1291 50.7861 85.3036C48.3431 85.4781 48.5176 84.6056 48.5176 84.6056C48.5176 84.6056 41.3632 62.2697 41.7122 56.6857C42.0612 51.1017 41.2566 48.0049 41.6056 48.0049Z" fill="#2F2E41"/>
<path d="M35.0212 42.9889C35.0212 42.9889 35.3771 42.364 35.2943 40.2765C35.2116 38.189 38.3904 39.3697 41.0467 39.1705C43.7029 38.9714 43.1406 42.6557 43.1406 42.6557C43.1406 42.6557 43.3323 42.4367 43.7425 40.6585C44.1528 38.8804 43.2213 37.1083 43.2213 37.1083C42.9469 35.2398 41.4683 35.8387 41.4683 35.8387C42.1804 36.1159 42.0436 36.7086 42.0436 36.7086C41.4409 35.6518 39.9623 36.2507 39.9623 36.2507C37.9903 35.0132 35.9917 36.6428 35.9917 36.6428C33.6094 37.1835 35.0065 39.078 35.0065 39.078C32.6107 40.2888 35.0212 42.9889 35.0212 42.9889Z" fill="#2F2E41"/>
<path d="M30.7245 83.6529C30.902 83.4653 31.0362 83.241 31.1177 82.9959C31.1992 82.7509 31.2259 82.4909 31.1961 82.2344C31.1662 81.9778 31.0805 81.731 30.9449 81.5111C30.8093 81.2913 30.6271 81.1039 30.4113 80.9621L31.1657 76.9962L28.8674 75.95L27.8807 81.5656C27.6665 81.944 27.5986 82.3878 27.6898 82.813C27.781 83.2381 28.0249 83.6151 28.3755 83.8723C28.726 84.1296 29.1588 84.2494 29.5917 84.209C30.0247 84.1685 30.4277 83.9706 30.7245 83.6529Z" fill="#FFB7B7"/>
<path d="M31.2422 52.4977L30.7788 52.2493C30.7788 52.2493 28.2757 53.1957 28.4502 53.8937C28.6247 54.5917 27.0542 79.0216 27.5777 79.8941C28.1012 80.7666 32.2892 80.0686 32.2892 80.0686L31.2422 52.4977Z" fill="#2F2E41"/>
<path d="M51.1628 82.0081C50.961 81.8468 50.7971 81.6433 50.6825 81.4119C50.5679 81.1804 50.5054 80.9267 50.4995 80.6685C50.4936 80.4103 50.5444 80.1539 50.6483 79.9175C50.7521 79.681 50.9066 79.4702 51.1008 79.2999L49.8049 75.4765L51.9363 74.1223L53.6905 79.5474C53.9549 79.8925 54.0836 80.3227 54.0521 80.7564C54.0206 81.1901 53.8312 81.5971 53.5196 81.9004C53.208 82.2038 52.796 82.3822 52.3617 82.4021C51.9273 82.4219 51.5007 82.2817 51.1628 82.0081Z" fill="#FFB7B7"/>
<path d="M49.1173 78.6748C49.1173 78.6748 53.3616 78.7866 53.7593 77.8501C54.1571 76.9135 49.2215 52.9359 49.2978 52.2205C49.374 51.505 46.764 50.9141 46.764 50.9141L46.3395 51.2242L49.1173 78.6748Z" fill="#2F2E41"/>
<path d="M77.0367 121H0.201667C0.148181 121 0.0968865 120.979 0.0590666 120.941C0.0212468 120.903 0 120.852 0 120.798C0 120.745 0.0212468 120.694 0.0590666 120.656C0.0968865 120.618 0.148181 120.597 0.201667 120.597H77.0367C77.0901 120.597 77.1414 120.618 77.1793 120.656C77.2171 120.694 77.2383 120.745 77.2383 120.798C77.2383 120.852 77.2171 120.903 77.1793 120.941C77.1414 120.979 77.0901 121 77.0367 121Z" fill="#CBCBCB"/>
<path d="M155.908 62.1134H84.9907V17.9624H155.908V62.1134ZM86.6407 60.4634H154.258V19.6125H86.6407V60.4634Z" fill="#E5E5E5"/>
<path d="M155.083 18.7874H85.8156V61.2882H155.083V18.7874Z" fill="white"/>
<path d="M155.083 29.559V26.9495H145.474V18.7874H142.865V26.9495H125.758V18.7874H123.148V26.9495H96.7627V18.7874H94.1531V26.9495H85.8156V29.559H94.1531V39.7073H85.8156V42.3168H94.1531V53.19H85.8156V55.7995H108.216V61.2883H110.825V55.7995H123.148V61.2883H125.758V55.7995H155.083V53.1899H125.758V42.3168H155.083V39.7073H145.474V29.559L155.083 29.559ZM123.148 29.559V32.7485H96.7627V29.559H123.148ZM96.7627 35.358H123.148V39.7073H96.7627V35.358ZM96.7627 53.1899V42.3168H108.216V53.1899L96.7627 53.1899ZM123.148 53.1899H110.825V42.3168H123.148V53.1899ZM142.865 39.7073H125.758V29.559H142.865V39.7073Z" fill="#E6E6E6"/>
<path d="M137.042 12.5129C137.042 19.4236 124.529 34.8185 124.529 34.8185C124.529 34.8185 112.016 19.4236 112.016 12.5129C112.016 9.19427 113.335 6.01156 115.681 3.66494C118.028 1.31832 121.21 0 124.529 0C127.848 0 131.03 1.31832 133.377 3.66494C135.724 6.01156 137.042 9.19427 137.042 12.5129Z" fill="#1F2B6C"/>
<path d="M130.25 11.9687C130.25 13.1001 129.914 14.206 129.285 15.1467C128.657 16.0874 127.764 16.8205 126.718 17.2535C125.673 17.6864 124.523 17.7997 123.413 17.579C122.304 17.3583 121.285 16.8135 120.485 16.0135C119.685 15.2135 119.14 14.1943 118.919 13.0847C118.698 11.9751 118.812 10.8249 119.245 9.7797C119.678 8.73447 120.411 7.8411 121.351 7.21256C122.292 6.58402 123.398 6.24854 124.529 6.24854C125.281 6.24819 126.025 6.39591 126.719 6.68326C127.413 6.9706 128.044 7.39193 128.575 7.92317C129.106 8.45441 129.527 9.08513 129.815 9.77929C130.102 10.4735 130.25 11.2174 130.25 11.9687Z" fill="white"/>
<path d="M124.529 43.8496C126.392 43.8496 127.902 42.3394 127.902 40.4766C127.902 38.6137 126.392 37.1035 124.529 37.1035C122.666 37.1035 121.156 38.6137 121.156 40.4766C121.156 42.3394 122.666 43.8496 124.529 43.8496Z" fill="#1F2B6C"/>
</g>
<defs>
<clipPath id="clip0_235_867">
<rect width="155.908" height="121" fill="white"/>
</clipPath>
</defs>
</svg>
