<svg width="39" height="39" viewBox="0 0 39 39" fill="none" xmlns="http://www.w3.org/2000/svg">
<path d="M12.095 24.19H13.0021V25.3995C13.0021 26.0678 13.5434 26.609 14.2116 26.609H17.2354C17.9036 26.609 18.4449 26.0678 18.4449 25.3995V24.19H19.352C20.6878 24.19 21.771 23.1068 21.771 21.771V4.83801C21.771 3.50226 20.6878 2.419 19.352 2.419V1.2095C19.352 0.541252 18.8108 0 18.1425 0H13.3045C12.6363 0 12.095 0.541252 12.095 1.2095V2.419C10.7593 2.419 9.67601 3.50226 9.67601 4.83801V21.771C9.67601 23.1068 10.7593 24.19 12.095 24.19ZM35.0755 33.866H34.978C37.2859 31.2951 38.704 27.9092 38.704 24.19C38.704 16.1862 32.1939 9.67601 24.19 9.67601V14.514C29.5254 14.514 33.866 18.8546 33.866 24.19C33.866 29.5254 29.5254 33.866 24.19 33.866H3.6285C1.62451 33.866 0 35.4905 0 37.4945C0 38.1628 0.541252 38.704 1.2095 38.704H37.4945C38.1628 38.704 38.704 38.1628 38.704 37.4945C38.704 35.4905 37.0795 33.866 35.0755 33.866ZM7.86176 31.447H23.5853C23.9194 31.447 24.19 31.1764 24.19 30.8423V29.6328C24.19 29.2987 23.9194 29.028 23.5853 29.028H7.86176C7.52763 29.028 7.25701 29.2987 7.25701 29.6328V30.8423C7.25701 31.1764 7.52763 31.447 7.86176 31.447Z" fill="#BED1F7"/>
</svg>
