<svg width="41" height="14" viewBox="0 0 41 14" fill="none" xmlns="http://www.w3.org/2000/svg">
<path fill-rule="evenodd" clip-rule="evenodd" d="M28.8344 9.0783C28.8344 7.10821 27.2084 6.25111 25.9113 5.56733C25.0441 5.11019 24.3239 4.73052 24.3347 4.14755C24.3347 3.68951 24.7658 3.20452 25.6819 3.09674C26.7707 2.99394 27.8673 3.1798 28.8613 3.63562L29.4271 0.941223C28.4694 0.588124 27.4571 0.405735 26.4363 0.402344C23.23 0.402344 21.0476 2.09981 21.0476 4.52477C21.0476 6.28552 22.6324 7.201 23.8406 7.8989L23.8767 7.91971C25.0891 8.62025 25.5472 8.91664 25.5472 9.45551C25.5472 9.99439 24.5503 10.668 23.6342 10.668C22.4762 10.7194 21.3249 10.4687 20.2931 9.94051L19.7004 12.6349C20.8495 13.0522 22.0614 13.2708 23.2839 13.2816C26.6788 13.2816 28.8882 11.611 28.8882 9.02441L28.8344 9.0783ZM20.1044 0.671894L17.41 13.1469H14.2037L16.8981 0.671894H20.1044ZM33.5765 8.75468L35.274 4.06643L36.4595 8.72773L33.5765 8.75468ZM40.1509 13.1734H37.187L36.729 11.3143H32.6065L31.9329 13.1734H28.538L33.3879 1.61444C33.6176 1.05848 34.1605 0.696518 34.7621 0.698342H37.4565L40.1509 13.1734ZM10.2699 13.1469L15.497 0.671894H12.2098L8.59935 9.15924L7.2252 1.9652C7.11869 1.22713 6.48898 0.677565 5.74329 0.671894H0.354492V1.04911C1.3968 1.2845 2.40914 1.63701 3.37222 2.09992C3.79128 2.32032 4.07386 2.73409 4.12665 3.20463L6.82104 13.1469H10.2699Z" fill="white"/>
</svg>
