<svg width="120" height="110" viewBox="0 0 120 110" fill="none" xmlns="http://www.w3.org/2000/svg">
<g clip-path="url(#clip0_235_420)">
<path d="M103.416 10.0642L2.86694 39.3601L5.53021 48.501L106.08 19.205L103.416 10.0642Z" fill="#3F3D56"/>
<path d="M14.8801 81.3473L0.0598546 30.4815C-0.0500183 30.1044 -0.0055779 29.6991 0.183393 29.3547C0.372363 29.0104 0.690385 28.7552 1.0675 28.6453L99.1794 0.059541C99.5565 -0.0499627 99.9617 -0.00537174 100.306 0.183531C100.65 0.372434 100.905 0.690212 101.016 1.06711L114.145 46.1306L113.739 46.249L100.609 1.1855C100.53 0.916402 100.348 0.689546 100.102 0.554636C99.8565 0.419726 99.5672 0.387761 99.2978 0.465748L1.18587 29.0515C0.916499 29.13 0.689341 29.3123 0.554362 29.5583C0.419383 29.8042 0.38764 30.0938 0.466117 30.3631L15.2863 81.2289L14.8801 81.3473Z" fill="#3F3D56"/>
<path d="M92.4298 46.3398C92.1321 46.3395 91.8426 46.2428 91.6045 46.0642C91.3663 45.8856 91.1925 45.6346 91.1088 45.349L88.6231 36.8175C88.5215 36.4673 88.563 36.0912 88.7384 35.7715C88.9138 35.4519 89.2088 35.2149 89.5587 35.1125L98.0903 32.6268C98.4404 32.5252 98.8166 32.5667 99.1363 32.7421C99.4559 32.9175 99.6929 33.2126 99.7953 33.5626L102.281 42.094C102.383 42.4442 102.341 42.8203 102.166 43.14C101.99 43.4596 101.695 43.6966 101.345 43.799L92.8139 46.2847C92.6891 46.3212 92.5598 46.3397 92.4298 46.3398Z" fill="#1F2B6C"/>
<path d="M14.6509 30.6387C14.6253 30.551 14.595 30.4648 14.5599 30.3805C14.3213 29.8016 13.8773 29.3312 13.313 29.0598C12.7487 28.7883 12.104 28.735 11.5027 28.9101C10.9015 29.0851 10.3862 29.4761 10.0558 30.0081C9.72539 30.54 9.6032 31.1752 9.71272 31.7918C9.72811 31.8817 9.7486 31.9707 9.77408 32.0583C9.92859 32.5857 10.2498 33.0488 10.6895 33.3784C11.1293 33.7079 11.664 33.8861 12.2135 33.8864C12.4534 33.8869 12.6922 33.8527 12.9223 33.7848C13.5683 33.5961 14.113 33.1589 14.437 32.5691C14.7611 31.9793 14.838 31.2851 14.6509 30.6387ZM12.8038 33.3786C12.2652 33.5349 11.6865 33.4713 11.1947 33.2015C10.7028 32.9318 10.3381 32.4781 10.1803 31.9399C10.1555 31.8522 10.1357 31.7632 10.121 31.6733C10.0416 31.1653 10.15 30.6458 10.4259 30.212C10.7017 29.7781 11.1262 29.4596 11.6198 29.3159C12.1135 29.1723 12.6426 29.2134 13.1081 29.4315C13.5737 29.6496 13.9439 30.0299 14.1494 30.5011C14.1877 30.5839 14.2196 30.6695 14.2447 30.7571C14.4008 31.2958 14.3368 31.8745 14.0666 32.366C13.7965 32.8575 13.3423 33.2217 12.8038 33.3786Z" fill="#1F2B6C"/>
<path d="M8.42377 32.4522C8.28837 31.9872 8.30138 31.4916 8.46098 31.0343C8.62058 30.577 8.91882 30.1809 9.31416 29.9012C8.94377 29.8831 8.57443 29.9539 8.23691 30.1075C7.89938 30.2611 7.60345 30.4931 7.37375 30.7842C7.14406 31.0753 6.98726 31.4171 6.91641 31.7811C6.84556 32.1451 6.86272 32.5208 6.96645 32.8768C7.07018 33.2328 7.25748 33.5589 7.51275 33.8279C7.76802 34.0969 8.08388 34.301 8.43399 34.4231C8.78411 34.5453 9.15835 34.5821 9.52556 34.5304C9.89276 34.4786 10.2423 34.3399 10.545 34.1257C10.0613 34.1021 9.59696 33.9282 9.21674 33.6282C8.83652 33.3283 8.55932 32.9172 8.42377 32.4522Z" fill="#1F2B6C"/>
<path d="M74.1949 42.9376C74.1498 42.7757 74.0733 42.6243 73.9697 42.4919C73.8661 42.3596 73.7374 42.249 73.591 42.1665C73.4446 42.084 73.2834 42.0311 73.1166 42.0109C72.9497 41.9908 72.7805 42.0037 72.6187 42.049L58.5721 45.978L57.0593 46.4011H66.5591L68.0718 45.978L73.3084 44.5139C73.6348 44.4222 73.9115 44.2047 74.0777 43.9091C74.2439 43.6136 74.2861 43.2642 74.1949 42.9376Z" fill="#CCCCCC"/>
<path d="M64.2572 40.0032C64.1657 39.6766 63.9483 39.3998 63.6527 39.2335C63.3571 39.0673 63.0075 39.0253 62.681 39.1167L41.6038 45.0112C41.3093 45.0946 41.0542 45.2806 40.8847 45.5354C40.7152 45.7903 40.6423 46.0974 40.6792 46.4013H46.1357L47.6505 45.9781L63.3707 41.5815C63.6974 41.4895 63.9743 41.2717 64.1405 40.9757C64.3067 40.6798 64.3487 40.33 64.2572 40.0032Z" fill="#CCCCCC"/>
<path d="M118.519 45.9778H16.3273C15.9347 45.9782 15.5582 46.1344 15.2806 46.4121C15.0029 46.6897 14.8468 47.0662 14.8463 47.4588V107.97C14.8467 108.362 15.0029 108.739 15.2806 109.017C15.5582 109.294 15.9347 109.45 16.3273 109.451H118.519C118.912 109.45 119.288 109.294 119.566 109.017C119.843 108.739 120 108.362 120 107.97V47.4588C120 47.0662 119.843 46.6897 119.566 46.4121C119.288 46.1344 118.912 45.9782 118.519 45.9778ZM119.577 107.97C119.577 108.25 119.465 108.519 119.267 108.718C119.069 108.916 118.799 109.028 118.519 109.028H16.3273C16.0468 109.028 15.7778 108.916 15.5794 108.718C15.3811 108.519 15.2696 108.25 15.2695 107.97V47.4588C15.2696 47.1783 15.3811 46.9093 15.5794 46.7109C15.7778 46.5125 16.0468 46.4011 16.3273 46.4009H118.519C118.799 46.4011 119.068 46.5125 119.267 46.7109C119.465 46.9093 119.577 47.1783 119.577 47.4588V107.97Z" fill="#3F3D56"/>
<path d="M26.2707 54.2294C25.7686 54.2294 25.2777 54.0805 24.8602 53.8016C24.4427 53.5226 24.1172 53.1261 23.9251 52.6621C23.7329 52.1982 23.6826 51.6877 23.7806 51.1952C23.8786 50.7027 24.1204 50.2503 24.4754 49.8952C24.8305 49.5402 25.2829 49.2984 25.7754 49.2004C26.2679 49.1024 26.7784 49.1527 27.2423 49.3449C27.7063 49.537 28.1028 49.8625 28.3818 50.28C28.6607 50.6975 28.8096 51.1884 28.8096 51.6905C28.8089 52.3637 28.5411 53.009 28.0652 53.485C27.5892 53.9609 26.9439 54.2287 26.2707 54.2294ZM26.2707 49.5748C25.8523 49.5748 25.4432 49.6989 25.0953 49.9313C24.7473 50.1638 24.4762 50.4943 24.316 50.8809C24.1559 51.2675 24.114 51.6929 24.1956 52.1033C24.2773 52.5137 24.4788 52.8907 24.7747 53.1866C25.0706 53.4825 25.4475 53.684 25.858 53.7656C26.2684 53.8473 26.6938 53.8054 27.0804 53.6452C27.467 53.4851 27.7974 53.2139 28.0299 52.866C28.2624 52.5181 28.3865 52.109 28.3865 51.6905C28.3859 51.1296 28.1628 50.5918 27.7661 50.1952C27.3695 49.7985 26.8317 49.5754 26.2707 49.5748Z" fill="#1F2B6C"/>
<path d="M22.3242 51.6906C22.3243 51.2063 22.4754 50.7341 22.7565 50.3397C23.0377 49.9454 23.4348 49.6485 23.8926 49.4905C23.5421 49.3696 23.1677 49.3342 22.8007 49.3872C22.4337 49.4403 22.0846 49.5802 21.7827 49.7955C21.4807 50.0107 21.2346 50.295 21.0647 50.6247C20.8949 50.9543 20.8063 51.3198 20.8063 51.6906C20.8063 52.0615 20.8949 52.4269 21.0647 52.7566C21.2346 53.0862 21.4807 53.3705 21.7827 53.5858C22.0846 53.801 22.4337 53.941 22.8007 53.994C23.1677 54.0471 23.5421 54.0117 23.8926 53.8907C23.4348 53.7327 23.0377 53.4359 22.7565 53.0415C22.4754 52.6472 22.3243 52.1749 22.3242 51.6906Z" fill="#1F2B6C"/>
<path d="M36.5626 81.6875C36.0578 81.6869 35.5738 81.4861 35.2168 81.1291C34.8598 80.7721 34.659 80.2881 34.6584 79.7833V74.0707C34.6584 73.5657 34.8591 73.0813 35.2162 72.7242C35.5733 72.3671 36.0576 72.1665 36.5626 72.1665C37.0677 72.1665 37.552 72.3671 37.9091 72.7242C38.2662 73.0813 38.4668 73.5657 38.4668 74.0707V79.7833C38.4662 80.2881 38.2654 80.7721 37.9085 81.1291C37.5515 81.4861 37.0675 81.6869 36.5626 81.6875Z" fill="#1F2B6C"/>
<path d="M41.6404 81.6875C41.1355 81.6869 40.6515 81.4861 40.2946 81.1291C39.9376 80.7721 39.7368 80.2881 39.7362 79.7833V74.0707C39.7362 73.5657 39.9368 73.0813 40.2939 72.7242C40.651 72.3671 41.1354 72.1665 41.6404 72.1665C42.1454 72.1665 42.6297 72.3671 42.9869 72.7242C43.344 73.0813 43.5446 73.5657 43.5446 74.0707V79.7833C43.544 80.2881 43.3432 80.7721 42.9862 81.1291C42.6292 81.4861 42.1452 81.6869 41.6404 81.6875Z" fill="#1F2B6C"/>
<path d="M46.7183 81.6875C46.2134 81.6869 45.7294 81.4861 45.3725 81.1291C45.0155 80.7721 44.8147 80.2881 44.8141 79.7833V74.0707C44.8141 73.5657 45.0147 73.0813 45.3718 72.7242C45.7289 72.3671 46.2133 72.1665 46.7183 72.1665C47.2233 72.1665 47.7076 72.3671 48.0647 72.7242C48.4218 73.0813 48.6225 73.5657 48.6225 74.0707V79.7833C48.6219 80.2881 48.4211 80.7721 48.0641 81.1291C47.7071 81.4861 47.2231 81.6869 46.7183 81.6875Z" fill="#1F2B6C"/>
<path d="M54.5466 81.6875C54.0418 81.6869 53.5578 81.4861 53.2008 81.1291C52.8438 80.7721 52.643 80.2881 52.6425 79.7833V74.0707C52.6425 73.5657 52.8431 73.0813 53.2002 72.7242C53.5573 72.3671 54.0416 72.1665 54.5466 72.1665C55.0517 72.1665 55.536 72.3671 55.8931 72.7242C56.2502 73.0813 56.4508 73.5657 56.4508 74.0707V79.7833C56.4503 80.2881 56.2495 80.7721 55.8925 81.1291C55.5355 81.4861 55.0515 81.6869 54.5466 81.6875Z" fill="#1F2B6C"/>
<path d="M59.6244 81.6875C59.1196 81.6869 58.6356 81.4861 58.2786 81.1291C57.9216 80.7721 57.7208 80.2881 57.7202 79.7833V74.0707C57.7202 73.5657 57.9208 73.0813 58.2779 72.7242C58.635 72.3671 59.1194 72.1665 59.6244 72.1665C60.1294 72.1665 60.6138 72.3671 60.9709 72.7242C61.328 73.0813 61.5286 73.5657 61.5286 74.0707V79.7833C61.528 80.2881 61.3272 80.7721 60.9702 81.1291C60.6133 81.4861 60.1292 81.6869 59.6244 81.6875Z" fill="#1F2B6C"/>
<path d="M64.7023 81.6875C64.1974 81.6869 63.7134 81.4861 63.3565 81.1291C62.9995 80.7721 62.7987 80.2881 62.7981 79.7833V74.0707C62.7981 73.5657 62.9987 73.0813 63.3558 72.7242C63.7129 72.3671 64.1973 72.1665 64.7023 72.1665C65.2073 72.1665 65.6916 72.3671 66.0487 72.7242C66.4059 73.0813 66.6065 73.5657 66.6065 74.0707V79.7833C66.6059 80.2881 66.4051 80.7721 66.0481 81.1291C65.6911 81.4861 65.2071 81.6869 64.7023 81.6875Z" fill="#1F2B6C"/>
<path d="M72.5307 81.6875C72.0258 81.6869 71.5418 81.4861 71.1848 81.1291C70.8279 80.7721 70.627 80.2881 70.6265 79.7833V74.0707C70.6265 73.5657 70.8271 73.0813 71.1842 72.7242C71.5413 72.3671 72.0256 72.1665 72.5307 72.1665C73.0357 72.1665 73.52 72.3671 73.8771 72.7242C74.2342 73.0813 74.4348 73.5657 74.4348 74.0707V79.7833C74.4343 80.2881 74.2335 80.7721 73.8765 81.1291C73.5195 81.4861 73.0355 81.6869 72.5307 81.6875Z" fill="#1F2B6C"/>
<path d="M77.6084 81.6875C77.1036 81.6869 76.6196 81.4861 76.2626 81.1291C75.9056 80.7721 75.7048 80.2881 75.7042 79.7833V74.0707C75.7042 73.5657 75.9048 73.0813 76.2619 72.7242C76.6191 72.3671 77.1034 72.1665 77.6084 72.1665C78.1134 72.1665 78.5978 72.3671 78.9549 72.7242C79.312 73.0813 79.5126 73.5657 79.5126 74.0707V79.7833C79.512 80.2881 79.3112 80.7721 78.9542 81.1291C78.5973 81.4861 78.1133 81.6869 77.6084 81.6875Z" fill="#1F2B6C"/>
<path d="M82.6863 81.6875C82.1814 81.6869 81.6975 81.4861 81.3405 81.1291C80.9835 80.7721 80.7827 80.2881 80.7821 79.7833V74.0707C80.7821 73.5657 80.9827 73.0813 81.3398 72.7242C81.6969 72.3671 82.1813 72.1665 82.6863 72.1665C83.1913 72.1665 83.6757 72.3671 84.0328 72.7242C84.3899 73.0813 84.5905 73.5657 84.5905 74.0707V79.7833C84.5899 80.2881 84.3891 80.7721 84.0321 81.1291C83.6751 81.4861 83.1911 81.6869 82.6863 81.6875Z" fill="#1F2B6C"/>
<path d="M90.5145 81.6875C90.0097 81.6869 89.5257 81.4861 89.1687 81.1291C88.8117 80.7721 88.6109 80.2881 88.6104 79.7833V74.0707C88.6104 73.5657 88.811 73.0813 89.1681 72.7242C89.5252 72.3671 90.0095 72.1665 90.5145 72.1665C91.0196 72.1665 91.5039 72.3671 91.861 72.7242C92.2181 73.0813 92.4187 73.5657 92.4187 74.0707V79.7833C92.4182 80.2881 92.2174 80.7721 91.8604 81.1291C91.5034 81.4861 91.0194 81.6869 90.5145 81.6875Z" fill="#1F2B6C"/>
<path d="M95.5924 81.6875C95.0876 81.6869 94.6036 81.4861 94.2466 81.1291C93.8896 80.7721 93.6888 80.2881 93.6882 79.7833V74.0707C93.6882 73.5657 93.8889 73.0813 94.246 72.7242C94.6031 72.3671 95.0874 72.1665 95.5924 72.1665C96.0974 72.1665 96.5818 72.3671 96.9389 72.7242C97.296 73.0813 97.4966 73.5657 97.4966 74.0707V79.7833C97.496 80.2881 97.2952 80.7721 96.9383 81.1291C96.5813 81.4861 96.0973 81.6869 95.5924 81.6875Z" fill="#1F2B6C"/>
<path d="M100.67 81.6875C100.165 81.6869 99.6815 81.4861 99.3245 81.1291C98.9675 80.7721 98.7667 80.2881 98.7661 79.7833V74.0707C98.7661 73.5657 98.9667 73.0813 99.3238 72.7242C99.6809 72.3671 100.165 72.1665 100.67 72.1665C101.175 72.1665 101.66 72.3671 102.017 72.7242C102.374 73.0813 102.574 73.5657 102.574 74.0707V79.7833C102.574 80.2881 102.373 80.7721 102.016 81.1291C101.659 81.4861 101.175 81.6869 100.67 81.6875Z" fill="#1F2B6C"/>
<path d="M49.4725 102.881H22.086C21.7467 102.881 21.4212 102.746 21.1813 102.506C20.9413 102.266 20.8065 101.941 20.8065 101.601C20.8065 101.262 20.9413 100.936 21.1813 100.697C21.4212 100.457 21.7467 100.322 22.086 100.322H49.4725C49.8119 100.322 50.1373 100.457 50.3773 100.697C50.6172 100.936 50.752 101.262 50.752 101.601C50.752 101.941 50.6172 102.266 50.3773 102.506C50.1373 102.746 49.8119 102.881 49.4725 102.881Z" fill="#E6E6E6"/>
<path d="M40.6921 97.3793H30.8664C30.5271 97.3793 30.2016 97.2445 29.9617 97.0045C29.7217 96.7646 29.5869 96.4391 29.5869 96.0998C29.5869 95.7605 29.7217 95.435 29.9617 95.1951C30.2016 94.9551 30.5271 94.8203 30.8664 94.8203H40.6921C41.0314 94.8203 41.3569 94.9551 41.5968 95.1951C41.8368 95.435 41.9716 95.7605 41.9716 96.0998C41.9716 96.4391 41.8368 96.7646 41.5968 97.0045C41.3569 97.2445 41.0314 97.3793 40.6921 97.3793Z" fill="#E6E6E6"/>
<path d="M119.501 58.6255H15.1934V59.0486H119.501V58.6255Z" fill="#3F3D56"/>
</g>
<defs>
<clipPath id="clip0_235_420">
<rect width="120" height="109.451" fill="white"/>
</clipPath>
</defs>
</svg>
