<svg width="39" height="39" viewBox="0 0 39 39" fill="none" xmlns="http://www.w3.org/2000/svg">
<path d="M33.8862 0H5.11194C2.29339 0 0 2.29339 0 5.11441V33.8856C0 36.706 2.29401 39 5.11194 39H33.8862C36.7054 39 39 36.706 39 33.8856V5.11441C39 2.29401 36.7054 0 33.8862 0ZM28.7613 8.44143C25.3855 8.76826 25.1896 4.91609 25.1896 4.91609C29.1419 5.22315 28.7613 8.44143 28.7613 8.44143ZM11.8723 12.3264C12.3881 14.3386 10.9591 16.0111 9.10251 16.1495C9.03393 13.7986 10.3116 12.9102 11.8723 12.3264ZM11.8723 15.9512C12.3881 17.9616 10.9591 19.6347 9.10251 19.7725C9.03393 17.4228 10.3116 16.5338 11.8723 15.9512ZM11.8723 19.5754C12.3881 21.5852 10.9591 23.2589 9.10251 23.3954C9.03393 21.0458 10.3116 20.1592 11.8723 19.5754ZM7.50665 9.2372C8.71142 10.3907 9.53561 11.7147 8.54152 13.8444C6.89191 12.9831 6.24133 10.8812 7.50665 9.2372ZM5.41962 13.2723C6.97903 13.8573 8.25794 14.7464 8.18812 17.0966C6.33154 16.957 4.90126 15.2852 5.41962 13.2723ZM5.41962 16.8977C6.97903 17.4803 8.25794 18.3694 8.18812 20.719C6.33154 20.5818 4.90126 18.9081 5.41962 16.8977ZM5.41962 20.5213C6.97903 21.1064 8.25794 21.9917 8.18812 24.3426C6.33154 24.206 4.90126 22.5323 5.41962 20.5213ZM13.1975 34.8241L19.5 23.9045L25.8013 34.8241H13.1975ZM6.34822 27.3854L5.9491 25.9193L32.6524 18.6542L33.049 20.1215L6.34822 27.3854ZM33.4136 15.0924C33.4136 15.0924 32.4708 16.8656 31.7442 17.6589C31.3889 18.0135 30.8619 18.2662 30.3232 18.2662C29.6639 18.2662 29.077 17.9431 28.7248 17.4439C28.3727 17.9431 27.7845 18.2662 27.1253 18.2662C26.5871 18.2662 26.0601 18.0135 25.7049 17.6589C24.9777 16.8656 24.0355 15.0924 24.0355 15.0924C23.5073 14.0198 23.2243 13.1901 23.2243 12.3511C23.2243 10.5643 24.6706 9.01416 26.4617 9.01416C27.344 9.01416 28.141 9.36756 28.7255 9.93906C29.3105 9.36756 30.1057 9.01416 30.9886 9.01416C32.7797 9.01416 34.226 10.5643 34.226 12.3511C34.2254 13.1901 33.9418 14.0198 33.4136 15.0924Z" fill="#BED1F7"/>
<path d="M15.7022 33.3776H23.2984L19.5006 26.7983L15.7022 33.3776Z" fill="#BED1F7"/>
</svg>
