<svg width="342" height="242" viewBox="0 0 342 242" fill="none" xmlns="http://www.w3.org/2000/svg">
<g clip-path="url(#clip0_37_804)">
<path opacity="0.1" d="M113.446 241.572C130.064 241.572 143.535 239.409 143.535 236.74C143.535 234.071 130.064 231.907 113.446 231.907C96.8282 231.907 83.3568 234.071 83.3568 236.74C83.3568 239.409 96.8282 241.572 113.446 241.572Z" fill="#1F2B6C"/>
<path opacity="0.1" d="M277.007 241.708C297.743 241.708 314.553 239.544 314.553 236.875C314.553 234.206 297.743 232.043 277.007 232.043C256.27 232.043 239.46 234.206 239.46 236.875C239.46 239.544 256.27 241.708 277.007 241.708Z" fill="#1F2B6C"/>
<path opacity="0.1" d="M4.27375 104.435H35.6136V147.151H6.56812C6.49092 147.59 6.41681 148.031 6.33652 148.473H35.6136V182.922C35.5611 182.907 35.5148 182.888 35.4654 182.87C34.6378 182.543 33.8164 182.197 32.995 181.826L32.4701 181.588C31.6466 181.199 30.8231 180.788 29.9997 180.353C29.7125 180.202 29.4253 180.044 29.1412 179.884C24.5697 177.323 20.4168 174.078 16.8264 170.262C16.7214 170.16 16.6226 170.052 16.5176 169.953C16.0173 169.409 15.5263 168.86 15.0508 168.298L14.5258 167.68C13.9638 166.991 13.4203 166.284 12.8923 165.568C12.8151 165.463 12.741 165.358 12.6607 165.259C10.5132 162.281 8.73001 159.057 7.34938 155.656C7.30614 155.554 7.26909 155.442 7.22895 155.347C6.80486 154.256 6.42916 153.154 6.10183 152.043C5.95979 151.576 5.82392 151.116 5.70657 150.631C5.66334 150.489 5.62629 150.35 5.59232 150.211C3.83835 143.365 3.63145 136.254 3.63145 129.192C3.63145 128.367 3.63145 127.54 3.63145 126.721C3.63145 123.865 3.66542 120.99 3.71483 118.118C3.71483 117.374 3.74571 116.633 3.76115 115.886C3.80438 113.989 3.86614 112.093 3.94643 110.197C3.96496 109.669 3.98966 109.144 4.01745 108.62C4.01745 108.317 4.03289 108.014 4.06377 107.712C4.13788 106.612 4.19964 105.522 4.27375 104.435Z" fill="#1F2B6C"/>
<path opacity="0.1" d="M35.6136 56.8743H18.4228C21.2173 52.5004 24.2706 48.2974 27.5663 44.2877C30.1201 41.1504 32.8159 38.0933 35.6136 35.1473V56.8743Z" fill="#1F2B6C"/>
<path opacity="0.1" d="M35.6136 58.196V103.114H4.37257C4.37257 102.984 4.39419 102.851 4.40345 102.721C4.43124 102.366 4.45904 102.011 4.48992 101.659C4.52388 101.245 4.56094 100.829 4.60108 100.424C4.64123 100.019 4.68446 99.5254 4.73078 99.0777C4.7771 98.6299 4.82033 98.176 4.87283 97.7282C4.92532 97.2805 4.97164 96.8327 5.02722 96.388C5.08281 95.9434 5.13222 95.4925 5.19089 95.0479C5.23721 94.6773 5.28661 94.3098 5.33602 93.9393C5.40704 93.4174 5.48116 92.8924 5.56144 92.3737C5.56144 92.2965 5.58306 92.2162 5.59541 92.1421C6.15903 88.3444 6.92699 84.5798 7.89595 80.8648C8.91022 76.9677 10.2054 73.1492 11.7714 69.4393C13.4357 65.5582 15.3843 61.8054 17.6015 58.2114L35.6136 58.196Z" fill="#1F2B6C"/>
<path opacity="0.1" d="M43.0958 104.432V147.151H110.034V104.432H43.0958ZM43.0958 148.47V185.155C43.4787 185.235 43.8585 185.312 44.2352 185.377C44.7478 185.476 45.2573 185.566 45.7792 185.643C45.878 185.658 45.9799 185.674 46.088 185.683C46.2918 185.717 46.5018 185.745 46.7056 185.773C47.2213 185.844 47.7339 185.902 48.2496 185.949C48.4935 185.973 48.7406 185.995 48.9876 186.013L49.5836 186.06C49.9078 186.084 50.229 186.103 50.547 186.112C50.7447 186.112 50.9423 186.131 51.1461 186.137C51.3005 186.137 51.4549 186.137 51.6155 186.137C51.7761 186.137 52.0046 186.137 52.1991 186.137C52.4647 186.137 52.7302 186.137 52.9927 186.137H53.3478C53.6134 186.137 53.879 186.137 54.1414 186.112H54.16C54.3422 186.112 54.5274 186.112 54.7127 186.088C54.7641 186.091 54.8157 186.091 54.8671 186.088C55.0215 186.088 55.1759 186.088 55.3241 186.066H55.4322L56.4667 185.986C56.8064 185.955 57.1491 185.915 57.495 185.878L58.199 185.794C61.0634 185.393 63.8959 184.79 66.6755 183.991C72.9194 182.249 79.0274 179.813 85.2682 178.028C93.3371 175.727 102.252 174.597 110.049 177.41V148.47H43.0958ZM110.034 56.8743V0.00308927C102.705 -0.0763099 95.3965 0.780851 88.2852 2.55376C71.3353 6.81207 56.127 16.0482 43.0958 27.8443V56.8712H46.4555V58.1898H43.0958V103.114H110.034V58.1929H60.2495V56.8743H110.034ZM196.012 37.664C191.819 37.5158 187.65 36.188 183.88 34.1376C176.669 30.2158 170.91 24.1603 164.475 19.0497C151.104 8.40547 134.521 1.98248 117.51 0.389086V56.8743H213.067L213.305 56.6242L196.012 37.664ZM204.717 36.12L213.947 46.2486V33.4644C210.856 33.8473 208.148 34.7582 204.73 36.1077L204.717 36.12ZM213.947 194.264V148.47H194.28C194.227 148.275 194.175 148.078 194.113 147.88C194.172 148.078 194.221 148.275 194.277 148.47H117.522V181.588C118.251 182.129 118.97 182.697 119.684 183.274C120.453 183.892 121.212 184.544 121.975 185.183L122.744 185.819C123.111 186.128 123.482 186.436 123.856 186.727C124.597 187.328 125.345 187.921 126.101 188.505C126.474 188.814 126.857 189.092 127.237 189.382C133.267 193.993 139.628 198.153 146.268 201.83C147.756 202.653 149.258 203.457 150.773 204.242C151.783 204.757 152.799 205.27 153.818 205.767C155.35 206.514 156.894 207.235 158.45 207.929C172.799 214.37 187.972 218.79 203.535 221.062C206.991 221.572 210.461 221.974 213.944 222.266V194.261H214.253L213.947 194.264ZM117.522 58.1929V103.114H213.96V58.1929H117.522ZM117.522 104.432V147.151H213.96V104.432H117.522ZM221.445 33.4088V47.6691L233.225 34.7428C229.322 34.1129 225.395 33.663 221.445 33.3934V33.4088ZM221.445 104.448V147.151H315.242V104.432L221.445 104.448ZM314.899 197.655L315.23 148.47H221.445V222.757C227.486 223.011 233.537 222.939 239.571 222.541H239.676C242.558 222.36 245.427 222.096 248.282 221.751H248.347C263.58 219.978 278.476 216.003 292.567 209.951M333.328 111.467C332.976 110.636 332.609 109.811 332.235 108.996C331.537 107.452 330.799 105.951 330.04 104.451H322.721V147.151H341.224C341.215 135.059 338.155 122.707 333.338 111.451L333.328 111.467ZM322.721 148.485V190.79C327.934 185.794 332.337 180.078 335.508 173.544C339.322 165.676 341.067 157.156 341.209 148.479L322.721 148.485ZM322.721 92V103.117H329.354C327.348 99.2899 325.136 95.5738 322.73 91.9846L322.721 92ZM259.109 41.7896C258.621 41.6043 258.133 41.4159 257.642 41.2337C252.464 39.3214 247.172 37.7312 241.798 36.4721L223.77 56.2567L223.424 56.6242L223.656 56.8774H287.818C278.882 50.7263 269.248 45.6565 259.118 41.7741L259.109 41.7896ZM289.698 58.2083H222.76L221.445 59.4126V103.114H232.975H232.994H315.254V81.9456C307.813 72.9459 299.224 64.9604 289.708 58.1929L289.698 58.2083Z" fill="#1F2B6C"/>
<path opacity="0.1" d="M35.6136 80.8524V103.114H4.37257C4.37257 102.984 4.39419 102.851 4.40345 102.721C4.43124 102.366 4.45904 102.011 4.48992 101.659C4.52388 101.245 4.56094 100.829 4.60108 100.424C4.64123 100.019 4.68446 99.5254 4.73078 99.0777C4.7771 98.6299 4.82033 98.176 4.87283 97.7282C4.92532 97.2805 4.97164 96.8327 5.02722 96.388C5.08281 95.9434 5.13222 95.4925 5.19089 95.0478C5.23721 94.6773 5.28661 94.3098 5.33602 93.9393C5.40704 93.4174 5.48116 92.8924 5.56144 92.3737C5.56144 92.2965 5.58306 92.2162 5.59541 92.1421C6.15903 88.3444 6.92699 84.5798 7.89595 80.8648L35.6136 80.8524Z" fill="#1F2B6C"/>
<path opacity="0.1" d="M4.27375 104.435H35.6136V147.151H6.56812C6.49092 147.59 6.41681 148.031 6.33652 148.473H35.6136V182.922C35.5611 182.907 35.5148 182.888 35.4654 182.87C34.6378 182.543 33.8164 182.197 32.995 181.826L32.4701 181.588C31.6466 181.199 30.8231 180.788 29.9997 180.353C29.7125 180.202 29.4253 180.044 29.1412 179.884C24.5697 177.323 20.4168 174.078 16.8264 170.262C16.7214 170.16 16.6226 170.052 16.5176 169.953C16.0173 169.409 15.5263 168.86 15.0508 168.298L14.5258 167.68C13.9638 166.991 13.4203 166.284 12.8923 165.568C12.8151 165.463 12.741 165.358 12.6607 165.259C10.5132 162.281 8.73001 159.057 7.34938 155.656C7.30614 155.554 7.26909 155.442 7.22895 155.347C6.80486 154.256 6.42916 153.154 6.10183 152.043C5.95979 151.576 5.82392 151.116 5.70657 150.631C5.66334 150.489 5.62629 150.35 5.59232 150.211C3.83835 143.365 3.63145 136.254 3.63145 129.192C3.63145 128.367 3.63145 127.54 3.63145 126.721C3.63145 123.865 3.66542 120.99 3.71483 118.118C3.71483 117.374 3.74571 116.633 3.76115 115.886C3.80438 113.989 3.86614 112.093 3.94643 110.197C3.96496 109.669 3.98966 109.144 4.01745 108.62C4.01745 108.317 4.03289 108.014 4.06377 107.712C4.13788 106.612 4.19964 105.522 4.27375 104.435Z" fill="#1F2B6C"/>
<path opacity="0.1" d="M66.6601 64.6251V103.114H43.0958V64.6251H46.4555V51.5939H60.2464V64.6251H66.6601Z" fill="#1F2B6C"/>
<path opacity="0.1" d="M66.6601 104.432H43.0988V147.148H66.6601V104.432Z" fill="#1F2B6C"/>
<path opacity="0.1" d="M43.0958 148.473H66.6601V183.985C63.8805 184.783 61.0479 185.385 58.1836 185.785L57.4796 185.871C57.1337 185.911 56.7909 185.945 56.4513 185.979C56.1116 186.013 55.7595 186.038 55.4168 186.06H55.3087C55.1605 186.06 54.9999 186.078 54.8548 186.081H54.6973C54.512 186.081 54.3267 186.1 54.1414 186.106C53.879 186.121 53.6165 186.125 53.3478 186.128C53.2336 186.128 53.1255 186.128 53.0113 186.128C52.7457 186.128 52.4832 186.128 52.2176 186.128H51.634C51.4765 186.128 51.3252 186.128 51.1616 186.128L50.5656 186.106C50.2568 186.106 49.9233 186.072 49.6021 186.05L49.0092 186.007L48.2712 185.939C47.7524 185.893 47.2367 185.834 46.7272 185.763L46.1096 185.677L45.8008 185.634C45.2851 185.553 44.7756 185.467 44.2568 185.368C43.877 185.303 43.5003 185.223 43.1174 185.146L43.0958 148.473Z" fill="#1F2B6C"/>
<path opacity="0.1" d="M213.96 60.0796H194.53V103.111H213.96V60.0796Z" fill="#1F2B6C"/>
<path opacity="0.1" d="M213.963 104.432V147.151H117.522V128.725H168.891V139.595H194.53V104.432H213.963Z" fill="#1F2B6C"/>
<path opacity="0.1" d="M214.268 194.274H213.96V222.297C210.48 222.003 207.012 221.602 203.553 221.096C187.982 218.816 172.803 214.387 158.45 207.935C154.306 206.07 150.246 204.034 146.271 201.827C139.631 198.148 133.269 193.988 127.237 189.379C125.722 188.218 124.226 187.03 122.75 185.816C121.728 184.973 120.712 184.108 119.684 183.268C118.97 182.691 118.251 182.123 117.522 181.579V148.473H194.274C194.221 148.275 194.169 148.078 194.113 147.883C194.172 148.078 194.227 148.275 194.28 148.473H213.96V194.255C214.065 194.258 214.166 194.268 214.268 194.274Z" fill="#1F2B6C"/>
<path opacity="0.1" d="M264.633 56.8743H251.973V52.9402H257.648V41.2214C258.14 41.4005 258.63 41.5847 259.118 41.7741V52.9402H264.633V56.8743Z" fill="#1F2B6C"/>
<path opacity="0.1" d="M295.136 103.114H232.982C232.982 103.114 232.982 103.114 233.003 103.129L232.975 103.114H221.445V60.0827H224.712V91.8889H239.642V73.0522H251.976V58.196H264.636V73.0646H276.97V91.9012H295.136V103.114Z" fill="#1F2B6C"/>
<path opacity="0.1" d="M221.445 104.432V147.151H295.136V104.432H221.445ZM315.14 197.436L315.242 163.623H295.136V148.491H221.445V222.757C227.486 223.011 233.537 222.939 239.571 222.541H239.676C242.558 222.36 245.427 222.096 248.282 221.751H248.347C263.58 219.978 278.476 216.003 292.567 209.951" fill="#1F2B6C"/>
<path opacity="0.1" d="M324.03 148.473H341.221C341.07 157.147 339.328 165.667 335.518 173.535C332.346 180.072 327.94 185.788 322.733 190.781V163.607H324.03V148.473Z" fill="#1F2B6C"/>
<path opacity="0.1" d="M341.23 147.151H324.03V111.451H333.338C338.155 122.707 341.215 135.059 341.23 147.151Z" fill="#1F2B6C"/>
<path opacity="0.1" d="M213.963 72.0424H203.553V85.5338H213.963V72.0424Z" fill="#1F2B6C"/>
<path opacity="0.1" d="M213.963 100.007H203.553V103.114H213.963V100.007Z" fill="#1F2B6C"/>
<path opacity="0.1" d="M213.963 104.432H203.553V113.495H213.963V104.432Z" fill="#1F2B6C"/>
<path opacity="0.1" d="M213.963 127.972H203.553V141.463H213.963V127.972Z" fill="#1F2B6C"/>
<path opacity="0.1" d="M213.963 155.937H203.553V169.428H213.963V155.937Z" fill="#1F2B6C"/>
<path opacity="0.1" d="M213.96 194.255C214.065 194.255 214.166 194.255 214.268 194.274H213.96V197.408H203.553V183.901H213.96V194.255Z" fill="#1F2B6C"/>
<path opacity="0.1" d="M213.96 211.86V222.282C210.48 221.987 207.012 221.587 203.553 221.08V211.86H213.96Z" fill="#1F2B6C"/>
<path opacity="0.1" d="M162.134 146.16H117.522V147.151H162.134V146.16Z" fill="#1F2B6C"/>
<path opacity="0.1" d="M162.134 148.47H117.522V152.268H162.134V148.47Z" fill="#1F2B6C"/>
<path opacity="0.1" d="M162.134 164.719H117.522V170.827H162.134V164.719Z" fill="#1F2B6C"/>
<path opacity="0.1" d="M162.131 183.277V189.385H127.237C125.722 188.229 124.225 187.041 122.747 185.822C121.725 184.979 120.712 184.114 119.681 183.277H162.131Z" fill="#1F2B6C"/>
<path opacity="0.1" d="M162.131 201.833V207.935H158.447C154.307 206.068 150.248 204.031 146.271 201.824L162.131 201.833Z" fill="#1F2B6C"/>
<path opacity="0.1" d="M248.357 108.573H239.574V117.355H248.357V108.573Z" fill="#1F2B6C"/>
<path opacity="0.1" d="M58.2052 67.6544H49.423V76.4366H58.2052V67.6544Z" fill="#1F2B6C"/>
<path opacity="0.1" d="M58.2052 88.0536H49.423V96.8358H58.2052V88.0536Z" fill="#1F2B6C"/>
<path opacity="0.1" d="M58.2052 108.453H49.423V117.235H58.2052V108.453Z" fill="#1F2B6C"/>
<path opacity="0.1" d="M58.2052 128.849H49.423V137.631H58.2052V128.849Z" fill="#1F2B6C"/>
<path opacity="0.1" d="M58.2052 149.248H49.423V158.03H58.2052V149.248Z" fill="#1F2B6C"/>
<path opacity="0.1" d="M58.2052 169.647H49.423V178.429H58.2052V169.647Z" fill="#1F2B6C"/>
<path opacity="0.1" d="M281.883 108.573H273.1V117.355H281.883V108.573Z" fill="#1F2B6C"/>
<path opacity="0.1" d="M248.357 130.235H239.574V139.018H248.357V130.235Z" fill="#1F2B6C"/>
<path opacity="0.1" d="M281.883 130.235H273.1V139.018H281.883V130.235Z" fill="#1F2B6C"/>
<path opacity="0.1" d="M248.357 151.894H239.574V160.677H248.357V151.894Z" fill="#1F2B6C"/>
<path opacity="0.1" d="M281.883 151.894H273.1V160.677H281.883V151.894Z" fill="#1F2B6C"/>
<path opacity="0.1" d="M248.357 173.557H239.574V182.339H248.357V173.557Z" fill="#1F2B6C"/>
<path opacity="0.1" d="M281.883 173.557H273.1V182.339H281.883V173.557Z" fill="#1F2B6C"/>
<path opacity="0.1" d="M248.357 195.219H239.574V204.001H248.357V195.219Z" fill="#1F2B6C"/>
<path opacity="0.1" d="M281.883 195.219H273.1V204.001H281.883V195.219Z" fill="#1F2B6C"/>
<path opacity="0.1" d="M239.574 222.541V216.878H248.353V221.735L239.574 222.541Z" fill="#1F2B6C"/>
<path opacity="0.1" d="M5.55835 92.1359V97.16H35.6136V92.1359H5.55835ZM8.55369 96.8451H6.10183V92.4447H8.57221L8.55369 96.8451ZM11.5459 96.8451H9.07555V92.4447H11.5459V96.8451ZM14.532 96.8451H12.0616V92.4447H14.532V96.8451ZM17.5243 96.8451H15.057V92.4447H17.5273L17.5243 96.8451ZM20.5134 96.8451H18.043V92.4447H20.5134V96.8451ZM23.5057 96.8451H21.0353V92.4447H23.5057V96.8451ZM26.4979 96.8451H24.0275V92.4447H26.4979V96.8451ZM29.4871 96.8451H27.0167V92.4447H29.4871V96.8451ZM32.4762 96.8451H30.0058V92.4447H32.4762V96.8451ZM35.4654 96.8451H32.995V92.4447H35.4654V96.8451Z" fill="#1F2B6C"/>
<path opacity="0.1" d="M5.55835 106.754V111.778H35.6136V106.754H5.55835ZM8.55369 111.46H6.10183V107.072H8.57221L8.55369 111.46ZM11.5459 111.46H9.07555V107.072H11.5459V111.46ZM14.532 111.46H12.0616V107.072H14.532V111.46ZM17.5243 111.46H15.057V107.072H17.5273L17.5243 111.46ZM20.5134 111.46H18.043V107.072H20.5134V111.46ZM23.5057 111.46H21.0353V107.072H23.5057V111.46ZM26.4979 111.46H24.0275V107.072H26.4979V111.46ZM29.4871 111.46H27.0167V107.072H29.4871V111.46ZM32.4762 111.46H30.0058V107.072H32.4762V111.46ZM35.4654 111.46H32.995V107.072H35.4654V111.46Z" fill="#1F2B6C"/>
<path opacity="0.1" d="M5.55835 121.379V126.412H35.6136V121.379H5.55835ZM8.55369 126.085H6.10183V121.694H8.57221L8.55369 126.085ZM11.5459 126.085H9.07555V121.694H11.5459V126.085ZM14.532 126.085H12.0616V121.694H14.532V126.085ZM17.5243 126.085H15.057V121.694H17.5273L17.5243 126.085ZM20.5134 126.085H18.043V121.694H20.5134V126.085ZM23.5057 126.085H21.0353V121.694H23.5057V126.085ZM26.4979 126.085H24.0275V121.694H26.4979V126.085ZM29.4871 126.085H27.0167V121.694H29.4871V126.085ZM32.4762 126.085H30.0058V121.694H32.4762V126.085ZM35.4654 126.085H32.995V121.694H35.4654V126.085Z" fill="#1F2B6C"/>
<path opacity="0.1" d="M5.55835 136.004V141.022H35.6136V136.004H5.55835ZM8.55369 140.71H6.10183V136.316H8.57221L8.55369 140.71ZM11.5459 140.71H9.07555V136.316H11.5459V140.71ZM14.532 140.71H12.0616V136.316H14.532V140.71ZM17.5243 140.71H15.057V136.316H17.5273L17.5243 140.71ZM20.5134 140.71H18.043V136.316H20.5134V140.71ZM23.5057 140.71H21.0353V136.316H23.5057V140.71ZM26.4979 140.71H24.0275V136.316H26.4979V140.71ZM29.4871 140.71H27.0167V136.316H29.4871V140.71ZM32.4762 140.71H30.0058V136.316H32.4762V140.71ZM35.4654 140.71H32.995V136.316H35.4654V140.71Z" fill="#1F2B6C"/>
<path opacity="0.1" d="M5.68805 150.625C5.80848 151.098 5.94435 151.57 6.0864 152.036V150.94H8.55678V155.331H7.23512C7.27527 155.433 7.31541 155.544 7.35555 155.64H35.6136V150.625H5.68805ZM11.5552 155.331H9.08482V150.94H11.5552V155.331ZM14.5413 155.331H12.0709V150.94H14.5413V155.331ZM17.5335 155.331H15.057V150.94H17.5273L17.5335 155.331ZM20.5227 155.331H18.0523V150.94H20.5227V155.331ZM23.5149 155.331H21.0445V150.94H23.5149V155.331ZM26.5072 155.331H24.0368V150.94H26.5072V155.331ZM29.4963 155.331H27.0259V150.94H29.4963V155.331ZM32.4855 155.331H30.0151V150.94H32.4855V155.331ZM35.4746 155.331H33.0043V150.94H35.4746V155.331Z" fill="#1F2B6C"/>
<path opacity="0.1" d="M12.6669 165.25C12.7441 165.349 12.8182 165.46 12.8985 165.559H14.532V167.668C14.708 167.878 14.8809 168.088 15.0601 168.285V165.546H17.5304V169.953H16.5299C16.6287 170.055 16.7245 170.163 16.8387 170.262H35.6229V165.25H12.6669ZM20.5134 169.953H18.043V165.565H20.5134V169.953ZM23.5057 169.953H21.0353V165.565H23.5057V169.953ZM26.4979 169.953H24.0275V165.565H26.4979V169.953ZM29.4871 169.953H27.0167V165.565H29.4871V169.953ZM32.4762 169.953H30.0058V165.565H32.4762V169.953ZM35.4654 169.953H32.995V165.565H35.4654V169.953Z" fill="#1F2B6C"/>
<path opacity="0.1" d="M29.1536 179.871C29.4346 180.032 29.7218 180.18 30.012 180.341V180.186H32.4824V181.576L33.0074 181.82V180.186H35.4778V182.857C35.5251 182.881 35.5748 182.9 35.626 182.913V179.871H29.1536Z" fill="#1F2B6C"/>
<path opacity="0.1" d="M194.113 147.88C194.172 148.078 194.221 148.275 194.277 148.47C194.227 148.275 194.175 148.078 194.113 147.88ZM46.4678 56.8651V58.1836H60.2618V56.8651H46.4678ZM194.113 147.88C194.172 148.078 194.221 148.275 194.277 148.47C194.227 148.275 194.175 148.078 194.113 147.88ZM194.113 147.88C194.172 148.078 194.221 148.275 194.277 148.47C194.227 148.275 194.175 148.078 194.113 147.88Z" fill="#1F2B6C"/>
<path d="M142.541 117.241C142.541 117.241 141.324 117.071 141.324 115.299C141.324 113.526 140.453 110.216 140.453 110.216C140.453 110.201 139.7 104.451 138.659 103.537C137.619 102.623 136.282 97.2558 136.282 97.2558C136.282 97.2558 136.053 94.3438 135.587 93.7169C135.121 93.0901 134.491 91.5554 133.561 89.366C132.632 87.1766 128.756 85.6604 128.756 85.6604C128.756 85.6604 121.75 81.5966 119.764 80.2719C119.584 80.1631 119.415 80.0358 119.261 79.8921C118.915 79.4382 117.408 79.4289 117.408 79.4289C117.25 78.4346 117.099 77.292 117.05 76.2575C117.05 76.1464 117.05 76.0352 117.034 75.924C119.248 74.6153 120.916 72.5518 121.731 70.1125C121.768 69.9951 121.799 69.8716 121.833 69.7543C121.966 69.7106 122.088 69.6397 122.191 69.5461C122.295 69.4525 122.378 69.3383 122.435 69.2108C122.614 68.8124 122.617 68.3461 122.84 67.9756C123.099 67.5371 123.593 67.3024 123.982 66.972C124.964 66.1382 125.217 64.7332 125.171 63.4548C125.14 62.4203 124.973 61.3766 125.038 60.3483L125.057 60.0889C125.075 59.9345 125.097 59.7801 125.125 59.6319C125.276 58.8661 125.606 58.1435 125.792 57.3838C125.977 56.6242 125.996 55.7688 125.563 55.1142C124.93 54.1538 123.612 53.9624 122.454 53.8635C121.141 53.7524 119.968 53.8975 119.128 52.8075C118.735 52.2377 118.293 51.7035 117.806 51.211C117.633 51.0504 115.953 50.0252 115.953 49.9573C114.314 49.1979 112.456 49.0554 110.719 49.5558C109.849 49.809 109.027 50.2228 108.144 50.4297C106.239 50.8806 104.046 50.3927 102.428 51.4827C101.526 52.1003 100.986 53.0823 100.48 54.0396C100.068 54.828 99.65 55.6155 99.2259 56.4019C98.5435 57.6957 97.8487 59.0112 97.5615 60.444C97.5011 60.7558 97.4639 61.0716 97.4503 61.3889V61.4044C97.4503 61.5186 97.4503 61.6329 97.4503 61.7471V61.8923C97.4503 62.0004 97.4503 62.1053 97.4688 62.2011C97.4874 62.2968 97.4843 62.3277 97.4935 62.3925C97.5028 62.4574 97.5183 62.6025 97.5368 62.7013C97.5553 62.8001 97.5924 62.9731 97.6294 63.1089C97.6449 63.1676 97.6665 63.2232 97.685 63.2788C97.7159 63.3838 97.7529 63.4857 97.7931 63.5876C97.8147 63.6401 97.8363 63.6957 97.861 63.7481C97.9073 63.8562 97.9629 63.9612 98.0185 64.0569C98.0432 64.1002 98.0617 64.1403 98.0864 64.1805C98.1726 64.3241 98.2675 64.4623 98.3705 64.5943C99.0314 65.4187 100.004 65.9437 100.724 66.7157C100.724 66.7466 100.724 66.7775 100.724 66.8052C100.724 66.8917 100.724 66.9751 100.724 67.0615C100.762 68.7832 101.22 70.4696 102.058 71.9738C102.897 73.478 104.09 74.7546 105.535 75.6924C105.535 75.8098 105.55 75.9302 105.556 76.0476C105.616 76.9642 105.605 77.8841 105.522 78.7989C105.397 78.6508 105.239 78.5329 105.062 78.4538C104.884 78.3747 104.691 78.3364 104.497 78.3419C104.364 78.3354 104.231 78.3469 104.102 78.3759L104.074 78.3543V78.3821C103.395 78.5488 102.558 79.256 101.758 81.2662C101.758 81.2662 99.3247 84.0084 97.4719 83.8941C95.6192 83.7798 90.9285 86.7474 90.9285 86.7474C90.9285 86.7474 86.3521 89.718 85.3702 92.7442C84.8213 94.4603 84.1632 96.1394 83.4 97.7715L77.7429 109.429L76.6991 118.677C76.6991 118.677 77.2766 122.79 77.1623 123.417C77.0481 124.044 79.537 129.698 79.537 129.698C79.537 129.698 87.7603 144.147 91.12 144.888L91.3608 144.718C91.5046 144.793 91.657 144.85 91.8148 144.888L92.5065 144.4C92.548 144.944 92.5304 145.49 92.454 146.03C91.9908 147.457 92.6269 156.767 93.436 158.592C94.245 160.417 93.9578 184.346 93.9578 184.346L93.8436 186.458C93.8436 186.458 93.8436 186.526 93.8714 186.643L93.8436 187.144L93.9269 187.187C94.0135 187.857 93.9853 188.537 93.8436 189.197C93.5533 190.124 93.436 192.742 93.436 192.742C93.436 192.742 91.1231 207.527 92.2193 210.498C93.3155 213.469 94.2481 216.723 94.2481 216.723C94.2481 216.723 95.4061 220.429 94.3037 221.062C93.2013 221.695 90.067 222.757 90.7124 224.301C91.2991 225.728 93.5255 229.551 93.8559 230.11L93.8281 230.403L93.3742 235.322C93.4477 235.972 93.6238 236.605 93.8961 237.2C94.3932 238.271 95.3598 239.383 97.1971 239.262C97.5059 239.241 97.8641 239.204 98.21 239.157C101.573 238.707 105.714 237.206 105.714 237.206C105.499 237.069 105.302 236.906 105.127 236.721C104.962 236.561 104.831 236.369 104.742 236.157C104.653 235.944 104.609 235.716 104.611 235.486C104.661 234.59 102.984 230.323 102.567 229.273C102.502 229.122 102.468 229.035 102.468 229.035C102.468 229.035 106.291 225.039 105.655 221.497C105.655 221.497 101.425 219.027 102.817 217.671C104.21 216.316 106.699 212.422 106.699 212.422C106.699 212.422 106.813 197.862 106.699 195.688C106.58 194.179 106.651 192.661 106.912 191.17C106.958 190.945 107.014 190.726 107.072 190.51C108.998 190.797 110.943 190.945 112.89 190.951C113.6 190.951 114.323 190.951 115.052 190.908C115.052 191.114 115.061 191.336 115.08 191.575C115.24 195.182 115.54 201.506 115.784 203.856C116.129 207.225 118.041 216.303 118.041 216.303C118.041 216.303 114.394 218.644 118.677 224.412C118.677 224.412 118.677 226.503 118.393 226.806C118.09 227.795 117.845 228.801 117.661 229.819C117.482 230.906 117.408 232.006 117.698 232.577C118.393 233.942 122.562 233.831 122.562 233.831L122.664 233.812C123.451 233.731 124.246 233.807 125.003 234.035C125.761 234.264 126.466 234.64 127.076 235.143C128.66 236.415 134.673 235.856 137.927 235.452C139.203 235.291 140.055 235.143 140.055 235.143C140.096 234.999 140.111 234.848 140.098 234.698C140.064 233.899 139.438 232.145 135.188 230.579C135.188 230.579 131.193 227.893 131.248 225.552H131.165H130.702C131.038 225.533 131.254 225.552 131.254 225.552C131.254 225.552 129.689 219.839 130.328 219.376C130.967 218.913 129.053 212.582 129.053 212.582C129.053 212.582 127.956 201.96 127.898 201.216C127.9 200.577 127.997 199.942 128.185 199.332L127.898 193.508C127.898 193.508 127.842 191.572 127.898 190.942C127.888 190.395 127.844 189.849 127.765 189.308C127.737 189.092 127.709 188.867 127.678 188.644C129.176 188.265 130.149 187.913 130.149 187.913L129.976 167.64C131.248 165.17 131.483 159.75 131.477 155.906C131.477 153.435 131.366 151.607 131.366 151.607L133.104 148.769C133.104 148.769 133.506 145.373 132.869 144.628C132.588 144.292 132.715 143.943 132.947 143.656C133.067 143.56 133.194 143.474 133.326 143.396C133.326 143.396 133.308 143.368 133.286 143.328C133.408 143.227 133.537 143.135 133.672 143.054C133.672 143.054 133.055 142.096 133.607 141.692C134.126 142.044 134.589 142.309 134.941 142.525C134.917 142.751 134.892 142.881 134.892 142.881L135.04 142.572C135.38 142.763 135.587 142.881 135.587 142.881C135.587 142.881 138.31 137.455 138.252 136.655C138.193 135.855 140.105 132.486 140.105 132.486C140.105 132.486 140.336 130.717 141.38 129.976C142.424 129.235 142.189 123.865 142.189 123.865C142.189 123.865 142.479 121.067 143.174 119.925C143.869 118.782 142.541 117.241 142.541 117.241ZM90.4283 114.86L90.4808 116.154C90.172 115.657 89.9496 115.299 89.9496 115.299L90.4283 114.86Z" fill="url(#paint0_linear_37_804)"/>
<path d="M135.735 140.537L135.068 143.378C135.068 143.378 129.726 140.651 128.762 137.186C127.799 133.722 130.374 132.406 130.374 132.406L135.352 134.515L135.735 140.537Z" fill="white"/>
<path opacity="0.1" d="M135.735 140.537L135.068 143.378C135.068 143.378 129.726 140.651 128.762 137.186C127.799 133.722 130.374 132.406 130.374 132.406L135.352 134.515L135.735 140.537Z" fill="black"/>
<path d="M105.754 237.224C105.754 237.224 100.813 239.04 97.4163 239.269C95.6129 239.389 94.6649 238.284 94.177 237.218C93.9105 236.626 93.7386 235.996 93.6675 235.35L94.1091 230.456L94.3438 227.849L101.56 225.975L102.583 229.1L102.678 229.338C103.089 230.381 104.735 234.627 104.685 235.514C104.683 235.741 104.727 235.966 104.814 236.175C104.901 236.385 105.03 236.575 105.192 236.733C105.358 236.92 105.546 237.085 105.754 237.224Z" fill="white"/>
<path d="M139.502 234.735C139.515 234.884 139.5 235.034 139.459 235.177C139.459 235.177 128.892 236.94 126.73 235.177C126.121 234.662 125.411 234.28 124.645 234.056C123.879 233.831 123.075 233.769 122.284 233.874C122.284 233.874 118.195 233.985 117.513 232.639C117.229 232.074 117.303 230.977 117.479 229.897C117.658 228.884 117.898 227.883 118.195 226.898L118.359 226.768L119.332 225.987L130.72 225.651H130.807C130.751 227.979 134.673 230.65 134.673 230.65C138.838 232.194 139.453 233.939 139.502 234.735Z" fill="white"/>
<path opacity="0.1" d="M139.502 234.735C139.513 234.884 139.497 235.034 139.456 235.177C139.456 235.177 128.892 236.94 126.73 235.177C126.121 234.662 125.412 234.281 124.646 234.056C123.881 233.832 123.077 233.77 122.287 233.874C122.287 233.874 118.195 233.985 117.516 232.639C117.232 232.071 117.303 230.977 117.479 229.897C119.054 230.054 121.54 230.446 122.515 231.382C123.991 232.805 126.493 234.226 128.027 234.337C129.229 234.414 136.414 234.643 139.502 234.735Z" fill="black"/>
<path opacity="0.1" d="M105.754 237.224C105.754 237.224 100.813 239.04 97.4163 239.269C95.613 239.389 94.665 238.284 94.1801 237.215C95.437 237.638 97.1817 238.083 98.0988 237.675C99.1858 237.193 103.04 236.882 105.201 236.749C105.366 236.929 105.551 237.089 105.754 237.224Z" fill="black"/>
<path d="M113.085 90.9007C109.009 89.3166 103.765 84.0825 105.075 81.6368C105.365 81.0196 105.538 80.3535 105.584 79.6728C105.668 78.7488 105.681 77.8196 105.621 76.8937C105.529 75.3772 105.347 73.8675 105.075 72.3729C105.075 72.3729 117.8 72.66 117.059 74.5344C116.843 75.0841 116.809 76.0383 116.867 77.1067C116.926 78.1752 117.081 79.3826 117.241 80.4047C117.463 81.8066 117.686 82.8751 117.686 82.8751C117.686 82.8751 116.908 83.9651 116.451 84.0238C115.994 84.0825 118.933 93.158 113.085 90.9007Z" fill="#CF6F80"/>
<path opacity="0.1" d="M102.669 229.338L102.573 229.443C98.7689 224.842 94.1678 230.576 94.1678 230.576L94.0999 230.456L94.3345 227.849L101.551 225.975L102.573 229.1L102.669 229.338Z" fill="black"/>
<path opacity="0.1" d="M130.81 225.975C130.81 225.975 128.031 225.916 126.548 227.225C125.066 228.535 117.902 227.51 118.211 227.225C118.302 227.085 118.357 226.923 118.371 226.756L119.344 225.975L130.733 225.638C130.776 225.845 130.81 225.975 130.81 225.975Z" fill="black"/>
<path d="M107.403 189.842C107.196 190.354 107.039 190.885 106.934 191.427C106.676 192.911 106.604 194.421 106.72 195.923C106.835 198.084 106.72 212.57 106.72 212.57C106.72 212.57 104.278 216.433 102.916 217.795C101.554 219.157 105.695 221.602 105.695 221.602C106.313 225.123 102.57 229.1 102.57 229.1C98.7658 224.499 94.1647 230.236 94.1647 230.236C94.1647 230.236 91.6635 225.913 91.0397 224.369C90.4159 222.825 93.4823 221.757 94.56 221.13C95.6377 220.503 94.5075 216.807 94.5075 216.807C94.5075 216.807 93.5965 213.567 92.5157 210.612C91.435 207.657 93.7077 192.946 93.7077 192.946C93.7077 192.946 93.825 190.333 94.1061 189.423C94.2478 188.765 94.276 188.088 94.1894 187.422C94.1709 187.196 94.1493 187.008 94.1338 186.881C94.1184 186.755 94.1061 186.696 94.1061 186.696L94.1493 186.622L95.6933 183.744C95.6933 183.744 108.144 188.03 107.403 189.842Z" fill="#1F2B6C"/>
<path d="M130.81 225.635C130.81 225.635 128.03 225.577 126.548 226.87C125.066 228.164 117.902 227.155 118.211 226.87C118.52 226.586 118.495 224.483 118.495 224.483C114.292 218.746 117.877 216.418 117.877 216.418C117.877 216.418 116 207.385 115.66 204.035C115.422 201.694 115.129 195.404 114.971 191.813C114.904 190.269 114.863 189.206 114.863 189.206L118.297 188.515L118.739 188.425L127.021 186.764C127.021 186.764 127.249 188.308 127.404 189.571C127.481 190.11 127.524 190.654 127.533 191.198C127.478 191.816 127.533 193.749 127.533 193.749L127.814 199.545C127.631 200.153 127.536 200.784 127.533 201.419C127.589 202.157 128.667 212.724 128.667 212.724C128.667 212.724 130.541 219.03 129.902 219.484C129.263 219.938 130.81 225.635 130.81 225.635Z" fill="#1F2B6C"/>
<path opacity="0.1" d="M117.059 74.5344C116.843 75.0841 116.809 76.0383 116.867 77.1067C115.163 78.1332 113.203 78.658 111.214 78.6208C109.225 78.5837 107.286 77.9861 105.621 76.8967C105.529 75.3792 105.347 73.8685 105.075 72.3729C105.075 72.3729 117.8 72.6539 117.059 74.5344Z" fill="black"/>
<path d="M121.978 67.71C121.981 68.8228 121.805 69.9288 121.459 70.9864C120.686 73.356 119.099 75.3758 116.98 76.6888C114.862 78.0019 112.347 78.5236 109.88 78.1618C107.414 77.8001 105.155 76.5781 103.503 74.7118C101.85 72.8455 100.911 70.4552 100.85 67.9632C100.85 67.8768 100.85 67.7965 100.85 67.71C100.826 66.3073 101.082 64.9139 101.602 63.6111C102.122 62.3082 102.897 61.1219 103.88 60.1215C104.864 59.1211 106.036 58.3265 107.33 57.7841C108.624 57.2417 110.013 56.9623 111.416 56.9623C112.819 56.9623 114.207 57.2417 115.501 57.7841C116.795 58.3265 117.968 59.1211 118.951 60.1215C119.935 61.1219 120.709 62.3082 121.229 63.6111C121.75 64.9139 122.005 66.3073 121.981 67.71H121.978Z" fill="#CF6F80"/>
<path opacity="0.1" d="M113.085 90.9007C109.009 89.3166 103.765 84.0825 105.075 81.6368C105.365 81.0196 105.538 80.3535 105.584 79.6728L111.164 84.2585L114.616 87.0901L117.241 80.4078C117.463 81.8097 117.686 82.8781 117.686 82.8781C117.686 82.8781 116.908 83.9682 116.451 84.0269C115.994 84.0855 118.933 93.158 113.085 90.9007Z" fill="black"/>
<path d="M127.515 111.167L122.855 189.447L116.778 189.846L101.042 144.455L103.623 90.5672L104.167 79.1819L111.164 84.9286L114.619 87.7602L117.321 80.8833L122.346 85.2621L127.515 111.167Z" fill="#1F2B6C"/>
<path opacity="0.1" d="M107.403 189.843C107.196 190.354 107.039 190.885 106.933 191.427C102.511 190.744 98.2168 189.402 94.1925 187.446L94.1091 187.403L94.1369 186.906L94.1524 186.646L95.6964 183.768C95.6964 183.768 108.144 188.03 107.403 189.843Z" fill="black"/>
<path opacity="0.1" d="M118.368 191.439C117.238 191.631 116.098 191.761 114.953 191.828C114.885 190.284 114.845 189.222 114.845 189.222L118.279 188.53L118.368 191.439Z" fill="black"/>
<path opacity="0.1" d="M127.385 189.586C125.19 190.157 121.799 190.8 118.764 190.398L118.72 188.441L127.002 186.779C127.002 186.779 127.231 188.308 127.385 189.586Z" fill="black"/>
<path opacity="0.1" d="M118.708 190.757C106.047 192.918 94.4519 186.721 94.4519 186.721L94.563 184.621C94.563 184.621 94.8502 160.816 94.0535 158.991C93.2568 157.166 92.6361 147.911 93.087 146.49C93.5378 145.07 91.4411 123.769 91.4411 123.769L91.1014 115.123L78.6692 110.086L84.2276 98.5002C84.9783 96.8758 85.624 95.2048 86.1607 93.4977C87.1272 90.49 91.614 87.5348 91.614 87.5348C91.614 87.5348 96.2151 84.5827 98.0339 84.6939C99.8527 84.805 102.237 82.0814 102.237 82.0814C103.997 77.5946 105.59 79.6265 105.59 79.6265C105.59 79.8396 105.59 79.6265 105.504 80.2904C104.886 85.2157 115.49 100.779 115.642 101.054L116.651 125.653L117.673 156.783L118.708 190.757Z" fill="black"/>
<path d="M118.368 190.757C105.708 192.918 94.1091 186.721 94.1091 186.721L94.2234 184.621C94.2234 184.621 94.5106 160.816 93.7108 158.991C92.911 157.166 92.2934 147.911 92.7473 146.49C93.2013 145.07 91.1014 123.769 91.1014 123.769L90.7587 115.123L78.3203 110.068L83.8787 98.4817C84.6278 96.8566 85.2734 95.1857 85.8117 93.4792C86.7752 90.4715 91.2651 87.5163 91.2651 87.5163C91.2651 87.5163 95.8662 84.5642 97.6819 84.6753C99.4976 84.7865 101.885 82.0629 101.885 82.0629C103.648 77.5761 105.59 79.608 105.59 79.608C105.59 79.8211 105.405 79.9168 105.504 80.2719C106.862 85.049 115.151 100.761 115.302 101.035L116.324 125.634L117.346 156.764L118.368 190.757Z" fill="white"/>
<path opacity="0.1" d="M114.956 101.736C113.594 101.168 106.381 92.9326 106.381 92.9326V91.0582C106.118 90.4406 104.559 90.8173 103.293 91.2496L103.836 79.8643L104.454 80.3769C105.806 85.1509 114.799 101.462 114.956 101.736Z" fill="black"/>
<path d="M115.299 101.054C113.934 100.486 106.72 92.2501 106.72 92.2501V90.3757C106.458 89.7581 104.898 90.1349 103.632 90.5672L104.179 79.1818L104.797 79.6944C106.152 84.4684 115.147 100.782 115.299 101.054Z" fill="white"/>
<path opacity="0.1" d="M94.4519 142.127C94.6217 142.127 103.256 141.219 103.256 141.219C103.256 141.219 108.484 151.499 108.141 154C107.798 156.502 107.177 158.716 105.075 158.324C102.972 157.931 93.7571 158.632 93.7571 158.632L94.4519 142.127Z" fill="black"/>
<path d="M94.1091 141.445C94.279 141.445 102.913 140.537 102.913 140.537C102.913 140.537 108.138 150.82 107.798 153.318C107.458 155.816 106.832 158.033 104.732 157.641C102.632 157.249 93.4143 157.95 93.4143 157.95L94.1091 141.445Z" fill="white"/>
<path d="M100.615 136.618C100.615 136.618 108.539 140.876 108.709 142.177C108.879 143.477 104.676 141.608 103.768 141.383C103.171 141.239 102.562 141.144 101.949 141.099L95.894 141.262L100.615 136.618Z" fill="#CF6F80"/>
<path opacity="0.1" d="M112.745 102.268C113.206 102.268 113.579 101.894 113.579 101.434C113.579 100.973 113.206 100.6 112.745 100.6C112.285 100.6 111.911 100.973 111.911 101.434C111.911 101.894 112.285 102.268 112.745 102.268Z" fill="black"/>
<path d="M112.745 101.928C113.206 101.928 113.579 101.555 113.579 101.094C113.579 100.634 113.206 100.26 112.745 100.26C112.285 100.26 111.911 100.634 111.911 101.094C111.911 101.555 112.285 101.928 112.745 101.928Z" fill="#3F3D56"/>
<path opacity="0.1" d="M114.28 138.36C114.74 138.36 115.114 137.986 115.114 137.526C115.114 137.066 114.74 136.692 114.28 136.692C113.819 136.692 113.446 137.066 113.446 137.526C113.446 137.986 113.819 138.36 114.28 138.36Z" fill="black"/>
<path d="M114.28 138.017C114.74 138.017 115.114 137.644 115.114 137.183C115.114 136.723 114.74 136.35 114.28 136.35C113.819 136.35 113.446 136.723 113.446 137.183C113.446 137.644 113.819 138.017 114.28 138.017Z" fill="#3F3D56"/>
<path opacity="0.1" d="M113.576 120.314C114.036 120.314 114.409 119.94 114.409 119.48C114.409 119.019 114.036 118.646 113.576 118.646C113.115 118.646 112.742 119.019 112.742 119.48C112.742 119.94 113.115 120.314 113.576 120.314Z" fill="black"/>
<path d="M113.576 119.974C114.036 119.974 114.409 119.601 114.409 119.14C114.409 118.68 114.036 118.306 113.576 118.306C113.115 118.306 112.742 118.68 112.742 119.14C112.742 119.601 113.115 119.974 113.576 119.974Z" fill="#3F3D56"/>
<path d="M132.795 140.926C132.795 140.926 133.363 141.778 132.795 142.177C132.227 142.575 132.851 143.538 132.851 143.538C132.851 143.538 131.433 144.369 132.057 145.116C132.681 145.864 132.286 149.239 132.286 149.239L130.581 152.061C130.581 152.061 130.683 153.88 130.689 156.338C130.689 160.173 130.464 165.565 129.216 168.023L129.389 188.19C129.389 188.19 123.42 190.371 118.424 189.707L117.683 157.345C117.683 157.345 118.764 138.993 119.162 135.473C119.395 133.645 119.49 131.802 119.446 129.961C119.446 129.961 119.276 124.452 118.705 121.895C118.705 121.895 118.087 110.818 118.025 107.752C117.998 106.285 118.075 102.005 118.161 97.9351C118.257 93.4853 118.365 89.2888 118.365 89.2888L117.238 80.3707C117.238 80.3707 118.365 80.2565 118.705 80.7104C118.857 80.8525 119.022 80.9797 119.199 81.0902C121.144 82.4057 128.018 86.4509 128.018 86.4509C128.018 86.4509 131.823 87.9641 132.733 90.1318C133.644 92.2996 134.277 93.8374 134.719 94.455C135.161 95.0726 135.402 97.9753 135.402 97.9753C135.402 97.9753 136.711 103.317 137.733 104.222C138.755 105.127 139.502 110.883 139.502 110.883L130.47 117.985C130.47 117.985 129.676 129.8 129.507 130.257C129.337 130.714 132.795 140.926 132.795 140.926Z" fill="white"/>
<path d="M133.138 140.926C133.138 140.926 133.703 141.778 133.138 142.177C132.573 142.575 133.191 143.538 133.191 143.538C133.191 143.538 131.782 144.378 132.4 145.126C133.018 145.873 132.628 149.248 132.628 149.248L130.924 152.07C130.924 152.07 131.026 153.889 131.035 156.347C131.035 160.182 130.81 165.574 129.562 168.032L129.732 188.2C129.732 188.2 123.754 190.38 118.763 189.716L118.025 157.354C118.025 157.354 119.106 139.002 119.505 135.482C119.738 133.654 119.832 131.812 119.786 129.97C119.786 129.97 119.616 124.461 119.048 121.904C119.048 121.904 118.43 110.827 118.365 107.761C118.337 106.294 118.418 102.014 118.501 97.9444C118.597 93.4946 118.705 89.298 118.705 89.298L117.216 80.2595C117.216 80.2595 118.705 80.2595 119.048 80.7196C119.198 80.8635 119.364 80.9908 119.542 81.0995C121.487 82.415 128.364 86.4602 128.364 86.4602C128.364 86.4602 132.165 87.9733 133.076 90.1411C133.987 92.3088 134.62 93.8466 135.065 94.4642C135.51 95.0818 135.744 97.9845 135.744 97.9845C135.744 97.9845 137.054 103.327 138.076 104.231C139.098 105.136 139.836 110.88 139.836 110.88L130.803 117.982C130.803 117.982 130.01 129.797 129.837 130.254C129.664 130.711 133.138 140.926 133.138 140.926Z" fill="white"/>
<path opacity="0.1" d="M122.321 91.9197L123.136 94.2975L118.844 98.6206C118.94 94.174 119.048 89.9743 119.048 89.9743L117.559 80.9358C117.559 80.9358 119.048 80.9358 119.39 81.3959C119.541 81.5393 119.706 81.6657 119.884 81.7727L123.534 92.3027L122.321 91.9197Z" fill="black"/>
<path d="M121.978 91.2373L122.796 93.615L118.504 97.9382C118.6 93.4884 118.708 89.2919 118.708 89.2919L117.216 80.2534C117.216 80.2534 118.708 80.2534 119.048 80.7135C119.199 80.8564 119.365 80.9837 119.542 81.0933L123.195 91.6202L121.978 91.2373Z" fill="white"/>
<path opacity="0.1" d="M121.978 67.71C121.981 68.8228 121.805 69.9288 121.459 70.9864C121.401 70.9955 121.341 70.9928 121.284 70.9785C121.227 70.9641 121.173 70.9385 121.126 70.903C121.046 68.1238 119.678 65.5145 117.995 63.2942C117.522 62.6239 116.949 62.0302 116.296 61.5341C115.636 61.0382 114.815 60.8059 113.993 60.8825C113.066 61.0091 112.248 61.6391 111.312 61.7193C110.077 61.8213 108.972 60.9659 107.746 60.9226C107.247 60.9274 106.756 61.0384 106.304 61.2482C105.851 61.458 105.449 61.7618 105.124 62.1393C104.48 62.9012 104.001 63.7888 103.719 64.7456C103.233 66.1964 102.969 67.7121 102.935 69.2416C102.919 70.1063 102.836 71.1902 102.033 71.5051C102.093 70.8693 102.021 70.2277 101.821 69.6212C101.62 69.0147 101.296 68.4565 100.869 67.9818L100.85 67.9632C100.85 67.8768 100.85 67.7965 100.85 67.71C100.826 66.3073 101.082 64.9139 101.602 63.6111C102.122 62.3082 102.897 61.1219 103.88 60.1215C104.864 59.1211 106.036 58.3265 107.33 57.7841C108.624 57.2417 110.013 56.9623 111.416 56.9623C112.819 56.9623 114.207 57.2417 115.501 57.7841C116.795 58.3265 117.968 59.1211 118.951 60.1215C119.935 61.1219 120.709 62.3082 121.229 63.6111C121.75 64.9139 122.005 66.3073 121.981 67.71H121.978Z" fill="black"/>
<path d="M115.79 50.9331C114.185 50.1782 112.36 50.0355 110.658 50.5316C109.802 50.7848 108.996 51.1955 108.129 51.4024C106.276 51.8502 104.114 51.3654 102.524 52.4492C101.641 53.0668 101.11 54.0426 100.615 54.9907L99.3803 57.3437C98.7071 58.6314 98.0278 59.9407 97.7468 61.3581C97.4658 62.7754 97.6356 64.3627 98.5342 65.5021C99.1888 66.3328 100.155 66.8547 100.866 67.6359C101.291 68.1111 101.614 68.6691 101.814 69.2748C102.013 69.8806 102.086 70.5211 102.027 71.1562C102.833 70.8474 102.91 69.7604 102.928 68.8958C102.963 67.3662 103.227 65.8506 103.713 64.3997C103.995 63.4426 104.473 62.5549 105.118 61.7935C105.443 61.4162 105.846 61.1126 106.298 60.9029C106.75 60.6931 107.241 60.5819 107.739 60.5768C108.975 60.62 110.083 61.4723 111.306 61.3704C112.232 61.2932 113.054 60.6602 113.986 60.5367C114.809 60.4588 115.63 60.6912 116.29 61.1882C116.943 61.6836 117.515 62.2774 117.985 62.9484C119.671 65.1686 121.039 67.7718 121.12 70.5571C121.469 70.8134 121.972 70.4799 122.145 70.0847C122.318 69.6894 122.324 69.2262 122.543 68.8495C122.796 68.4141 123.281 68.1825 123.661 67.8552C124.624 67.0245 124.865 65.6256 124.828 64.3565C124.791 63.0873 124.544 61.7996 124.785 60.5521C124.93 59.7863 125.258 59.0699 125.437 58.3133C125.616 57.5568 125.637 56.7076 125.214 56.056C124.597 55.0987 123.297 54.9104 122.163 54.8208C120.876 54.7096 119.724 54.8517 118.902 53.7678C118.517 53.2022 118.083 52.6711 117.606 52.1806C117.442 52.02 115.79 51.001 115.79 50.9331Z" fill="#512E4E"/>
<path opacity="0.1" d="M82.2266 116.052L78.9997 110.086L77.9775 119.292C77.9775 119.292 78.5457 123.38 78.4315 124.007C78.3172 124.634 80.7598 130.254 80.7598 130.254C80.7598 130.254 88.8287 144.625 92.1235 145.366L103.256 137.412L100.304 133.663C100.304 133.663 99.2815 133.265 99.0252 133.663C99.0252 133.663 93.544 124.232 92.9758 123.55C92.4076 122.867 92.5188 121.506 92.5188 121.506C92.5188 121.506 91.6665 120.598 91.9506 119.745C92.2347 118.893 90.3047 115.938 90.3047 115.938L92.0649 114.292L82.2266 116.052Z" fill="black"/>
<path d="M79.1695 109.407L78.3172 110.086L77.2951 119.292C77.2951 119.292 77.8633 123.38 77.749 124.007C77.6348 124.634 80.0804 130.254 80.0804 130.254C80.0804 130.254 88.1462 144.625 91.4411 145.366L102.576 137.412L99.6211 133.663C99.6211 133.663 98.599 133.265 98.3427 133.663C98.3427 133.663 92.8616 124.232 92.2934 123.55C91.7252 122.867 91.8394 121.506 91.8394 121.506C91.8394 121.506 90.9872 120.598 91.2712 119.745C91.5553 118.893 89.6223 115.938 89.6223 115.938L91.3824 114.292L79.1695 109.407Z" fill="white"/>
<path opacity="0.1" d="M132.057 145.468C132.675 146.219 132.286 149.588 132.286 149.588L130.581 152.41C130.581 152.41 130.683 154.232 130.689 156.687L127.824 157.582C127.565 157.663 127.29 157.681 127.023 157.634C126.756 157.587 126.503 157.477 126.287 157.313C126.071 157.149 125.898 156.936 125.781 156.691C125.664 156.446 125.607 156.177 125.616 155.906L126.11 139.969L132.795 142.525C132.227 142.921 132.851 143.89 132.851 143.89C132.851 143.89 131.433 144.718 132.057 145.468Z" fill="black"/>
<path d="M132.4 145.126C133.018 145.876 132.629 149.248 132.629 149.248L130.924 152.07C130.924 152.07 131.026 153.889 131.035 156.347L128.117 157.258C127.863 157.337 127.595 157.354 127.333 157.308C127.071 157.262 126.825 157.154 126.613 156.993C126.402 156.833 126.232 156.624 126.117 156.384C126.003 156.144 125.947 155.881 125.955 155.615L126.453 139.629L133.141 142.186C132.57 142.581 133.194 143.548 133.194 143.548C133.194 143.548 131.782 144.378 132.4 145.126Z" fill="white"/>
<path d="M134.614 137.529C134.614 137.529 134.16 140.429 133.024 140.599C131.887 140.768 131.378 145.289 130.245 145.129C129.111 144.968 129.862 140.926 129.902 140.142C129.942 139.357 128.667 136.109 129.621 135.371C130.575 134.633 133.595 135.371 133.595 135.371L134.614 137.529Z" fill="#CF6F80"/>
<path opacity="0.1" d="M137.032 115.2L139.175 110.877C139.175 110.877 140.027 114.172 140.027 115.932C140.027 117.692 141.219 117.865 141.219 117.865C141.219 117.865 142.525 119.409 141.837 120.533C141.148 121.657 140.87 124.455 140.87 124.455C140.87 124.455 141.096 129.794 140.074 130.532C139.052 131.27 138.838 133.033 138.838 133.033C138.838 133.033 136.961 136.383 137.02 137.18C137.078 137.977 134.407 143.372 134.407 143.372C134.407 143.372 135.713 136.668 128.102 133.771C128.102 133.771 128.043 131.495 128.611 130.871C129.179 130.248 130.066 129.964 129.51 126.811C128.954 123.658 129.349 119.891 129.349 119.134C129.349 118.378 131.054 113.659 131.054 113.659L137.032 115.2Z" fill="black"/>
<path d="M137.958 110.259L139.83 110.877C139.83 110.877 140.685 114.172 140.685 115.932C140.685 117.692 141.877 117.865 141.877 117.865C141.877 117.865 143.183 119.409 142.495 120.533C141.806 121.657 141.531 124.455 141.531 124.455C141.531 124.455 141.757 129.794 140.734 130.532C139.712 131.27 139.484 133.033 139.484 133.033C139.484 133.033 137.609 136.383 137.668 137.18C137.727 137.977 135.053 143.372 135.053 143.372C135.053 143.372 136.362 136.668 128.747 133.771C128.747 133.771 128.691 131.495 129.26 130.871C129.828 130.248 130.714 129.964 130.158 126.811C129.602 123.658 129.998 119.891 129.998 119.134C129.998 118.377 131.702 113.659 131.702 113.659L137.958 110.259Z" fill="white"/>
<path opacity="0.1" d="M96.6258 222.313C96.6258 222.313 99.6088 220.438 101.567 221.8C103.524 223.162 96.6258 222.313 96.6258 222.313Z" fill="black"/>
<path opacity="0.1" d="M119.804 216.516C119.804 216.516 122.444 216.177 124.662 218.564C126.879 220.951 119.804 216.516 119.804 216.516Z" fill="black"/>
<g opacity="0.1">
<path d="M123.667 67.1789C123.287 67.5062 122.8 67.7409 122.546 68.1763C122.33 68.5499 122.324 69.01 122.151 69.4115C121.978 69.8129 121.475 70.1403 121.126 69.887C121.046 67.1079 119.674 64.4985 117.992 62.2752C117.521 61.6042 116.949 61.0104 116.296 60.515C115.635 60.0181 114.813 59.7858 113.99 59.8635C113.063 59.9901 112.248 60.62 111.312 60.6972C110.077 60.8022 108.968 59.9468 107.743 59.9036C107.244 59.9086 106.753 60.02 106.301 60.2303C105.85 60.4407 105.448 60.7452 105.124 61.1234C104.479 61.8837 104.001 62.7704 103.719 63.7265C103.234 65.1775 102.969 66.6931 102.935 68.2226C102.916 69.0842 102.836 70.1588 102.039 70.4799C102.058 70.7081 102.058 70.9373 102.039 71.1655C102.842 70.8567 102.922 69.7697 102.941 68.9051C102.975 67.3755 103.24 65.8598 103.725 64.409C104.007 63.4519 104.485 62.5642 105.13 61.8027C105.455 61.4256 105.857 61.122 106.308 60.9122C106.76 60.7024 107.251 60.5912 107.749 60.5861C108.984 60.6293 110.096 61.4816 111.318 61.3797C112.245 61.3025 113.066 60.6694 113.996 60.5459C114.819 60.4682 115.641 60.7006 116.302 61.1975C116.955 61.6928 117.527 62.2866 117.998 62.9576C119.681 65.1779 121.052 67.781 121.132 70.5664C121.481 70.8227 121.984 70.4892 122.157 70.0939C122.33 69.6987 122.336 69.2355 122.552 68.8587C122.806 68.4233 123.294 68.1917 123.673 67.8644C124.637 67.0337 124.878 65.6349 124.841 64.3657C124.841 64.3256 124.841 64.2854 124.841 64.2484C124.782 65.3477 124.489 66.4686 123.667 67.1789Z" fill="black"/>
<path d="M100.872 66.9596C100.162 66.1784 99.1919 65.6565 98.5404 64.8289C97.9917 64.0963 97.6784 63.2144 97.6418 62.2999C97.5446 63.4427 97.8637 64.5822 98.5404 65.5083C99.1919 66.339 100.162 66.8608 100.872 67.6421C101.554 68.4063 101.963 69.3749 102.036 70.3966C102.083 69.7748 102.004 69.1499 101.804 68.5594C101.604 67.9688 101.287 67.4247 100.872 66.9596Z" fill="black"/>
<path d="M125.443 57.637C125.261 58.3936 124.936 59.1131 124.788 59.8758C124.7 60.3855 124.668 60.9032 124.692 61.4198C124.703 61.1255 124.735 60.8324 124.788 60.5428C124.936 59.777 125.261 59.0606 125.443 58.304C125.549 57.8868 125.583 57.4545 125.545 57.0256C125.526 57.2316 125.491 57.436 125.443 57.637Z" fill="black"/>
</g>
<path opacity="0.1" d="M40.9867 234.868C57.6045 234.868 71.0759 232.705 71.0759 230.036C71.0759 227.367 57.6045 225.203 40.9867 225.203C24.3689 225.203 10.8975 227.367 10.8975 230.036C10.8975 232.705 24.3689 234.868 40.9867 234.868Z" fill="#1F2B6C"/>
<path d="M41.9563 137.458H40.0202V181.051H41.9563V137.458Z" fill="#535461"/>
<path d="M54.1229 180.918L54.0025 182.882L53.8296 185.661L53.7586 186.816L53.5887 189.595L53.5146 190.75L53.3417 193.53L51.3901 225.049C51.3053 226.405 50.7069 227.677 49.7167 228.608C48.7265 229.538 47.419 230.057 46.0602 230.057H35.9132C34.5547 230.057 33.2475 229.538 32.2579 228.608C31.2682 227.677 30.6705 226.404 30.5864 225.049L28.6441 193.508L28.4711 190.729L28.4001 189.574L28.2272 186.795L28.1562 185.64L27.9832 182.861L27.8597 180.897C27.8383 180.519 27.8943 180.14 28.0243 179.785C28.1543 179.429 28.3556 179.104 28.6159 178.829C28.8761 178.554 29.1898 178.335 29.5377 178.186C29.8856 178.036 30.2603 177.959 30.6389 177.96H51.3932C51.7704 177.963 52.1429 178.044 52.4877 178.197C52.8326 178.349 53.1425 178.571 53.3982 178.848C53.654 179.126 53.8503 179.452 53.975 179.808C54.0996 180.164 54.15 180.542 54.1229 180.918Z" fill="#3F3D56"/>
<path d="M54.0025 182.882L53.8296 185.652H28.1438L27.9709 182.882H54.0025Z" fill="#9D9CB5"/>
<path d="M53.7585 186.807L53.5887 189.58H28.3877L28.2148 186.807H53.7585Z" fill="#9D9CB5"/>
<path d="M53.5146 190.738L53.3448 193.508H28.6317L28.4588 190.738H53.5146Z" fill="#9D9CB5"/>
<path d="M25.0157 153.797C36.2899 161.955 40.9959 174.714 40.9959 174.714C40.9959 174.714 27.4089 174.248 16.1316 166.09C4.8543 157.931 0.157486 145.175 0.157486 145.175C0.157486 145.175 13.7384 145.638 25.0157 153.797Z" fill="#1F2B6C"/>
<path d="M0.148209 145.175C0.148209 145.175 14.2541 153.003 18.778 159.485C23.3018 165.966 40.9959 174.714 40.9959 174.714" stroke="#535461" stroke-width="0.617595" stroke-miterlimit="10"/>
<path d="M32.294 137.362C38.4298 141.8 40.9959 148.745 40.9959 148.745C40.9959 148.745 33.6002 148.491 27.4614 144.054C21.3225 139.617 18.7625 132.669 18.7625 132.669C18.7625 132.669 26.1551 132.922 32.294 137.362Z" fill="#1F2B6C"/>
<path d="M18.7625 132.669C18.7625 132.669 26.4392 136.93 28.9003 140.457C31.3615 143.983 40.9959 148.745 40.9959 148.745" stroke="#535461" stroke-width="0.617595" stroke-miterlimit="10"/>
<path d="M49.9048 148.393C42.8549 156.14 41.3634 166.266 41.3634 166.266C41.3634 166.266 51.3036 163.826 58.3473 156.075C65.391 148.325 66.8886 138.202 66.8886 138.202C66.8886 138.202 56.9546 140.645 49.9048 148.393Z" fill="#1F2B6C"/>
<path d="M66.8948 138.205C66.8948 138.205 57.7112 146.148 55.3767 151.62C53.0422 157.091 41.3634 166.266 41.3634 166.266" stroke="#535461" stroke-width="0.617595" stroke-miterlimit="10"/>
<path d="M308.696 145.666C308.696 145.666 303.597 120.301 305.549 117.145C305.549 117.145 305.62 114.212 305.503 110.472C305.503 110.33 305.503 110.188 305.503 110.043C305.846 110.272 306.204 110.478 306.574 110.661C308.372 111.584 310.437 111.851 312.41 111.414L310.866 109.694C310.496 109.283 310.11 108.839 310.03 108.295C309.949 107.752 310.172 107.267 310.363 106.782C311.83 103.077 311.907 98.4168 309.082 95.5883C306.695 93.2105 306.114 90.1411 303.523 87.9702C301.63 86.3799 300.59 84.0485 299.608 81.7943C298.777 79.889 297.94 77.9683 297.465 75.9487C297.094 74.3708 296.946 72.7372 296.436 71.1963C295.927 69.6554 294.973 68.1578 293.481 67.4692C292.95 67.2252 292.36 67.0862 291.875 66.762C291.239 66.3328 290.856 65.6349 290.396 65.0235C288.059 61.9355 280.231 63.7543 276.525 65.008C275.518 65.3238 274.585 65.8406 273.783 66.5273L273.817 66.4717C273.845 66.4254 273.879 66.3791 273.91 66.3328C273.504 66.6608 273.154 67.0517 272.872 67.4908C272.332 68.3461 272.106 69.3436 271.655 70.27C271.112 71.3662 268.089 74.4264 269.389 75.6585C269.48 75.7412 269.584 75.808 269.698 75.8561C270.186 76.0592 270.723 76.1129 271.242 76.0105L271.186 76.1433C270.742 77.2303 270.514 78.3936 270.516 79.5678C270.516 84.6414 274.7 88.7546 279.866 88.7546C280.837 88.7555 281.803 88.6066 282.729 88.313C282.75 88.4303 282.769 88.5477 282.791 88.665C282.791 88.7113 282.806 88.7577 282.812 88.804L282.648 89.0325C282.64 89.0184 282.631 89.005 282.621 88.9923L277.773 95.7674C277.031 96.2892 272.764 99.3772 272.523 101.693C272.27 104.228 272.017 107.196 272.017 107.196L271.983 107.832C271.771 108.009 271.523 108.138 271.256 108.21C270.99 108.282 270.711 108.295 270.439 108.249C268.926 108.002 268.926 113.807 268.926 113.807C268.926 113.807 267.919 114.734 267.227 113.931C266.535 113.128 264.707 115.848 264.707 115.848L253.251 116.343L252.988 116.358L252.371 114.447C252.304 114.245 252.161 114.078 251.972 113.981C251.783 113.885 251.563 113.866 251.361 113.931C251.313 113.947 251.267 113.966 251.222 113.989L251.179 114.014L251.099 114.07L251.059 114.107C251.036 114.127 251.016 114.149 250.997 114.172L250.96 114.215L250.941 114.233C250.87 114.332 250.823 114.446 250.803 114.566C250.784 114.686 250.793 114.809 250.83 114.925L251.361 116.565C249.15 117.01 246.89 118.263 248.733 121.716L239.389 119.989L242.412 122.528L258.019 125.749C257.812 126.119 257.948 126.656 258.593 127.413C261.372 130.677 266.437 131.563 268.475 131.792C269.013 132.996 269.685 134.135 270.479 135.188L270.303 138.44C270.303 138.44 265.143 163.224 264.198 164.481C264.675 163.94 265.111 163.366 265.504 162.761C264.006 167.853 261.913 174.823 261.363 175.866C260.48 177.534 259.662 184.281 260.668 184.713C260.977 184.846 261.86 184.781 263.12 184.686V185.245L263.065 206.425C263.065 206.425 263.318 219.416 262.623 220.654C261.928 221.893 261.743 224.49 261.743 224.49C261.743 224.49 258.964 229.613 256.762 231.672C256.747 231.688 256.73 231.703 256.713 231.715L256.645 231.234C256.645 231.234 253.998 234.575 248.143 234.387C248.143 234.387 244.62 236.678 249.845 236.801C255.07 236.925 261.743 236.616 261.743 236.616C261.743 236.616 266.403 229.514 270.306 230.44V235.822H271.501V230.354C272.055 229.989 272.529 229.515 272.895 228.962C273.261 228.408 273.51 227.786 273.629 227.133C273.731 226.46 273.656 225.772 273.411 225.137C273.166 224.501 272.76 223.941 272.233 223.511C271.996 223.296 271.806 223.036 271.674 222.744C271.543 222.453 271.474 222.138 271.47 221.819L271.427 221.856C271.427 221.747 271.399 221.636 271.387 221.522C271.044 218.743 270.615 213.009 272.131 208.766C274.209 202.948 274.839 194.845 273.326 190.022C272.838 188.48 272.437 186.912 272.125 185.325C272.088 185.124 272.054 184.933 272.023 184.754C273.057 184.893 274.081 185.1 275.089 185.371C278.594 186.338 286.261 186.517 292.808 186.464C292.823 186.643 292.842 186.832 292.864 187.02C292.98 188.329 293.224 189.624 293.592 190.886C294.414 193.357 294.79 204.248 294.79 204.248C294.79 204.248 295.85 213.203 295.272 216.847C294.963 218.873 294.655 220.908 294.479 222.952V222.992C294.479 222.992 292.743 227.933 291.474 230.616C291.443 230.684 291.409 230.752 291.378 230.817C291.04 230.848 290.707 230.921 290.387 231.036C290.387 231.036 288.685 234.433 286.99 234.995C285.295 235.557 285.857 237.407 289.695 236.727C293.534 236.048 299.33 235.492 299.33 235.492L299.58 232.027L300.759 230.551L300.451 234.007L301.707 233.76L301.541 229.557L303.471 227.142C303.471 227.142 305.802 225.067 302.337 220.985V221.074C302.3 221.016 302.266 220.954 302.226 220.895V220.877C301.652 219.987 301.195 218.329 302.032 215.386C303.545 210.069 304.425 205.242 304.425 205.242C304.425 205.242 307.803 192.313 303.742 186.196H303.922C303.505 185.335 303.211 184.42 303.048 183.478C303.027 183.367 303.009 183.253 302.992 183.135C305.997 182.963 308.946 182.419 311.351 181.246C311.342 181.233 309.894 150.551 308.696 145.666ZM270.55 124.266V124.328L269.932 124.359L270.55 124.266ZM268.431 124.56C268.33 124.582 268.235 124.628 268.154 124.692C267.888 125.068 267.721 125.505 267.669 125.962L266.705 125.745C266.705 125.745 266.029 125.6 265.056 125.437L264.596 124.973C265.862 124.868 267.178 124.714 268.431 124.56Z" fill="url(#paint1_linear_37_804)"/>
<path d="M300.309 229.6L299.941 233.976L301.173 233.729L300.988 228.983L300.309 229.6Z" fill="#1D2366"/>
<path d="M272.199 208.824C270.713 213.055 271.133 218.764 271.467 221.537C271.59 222.563 271.705 223.186 271.705 223.186C271.705 223.186 269.484 228.245 269.299 228.436C269.114 228.627 262.765 232.503 262.765 232.503L258.328 235.094C258.328 235.094 253.825 233.12 255.984 232.441C256.425 232.264 256.822 231.993 257.148 231.648C259.31 229.594 262.024 224.49 262.024 224.49C262.024 224.49 262.209 221.899 262.889 220.667C263.568 219.435 263.321 206.487 263.321 206.487L263.373 185.38V182.629L271.819 182.691C271.872 183.625 271.994 184.554 272.183 185.47C272.486 187.051 272.879 188.614 273.36 190.151C274.848 194.965 274.231 203.028 272.199 208.824Z" fill="#FFB0B1"/>
<path opacity="0.1" d="M271.705 223.186C271.705 223.186 269.484 228.245 269.299 228.436C269.114 228.627 262.765 232.503 262.765 232.503L258.328 235.094C258.328 235.094 253.825 233.12 255.984 232.441C256.425 232.264 256.822 231.993 257.148 231.647L257.339 232.997L258.819 232.935L271.479 221.544C271.59 222.563 271.705 223.186 271.705 223.186Z" fill="black"/>
<path d="M271.55 221.831L258.819 233.3L257.339 233.361L257.031 231.2C257.031 231.2 254.443 234.529 248.693 234.343C248.693 234.343 245.241 236.625 250.358 236.749C255.474 236.872 262.008 236.564 262.008 236.564C262.008 236.564 266.572 229.461 270.392 230.388V235.751H271.566V230.338C272.111 229.971 272.577 229.497 272.935 228.945C273.292 228.393 273.535 227.775 273.647 227.127C273.749 226.459 273.677 225.777 273.438 225.145C273.2 224.513 272.803 223.954 272.285 223.52C272.054 223.303 271.87 223.042 271.743 222.751C271.617 222.461 271.551 222.148 271.55 221.831Z" fill="#1D2366"/>
<path d="M301.482 215.42C300.661 218.354 301.108 220.006 301.67 220.892V220.911C302.391 222.005 302.893 223.229 303.146 224.514L303.196 224.792L297.403 233.238L294.259 234.473C294.259 234.473 289.204 232.747 290.128 232.253C290.359 232.132 290.72 231.49 291.134 230.604C292.369 227.933 294.074 223.004 294.074 223.004V222.964C294.253 220.929 294.537 218.9 294.852 216.881C295.417 213.246 294.38 204.325 294.38 204.325C294.38 204.325 294.009 193.477 293.206 191.01C292.844 189.755 292.603 188.469 292.487 187.168C292.32 185.624 292.283 184.352 292.283 184.352C292.283 184.352 295.612 179.72 301.714 184.723C302.202 185.122 302.631 185.587 302.989 186.106C307.204 192.103 303.81 205.313 303.81 205.313C303.81 205.313 302.961 210.118 301.482 215.42Z" fill="#FFB0B1"/>
<path opacity="0.1" d="M303.205 224.792L297.412 233.238L294.269 234.473C294.269 234.473 289.214 232.747 290.137 232.253C290.368 232.132 290.73 231.49 291.144 230.604C293.283 230.585 294.392 232.623 294.392 232.623L297.103 232.191C297.103 232.191 300.679 225.163 301.482 224.734C302.285 224.304 301.606 221.525 301.606 221.525V220.818C301.627 220.843 301.646 220.87 301.67 220.895V220.914C302.391 222.008 302.893 223.232 303.146 224.517L303.205 224.792Z" fill="black"/>
<path d="M294.577 232.805C294.577 232.805 293.033 229.971 290.075 231.018C290.075 231.018 288.411 234.414 286.746 234.964C285.082 235.514 285.638 237.366 289.399 236.69C293.16 236.014 298.829 235.455 298.829 235.455L299.076 232L302.899 227.13C302.899 227.13 305.178 225.064 301.788 220.997V221.704C301.788 221.704 302.467 224.483 301.664 224.913C300.861 225.342 297.298 232.373 297.298 232.373L294.577 232.805Z" fill="#1D2366"/>
<path opacity="0.1" d="M271.828 182.685C271.881 183.619 272.003 184.548 272.193 185.464C268.716 184.954 265.489 185.207 263.373 185.374V182.623L271.828 182.685Z" fill="black"/>
<path opacity="0.1" d="M303.332 186.875C303.332 186.875 298.391 187.116 292.499 187.165C292.332 185.621 292.295 184.349 292.295 184.349C292.295 184.349 295.624 179.717 301.726 184.72C302.214 185.119 302.643 185.584 303.001 186.103C303.097 186.366 303.207 186.624 303.332 186.875Z" fill="black"/>
<path d="M303.332 186.319C303.332 186.319 281.691 187.366 275.095 185.516C268.499 183.667 261.962 185.269 260.977 184.84C259.992 184.411 260.792 177.688 261.656 176.024C262.521 174.359 267.264 157.527 267.264 157.527L271.828 133.731L276.636 132.406L276.976 132.31L285.354 130.001L291.492 128.305C291.492 128.305 303.699 175.962 302.652 179.476C302.272 180.822 302.211 182.237 302.473 183.611C302.633 184.549 302.922 185.46 303.332 186.319Z" fill="#1D2366"/>
<path d="M255.919 117.457C255.919 117.457 251.596 122.089 254.869 124.671C258.142 127.252 260.295 124.918 260.295 124.918L255.919 117.457Z" fill="#C7DAF5"/>
<path opacity="0.1" d="M255.919 117.457C255.919 117.457 251.596 122.089 254.869 124.671C258.142 127.252 260.295 124.918 260.295 124.918L255.919 117.457Z" fill="black"/>
<path d="M290.847 87.0037C290.847 87.0037 290.341 87.4854 289.578 88.1956C288.491 89.2116 286.882 90.6969 285.455 91.9414C283.479 93.6614 281.849 94.9243 282.432 93.8466C283.016 92.7689 282.905 90.8914 282.614 89.1344C282.593 89.017 282.574 88.8997 282.553 88.7854C282.312 87.495 281.994 86.2204 281.599 84.9687C281.599 84.9687 284.791 80.8432 286.558 79.2158C287.216 78.5982 287.676 78.345 287.703 78.7742C287.734 79.3517 288.167 80.627 288.704 81.9795C288.719 82.0228 288.735 82.0629 288.753 82.1062C289.112 83.0325 289.516 83.9836 289.871 84.805C290.415 86.0649 290.847 87.0037 290.847 87.0037Z" fill="#FFB0B1"/>
<path opacity="0.1" d="M288.753 82.1062C288.453 83.72 287.725 85.2237 286.645 86.4601C285.565 87.6964 284.173 88.62 282.614 89.1344C282.369 87.7248 282.03 86.3331 281.599 84.9687C281.599 84.9687 287.611 77.2025 287.703 78.7742C287.725 79.3702 288.194 80.6919 288.753 82.1062Z" fill="black"/>
<path opacity="0.1" d="M282.016 91.2095L282.794 90.1133C282.794 90.1133 283.309 93.2568 285.205 91.8703C287.101 90.4838 287.194 102.305 287.194 102.305L285.159 132.73L270.454 131.85L270.871 117.148L272.535 109.737L276.652 98.9634L279.1 95.403L282.016 91.2095Z" fill="black"/>
<path d="M287.194 102.493L285.341 130.004L285.147 132.919L276.948 132.428L276.639 132.409L270.463 132.039L270.88 117.334L272.545 109.923L276.661 99.1487L279.11 95.5882L282.025 91.3793L282.803 90.2862C282.803 90.2862 283.319 93.4298 285.215 92.0433L285.255 92.0155C287.108 90.842 287.194 102.493 287.194 102.493Z" fill="#1D2366"/>
<path d="M272.752 107.347C272.752 107.347 272.014 108.891 270.531 108.641C269.049 108.391 269.052 114.199 269.052 114.199C269.052 114.199 268.067 115.126 267.388 114.323C266.708 113.52 264.917 116.234 264.917 116.234L253.696 116.729C253.696 116.729 258.689 119.011 257.71 125.915C257.71 125.915 274.663 124.865 275.219 123.263C275.775 121.66 272.752 107.347 272.752 107.347Z" fill="white"/>
<path opacity="0.03" d="M272.752 107.347C272.752 107.347 272.014 108.891 270.531 108.641C269.049 108.391 269.052 114.199 269.052 114.199C269.052 114.199 268.067 115.126 267.388 114.323C266.708 113.52 264.917 116.234 264.917 116.234L253.696 116.729C253.696 116.729 258.689 119.011 257.71 125.915C257.71 125.915 274.663 124.865 275.219 123.263C275.775 121.66 272.752 107.347 272.752 107.347Z" fill="black"/>
<path d="M240.139 120.357L243.098 122.883L267.449 128L264.429 124.918L240.139 120.357Z" fill="white"/>
<path d="M282.062 92.1822C281.657 92.7998 280.499 95.9619 279.533 98.7225C278.727 101.023 278.054 103.046 278.054 103.046C278.054 103.046 276.482 113.279 275.679 115.129C274.876 116.979 275.311 124.192 275.311 124.192L272.319 142.007C272.319 142.007 270.964 151.193 268.87 156.681C266.804 162.082 264.504 164.614 264.433 164.694C265.359 163.44 270.408 138.755 270.408 138.755L272.075 107.622C272.075 107.622 272.319 104.664 272.566 102.135C272.813 99.6057 277.816 96.1534 277.816 96.1534L282.639 89.295C283.124 89.9434 282.8 91.0736 282.062 92.1822Z" fill="white"/>
<path d="M269.484 132.193C269.484 132.193 262.382 131.884 258.942 127.753C255.502 123.621 266.894 126.104 266.894 126.104L269.855 126.783L269.484 132.193Z" fill="#FFB0B1"/>
<path opacity="0.1" d="M302.652 179.479C302.272 180.825 302.211 182.241 302.473 183.614C294.726 184.164 286.437 182.07 286.437 182.07C284.893 183.491 280.827 185.584 280.827 185.584L278.609 158.101C277.192 154.396 276.636 134.982 276.636 134.982C276.636 134.982 276.763 133.966 276.945 132.443C276.945 132.406 276.945 132.366 276.96 132.329C277.513 128.077 278.609 120.094 279.147 119.017C279.888 117.534 276.868 113.591 276.868 113.591L278.242 101.872L278.409 100.458C281.305 99.1641 283.526 95.0324 283.526 95.0324L285.23 92.0463C287.083 90.8575 287.179 102.508 287.179 102.508L285.326 130.019L291.465 128.324C291.465 128.324 303.699 175.965 302.652 179.479Z" fill="black"/>
<path d="M310.604 181.378C302.158 185.572 286.808 181.687 286.808 181.687C285.264 183.108 281.197 185.201 281.197 185.201L278.977 157.718C277.563 154.013 277.007 134.599 277.007 134.599C277.007 134.599 278.792 120.113 279.533 118.634C279.749 118.201 279.644 117.559 279.388 116.867C278.128 113.575 277.664 110.031 278.035 106.526L278.628 101.489L278.792 100.078C281.691 98.7812 283.912 94.6495 283.912 94.6495L285.455 91.9444L288.296 86.9604L289.643 84.6012L289.871 84.8081L291.616 86.3892C291.616 86.3892 292.357 87.0068 293.469 87.9332C295.887 89.9712 300.065 93.5594 302.22 95.755C304.116 97.6881 304.715 105.207 304.888 110.868C305.002 114.595 304.934 117.516 304.934 117.516C303.023 120.663 308.022 145.925 308.022 145.925C309.187 150.807 310.604 181.378 310.604 181.378Z" fill="white"/>
<path opacity="0.03" d="M294.392 94.5877C294.392 94.5877 288.596 105.621 289.269 109.815C289.942 114.008 291.857 118.754 290.934 119.863C290.616 120.283 290.206 120.624 289.735 120.859C289.264 121.094 288.746 121.217 288.219 121.218C287.293 121.28 284.822 123.006 284.822 123.192C284.822 123.377 282.54 123.377 280.499 124.242C278.458 125.106 275.444 125.597 275.444 125.597C275.444 125.597 269.577 125.412 269.031 125.968C268.484 126.524 267.922 129.849 269.092 132.502C270.263 135.154 271.563 137.134 272.545 137.495C273.527 137.856 279.758 135.769 284.813 135.275C289.868 134.781 295.355 130.776 295.355 130.776C295.355 130.776 301.399 128.614 302.458 124.98C303.517 121.345 301.164 101.369 301.164 101.369C301.164 101.369 299.385 92.0587 294.392 94.5877Z" fill="black"/>
<path opacity="0.03" d="M293.651 93.6614C293.651 93.6614 287.855 104.698 288.534 108.888C289.214 113.079 291.122 117.828 290.196 118.94C289.879 119.36 289.47 119.701 289 119.937C288.529 120.172 288.01 120.295 287.484 120.295C286.558 120.357 284.088 122.083 284.088 122.268C284.088 122.454 281.806 122.454 279.764 123.315C277.723 124.177 274.709 124.671 274.709 124.671C274.709 124.671 268.842 124.486 268.299 125.041C267.755 125.597 267.187 128.926 268.36 131.576C269.534 134.225 270.831 136.207 271.813 136.569C272.795 136.93 279.026 134.843 284.081 134.352C289.136 133.861 294.624 129.849 294.624 129.849C294.624 129.849 300.664 127.688 301.711 124.056C302.757 120.425 300.417 100.443 300.417 100.443C300.417 100.443 298.644 91.1354 293.651 93.6614Z" fill="black"/>
<path d="M294.21 94.0319C294.21 94.0319 288.414 105.068 289.093 109.259C289.772 113.449 291.681 118.198 290.758 119.307C290.441 119.728 290.032 120.071 289.561 120.306C289.089 120.542 288.57 120.665 288.043 120.666C287.117 120.727 284.646 122.454 284.646 122.636C284.646 122.818 282.367 122.821 280.323 123.686C278.279 124.55 275.268 125.041 275.268 125.041C275.268 125.041 269.401 124.856 268.855 125.412C268.308 125.968 267.746 129.297 268.916 131.946C270.087 134.596 271.387 136.578 272.369 136.939C273.351 137.301 279.582 135.213 284.637 134.719C289.692 134.225 295.179 130.22 295.179 130.22C295.179 130.22 301.223 128.058 302.282 124.424C303.341 120.789 301.003 100.813 301.003 100.813C301.003 100.813 299.2 91.5183 294.21 94.0319Z" fill="white"/>
<path opacity="0.1" d="M294.083 123.633C294.083 123.633 289.451 122.707 291.063 124.251C292.675 125.795 292.666 127.147 294.639 127.086C296.612 127.024 294.083 123.633 294.083 123.633Z" fill="black"/>
<path opacity="0.1" d="M301.911 156.854C301.911 156.854 299.818 158.271 303.823 161.538C307.828 164.805 301.911 156.854 301.911 156.854Z" fill="black"/>
<path opacity="0.1" d="M297.915 168.505C297.915 168.69 297.174 175.298 299.947 176.95C302.72 178.602 297.915 168.505 297.915 168.505Z" fill="black"/>
<path d="M253.887 116.713C251.651 116.79 246.822 117.473 249.326 122.145C251.54 126.28 255.261 123.516 257.355 121.419C256.844 119.464 255.603 117.78 253.887 116.713Z" fill="#FFB0B1"/>
<path opacity="0.1" d="M293.469 88.1215C291.097 89.7427 289.109 91.1107 288.719 91.3948C287.657 92.1822 285.631 96.8049 284.325 99.1641C283.285 101.063 279.903 101.551 278.628 101.672L278.792 100.26C281.691 98.9634 283.911 94.8317 283.911 94.8317L289.643 84.7834L291.616 86.5775C291.616 86.5775 292.357 87.1951 293.469 88.1215Z" fill="black"/>
<path d="M293.469 87.9363C291.097 89.5574 289.109 90.9254 288.719 91.2126C287.657 91.9969 285.631 96.6196 284.325 98.9789C283.285 100.878 279.903 101.366 278.628 101.486L278.792 100.075C281.691 98.7781 283.911 94.6464 283.911 94.6464L289.643 84.5982L291.616 86.3861C291.616 86.3861 292.357 86.9975 293.469 87.9363Z" fill="#DCE7FF"/>
<path d="M288.905 80.0681C288.906 81.9218 288.344 83.7321 287.293 85.259C286.051 87.0643 284.204 88.3649 282.086 88.9246C279.968 89.4844 277.719 89.2663 275.748 88.31C273.777 87.3536 272.214 85.7223 271.342 83.7121C270.471 81.7018 270.349 79.4459 270.999 77.3535C271.649 75.2611 273.027 73.471 274.884 72.3079C276.74 71.1448 278.952 70.6858 281.119 71.0142C283.285 71.3426 285.261 72.4366 286.69 74.0978C288.119 75.7589 288.904 77.8772 288.905 80.0681Z" fill="#FFB0B1"/>
<path opacity="0.1" d="M304.888 110.871C303.634 110.099 302.613 109.002 301.933 107.696C301.417 106.677 301.074 105.501 300.194 104.778C299.401 104.13 298.342 103.972 297.353 103.682C294.105 102.721 291.381 99.757 291.279 96.3726C291.23 94.7792 291.727 93.1889 291.502 91.6109C291.374 90.7179 291.018 89.8726 290.47 89.156C290.198 88.8133 289.9 88.4922 289.578 88.1956C289.146 87.788 288.692 87.3928 288.296 86.9604C288.047 86.6928 287.83 86.3975 287.648 86.0804C287.501 85.8209 287.382 85.5466 287.293 85.2621C286.675 83.3722 287.237 81.1304 286.558 79.2189L286.521 79.1139C286.265 78.4345 285.743 77.7552 285.017 77.7027C284.291 77.6502 283.671 78.2524 282.979 78.521C281.531 79.083 279.968 78.1258 278.761 77.15C277.553 76.1742 276.192 75.0594 274.657 75.2756C273.641 75.4207 272.838 76.1124 271.902 76.4706C271.691 76.5524 271.473 76.6154 271.251 76.659C272.043 74.6842 273.497 73.0469 275.365 72.0283C277.233 71.0097 279.397 70.6733 281.486 71.0771C283.575 71.4808 285.458 72.5995 286.812 74.2408C288.166 75.8821 288.906 77.9436 288.905 80.0712C288.906 80.7136 288.838 81.3544 288.704 81.9826C288.719 82.0259 288.735 82.066 288.753 82.1092C289.112 83.0356 289.516 83.9867 289.871 84.8081L291.616 86.3892C291.616 86.3892 292.357 87.0068 293.469 87.9332C295.887 89.9712 300.065 93.5595 302.22 95.755C304.116 97.6942 304.709 105.21 304.888 110.871Z" fill="black"/>
<path d="M271.794 70.8289C272.236 69.9303 272.455 68.9236 272.983 68.0713C273.758 66.8361 275.111 66.0456 276.5 65.567C280.129 64.3163 287.796 62.5006 290.087 65.567C290.538 66.1846 290.912 66.8701 291.536 67.2962C292.011 67.6205 292.586 67.7594 293.107 68.0034C294.568 68.6889 295.501 70.1835 295.998 71.7089C296.495 73.2344 296.643 74.871 297.008 76.4428C297.474 78.4593 298.292 80.3707 299.107 82.2698C300.068 84.5117 301.087 86.8369 302.94 88.4211C305.469 90.5826 306.028 93.6428 308.374 96.0144C311.154 98.8306 311.064 103.478 309.631 107.168C309.443 107.653 309.23 108.159 309.304 108.675C309.378 109.191 309.761 109.66 310.122 110.071L311.641 111.785C308.047 112.652 303.98 110.775 302.306 107.48C301.791 106.461 301.448 105.288 300.565 104.562C299.774 103.913 298.712 103.759 297.727 103.469C294.478 102.505 291.755 99.5378 291.653 96.1534C291.604 94.563 292.101 92.9727 291.875 91.3979C291.75 90.4988 291.393 89.6477 290.841 88.9275C289.992 87.8189 288.71 87.0747 288.018 85.8395C286.848 83.7737 287.737 81.0902 286.894 78.873C286.635 78.1937 286.116 77.5143 285.391 77.4618C284.665 77.4093 284.044 78.0115 283.349 78.2802C281.904 78.8422 280.342 77.888 279.134 76.9091C277.927 75.9302 276.565 74.8185 275.027 75.0378C274.011 75.1798 273.212 75.8715 272.276 76.2328C271.584 76.4984 270.182 76.7362 269.577 76.1525C268.299 74.976 271.26 71.9282 271.794 70.8289Z" fill="#591D4B"/>
<path opacity="0.1" d="M303.165 106.461C302.646 105.442 302.306 104.269 301.423 103.546C300.633 102.897 299.571 102.74 298.582 102.45C295.337 101.489 292.613 98.5218 292.508 95.1374C292.459 93.5471 292.956 91.9537 292.734 90.3788C292.604 89.4856 292.248 88.6403 291.699 87.9239C290.847 86.8153 289.565 86.0711 288.877 84.8359C287.707 82.7731 288.596 80.0897 287.75 77.8694C287.493 77.1932 286.972 76.5138 286.249 76.4582C285.526 76.4027 284.9 77.011 284.208 77.2797C282.763 77.8417 281.197 76.8844 279.993 75.9086C278.788 74.9328 277.42 73.818 275.886 74.0342C274.87 74.1793 274.067 74.871 273.134 75.2292C272.443 75.4948 271.038 75.7357 270.432 75.152C269.16 73.9168 272.122 70.8752 272.653 69.782C273.094 68.8804 273.313 67.8768 273.845 67.0245C273.872 66.9782 273.903 66.9318 273.934 66.8855C273.537 67.2147 273.194 67.6044 272.918 68.0404C272.39 68.8927 272.171 69.8932 271.729 70.798C271.195 71.8911 268.234 74.9421 269.509 76.168C270.127 76.7547 271.516 76.5138 272.208 76.2483C273.134 75.887 273.943 75.1953 274.959 75.0532C276.503 74.834 277.862 75.9487 279.066 76.9245C280.271 77.9003 281.846 78.8576 283.285 78.2956C283.976 78.0269 284.581 77.4217 285.323 77.4773C286.064 77.5329 286.558 78.2091 286.826 78.8885C287.669 81.1056 286.78 83.7891 287.95 85.855C288.642 87.0685 289.924 87.8282 290.773 88.9429C291.326 89.6631 291.682 90.5143 291.807 91.4133C292.033 92.9882 291.536 94.5785 291.585 96.1688C291.687 99.5656 294.411 102.521 297.659 103.484C298.638 103.774 299.706 103.929 300.497 104.577C301.383 105.303 301.732 106.476 302.239 107.495C303.912 110.79 307.979 112.668 311.573 111.8L310.857 110.991C307.741 111.037 304.588 109.265 303.165 106.461Z" fill="black"/>
<path opacity="0.1" d="M281.876 92.3675C281.472 92.9851 280.314 96.1472 279.347 98.9078C278.443 98.5558 277.621 96.3108 277.621 96.3108L282.445 89.4494C282.939 90.1287 282.614 91.2558 281.876 92.3675Z" fill="black"/>
<path d="M282.062 92.1822C281.657 92.7998 280.499 95.9619 279.533 98.7225C278.628 98.3736 277.807 96.1256 277.807 96.1256L282.63 89.2672C283.124 89.9434 282.8 91.0736 282.062 92.1822Z" fill="#DCE7FF"/>
<path d="M254.017 123.729L251.343 115.296C251.311 115.197 251.299 115.093 251.308 114.99C251.316 114.886 251.345 114.786 251.393 114.694C251.441 114.601 251.506 114.52 251.585 114.453C251.665 114.386 251.756 114.336 251.855 114.304C252.054 114.242 252.27 114.261 252.455 114.357C252.64 114.453 252.78 114.619 252.843 114.817L255.518 123.241L255.252 125.004L254.017 123.729Z" fill="#BE8B87"/>
<path opacity="0.1" d="M251.596 114.555C251.795 114.492 252.012 114.51 252.197 114.606C252.383 114.702 252.523 114.868 252.587 115.067L255.261 123.491L255.061 124.813L255.255 125.017L255.521 123.253L252.831 114.829C252.767 114.631 252.628 114.466 252.442 114.37C252.257 114.274 252.042 114.255 251.843 114.317C251.675 114.371 251.531 114.48 251.432 114.626C251.485 114.597 251.539 114.574 251.596 114.555Z" fill="white"/>
<path d="M254.017 123.729L255.518 123.253L255.298 124.699L255.252 125.017L254.814 124.56L254.017 123.729Z" fill="#EFC8C4"/>
<path d="M254.813 124.56C254.84 124.527 254.872 124.499 254.909 124.479C254.931 124.466 254.956 124.458 254.982 124.458C255.007 124.458 255.033 124.466 255.054 124.479C255.075 124.505 255.093 124.533 255.107 124.563C255.127 124.597 255.155 124.626 255.188 124.648C255.221 124.67 255.259 124.684 255.298 124.689L255.252 124.998L254.813 124.56Z" fill="#727A9C"/>
<path d="M251.327 118.291C251.327 118.291 256.691 118.26 255.428 120.542C254.165 122.824 252.192 123.099 252.192 123.099L251.327 118.291Z" fill="#FFB0B1"/>
<path d="M217.968 15.8784H217.736C208.522 15.8784 200.372 20.7543 195.685 27.9493C190.997 20.7543 182.848 15.8784 173.634 15.8784H173.402C166.487 15.9443 159.877 18.7366 155.009 23.6486C150.141 28.5605 147.408 35.1952 147.404 42.1107C147.404 50.6984 151.166 62.8835 158.5 72.9102C172.473 92.0155 195.685 108.731 195.685 108.731C195.685 108.731 218.897 92.0186 232.867 72.9102C240.204 62.8835 243.962 50.6984 243.962 42.1107C243.959 35.1957 241.226 28.5615 236.359 23.6496C231.491 18.7378 224.882 15.9451 217.968 15.8784ZM214.654 74.38C213.605 74.3761 212.581 74.0548 211.718 73.4585C210.854 72.8623 210.191 72.0188 209.816 71.0389H204.307C203.944 71.0366 203.591 70.9211 203.297 70.7085C203.003 70.496 202.783 70.1969 202.667 69.8531L200.975 64.7548L195.62 83.4649C195.516 83.8251 195.298 84.1417 194.998 84.3672C194.698 84.5927 194.334 84.7149 193.959 84.7155H193.851C193.459 84.6966 193.087 84.544 192.794 84.2832C192.502 84.0224 192.308 83.6692 192.245 83.2827L186.727 50.0931L182.694 69.7327C182.601 70.1057 182.387 70.4371 182.084 70.6738C181.781 70.9106 181.408 71.0391 181.023 71.0389H173.263C173.031 71.0487 172.798 71.0114 172.581 70.9292C172.363 70.8469 172.164 70.7215 171.996 70.5604C171.828 70.3992 171.694 70.2058 171.602 69.9916C171.511 69.7775 171.464 69.5471 171.464 69.3142C171.464 69.0814 171.511 68.851 171.602 68.6368C171.694 68.4227 171.828 68.2292 171.996 68.0681C172.164 67.907 172.363 67.7815 172.581 67.6993C172.798 67.6171 173.031 67.5798 173.263 67.5896H179.665L185.377 41.1843C185.471 40.7939 185.698 40.4482 186.018 40.2063C186.338 39.9644 186.733 39.8413 187.134 39.8581C187.535 39.8749 187.918 40.0305 188.217 40.2983C188.516 40.5661 188.713 40.9295 188.774 41.3264L194.41 75.1829L199.208 58.443C199.308 58.0905 199.519 57.7797 199.811 57.557C200.102 57.3344 200.457 57.2119 200.823 57.2078H200.857C201.22 57.2079 201.574 57.3226 201.868 57.5356C202.162 57.7485 202.381 58.0488 202.494 58.3936L205.554 67.5989H209.748C210.046 66.693 210.588 65.8872 211.316 65.2703C212.043 64.6534 212.926 64.2494 213.869 64.1029C214.811 63.9564 215.775 64.0732 216.656 64.4402C217.536 64.8072 218.297 65.4103 218.856 66.1829C219.415 66.9554 219.75 67.8675 219.824 68.8182C219.897 69.769 219.706 70.7216 219.273 71.5709C218.839 72.4202 218.179 73.1331 217.366 73.631C216.552 74.1289 215.617 74.3924 214.664 74.3924L214.654 74.38Z" fill="#1F2B6C"/>
</g>
<defs>
<linearGradient id="paint0_linear_37_804" x1="110.034" y1="239.278" x2="110.034" y2="49.2625" gradientUnits="userSpaceOnUse">
<stop stop-color="#808080" stop-opacity="0.25"/>
<stop offset="0.54" stop-color="#808080" stop-opacity="0.12"/>
<stop offset="1" stop-color="#808080" stop-opacity="0.1"/>
</linearGradient>
<linearGradient id="paint1_linear_37_804" x1="275.889" y1="236.875" x2="275.889" y2="63.3313" gradientUnits="userSpaceOnUse">
<stop stop-color="#808080" stop-opacity="0.25"/>
<stop offset="0.54" stop-color="#808080" stop-opacity="0.12"/>
<stop offset="1" stop-color="#808080" stop-opacity="0.1"/>
</linearGradient>
<clipPath id="clip0_37_804">
<rect width="341.234" height="241.708" fill="white"/>
</clipPath>
</defs>
</svg>
