<svg width="12" height="12" viewBox="0 0 12 12" fill="none" xmlns="http://www.w3.org/2000/svg">
<path d="M9.75 1.5H2.25C2.05109 1.5 1.86032 1.57902 1.71967 1.71967C1.57902 1.86032 1.5 2.05109 1.5 2.25V9.75C1.5 9.94891 1.57902 10.1397 1.71967 10.2803C1.86032 10.421 2.05109 10.5 2.25 10.5H9.75C9.94891 10.5 10.1397 10.421 10.2803 10.2803C10.421 10.1397 10.5 9.94891 10.5 9.75V2.25C10.5 2.05109 10.421 1.86032 10.2803 1.71967C10.1397 1.57902 9.94891 1.5 9.75 1.5ZM2.25 9.75V2.25H9.75V9.75H2.25Z" fill="#159EEC"/>
<path d="M5.25 8.0625L3.375 6.2025L3.97125 5.625L5.25 6.88125L8.02875 4.125L8.625 4.7175L5.25 8.0625Z" fill="#159EEC"/>
</svg>
