<svg width="38" height="38" viewBox="0 0 38 38" fill="none" xmlns="http://www.w3.org/2000/svg">
<path d="M28.6186 2.46094L35.2259 9.34844V35.5399H10.5437V35.6254H35.3102V9.43513L28.6186 2.46094Z" fill="#909090"/>
<path d="M28.537 2.375H10.4597V35.5395H35.2262V9.34919L28.537 2.375Z" fill="#F4F4F4"/>
<path d="M10.2776 4.15625H2.68945V12.2633H26.5582V4.15625H10.2776Z" fill="#7A7B7C"/>
<path d="M26.6854 12.1257H2.84399V4.0127H26.6854V12.1257Z" fill="#D30000"/>
<path d="M10.7493 5.38419H9.19727V11.0842H10.418V9.16163L10.6876 9.17707C10.9495 9.17256 11.209 9.12564 11.4559 9.03813C11.6724 8.96367 11.8715 8.84612 12.0413 8.69257C12.2141 8.54629 12.3503 8.36168 12.4391 8.15344C12.5582 7.80728 12.6008 7.4394 12.5638 7.07519C12.5564 6.81502 12.5108 6.55735 12.4285 6.31044C12.3535 6.13221 12.2422 5.97153 12.1018 5.83864C11.9613 5.70575 11.7947 5.60356 11.6126 5.53857C11.4552 5.48156 11.2925 5.4402 11.127 5.41507C11.0016 5.39572 10.875 5.3854 10.7481 5.38419M10.5237 8.10832H10.418V6.35082H10.6472C10.7484 6.34352 10.8499 6.35905 10.9442 6.39625C11.0385 6.43346 11.1233 6.49138 11.1923 6.56575C11.3351 6.75696 11.4115 6.9897 11.4096 7.22838C11.4096 7.5205 11.4096 7.78532 11.146 7.97175C10.956 8.07621 10.7399 8.12443 10.5237 8.10832ZM14.883 5.36875C14.7512 5.36875 14.623 5.37825 14.5327 5.38182L14.2501 5.38894H13.3238V11.0889H14.414C14.8306 11.1004 15.2453 11.0298 15.6347 10.8811C15.9481 10.7568 16.2256 10.5564 16.4422 10.2981C16.6528 10.0374 16.804 9.73381 16.8851 9.40863C16.9784 9.04035 17.0239 8.66159 17.0205 8.28169C17.0436 7.833 17.0088 7.38322 16.9172 6.94338C16.8303 6.61962 16.6674 6.32124 16.4422 6.07294C16.2655 5.87245 16.0492 5.71072 15.8069 5.59794C15.5988 5.50166 15.3799 5.43069 15.155 5.38657C15.0655 5.37179 14.9749 5.36503 14.8842 5.36638M14.6681 10.0416H14.5493V6.40307H14.5648C14.8096 6.3749 15.0573 6.41907 15.2773 6.53013C15.4384 6.65877 15.5696 6.82083 15.662 7.00513C15.7617 7.19909 15.8192 7.41197 15.8306 7.62975C15.8413 7.891 15.8306 8.10475 15.8306 8.28169C15.8355 8.48551 15.8224 8.68936 15.7915 8.89088C15.7549 9.09778 15.6872 9.29795 15.5908 9.48463C15.4816 9.65819 15.3342 9.80443 15.1597 9.91213C15.0132 10.0069 14.8397 10.0511 14.6657 10.038M20.6982 5.38894H17.8126V11.0889H19.0333V8.82794H20.5771V7.76869H19.0333V6.44819H20.6958V5.38894" fill="#464648"/>
<path d="M25.8648 24.0525C25.8648 24.0525 29.6506 23.3662 29.6506 24.6594C29.6506 25.9526 27.3053 25.4265 25.8648 24.0525ZM23.0659 24.1511C22.4644 24.284 21.8782 24.4786 21.3167 24.7318L21.7917 23.663C22.2667 22.5943 22.7595 21.1372 22.7595 21.1372C23.3263 22.0912 23.9858 22.9869 24.7284 23.8115C24.1684 23.895 23.6134 24.0092 23.0659 24.1535V24.1511ZM21.5673 16.4324C21.5673 15.3054 21.9318 14.9979 22.2156 14.9979C22.4994 14.9979 22.8189 15.1344 22.8296 16.1129C22.7371 17.0968 22.5311 18.0668 22.2156 19.0033C21.7835 18.217 21.5599 17.3331 21.5661 16.4359L21.5673 16.4324ZM16.0466 28.9201C14.8852 28.2254 18.4821 26.0867 19.1341 26.0179C19.1305 26.019 17.2626 29.6469 16.0466 28.9201ZM30.7561 24.8126C30.7443 24.6938 30.6374 23.3792 28.298 23.4351C27.3229 23.4193 26.3483 23.4881 25.3851 23.6405C24.452 22.7005 23.6485 21.6402 22.9958 20.4877C23.407 19.2995 23.6559 18.0612 23.7356 16.8064C23.7012 15.3814 23.3604 14.5644 22.2679 14.5763C21.1754 14.5882 21.0163 15.5441 21.1599 16.9667C21.3007 17.9227 21.5662 18.8561 21.9496 19.7431C21.9496 19.7431 21.4449 21.3142 20.7776 22.8769C20.1102 24.4397 19.6542 25.2591 19.6542 25.2591C18.4937 25.6368 17.4012 26.1981 16.4183 26.9215C15.4398 27.8324 15.0419 28.5318 15.5573 29.2312C16.0014 29.8345 17.5559 29.971 18.9453 28.1506C19.6835 27.2104 20.3579 26.2217 20.964 25.1914C20.964 25.1914 23.0825 24.6107 23.7416 24.4515C24.4006 24.2924 25.1974 24.1665 25.1974 24.1665C25.1974 24.1665 27.1319 26.1129 28.9974 26.044C30.863 25.9751 30.7728 24.9289 30.7609 24.8149" fill="#D30000"/>
<path d="M28.4456 2.4668V9.44098H35.1347L28.4456 2.4668Z" fill="#909090"/>
<path d="M28.5369 2.375V9.34919H35.2261L28.5369 2.375Z" fill="#F4F4F4"/>
<path d="M10.6578 5.29239H9.10571V10.9924H10.3312V9.07102L10.602 9.08646C10.8639 9.08195 11.1234 9.03503 11.3703 8.94752C11.5867 8.87303 11.7859 8.75548 11.9557 8.60196C12.1272 8.45529 12.2622 8.27071 12.35 8.06283C12.4691 7.71667 12.5116 7.34879 12.4747 6.98458C12.4672 6.72441 12.4216 6.46674 12.3393 6.21983C12.2643 6.0416 12.1531 5.88092 12.0126 5.74803C11.8722 5.61514 11.7056 5.51295 11.5235 5.44796C11.3653 5.3904 11.2018 5.34863 11.0354 5.32327C10.91 5.30393 10.7834 5.29361 10.6566 5.29239M10.4321 8.01652H10.3265V6.25902H10.5568C10.658 6.25173 10.7595 6.26725 10.8538 6.30446C10.9482 6.34166 11.033 6.39959 11.1019 6.47396C11.2448 6.66516 11.3211 6.8979 11.3192 7.13658C11.3192 7.42871 11.3192 7.69352 11.0556 7.87996C10.8657 7.98442 10.6495 8.03145 10.4333 8.01533M14.7915 5.27696C14.6597 5.27696 14.5314 5.28646 14.4412 5.29002L14.1621 5.29714H13.2358V10.9971H14.326C14.7426 11.0086 15.1574 10.938 15.5467 10.7893C15.8601 10.665 16.1376 10.4646 16.3542 10.2063C16.5648 9.94556 16.716 9.64201 16.7972 9.31683C16.8904 8.94855 16.9359 8.56979 16.9325 8.18989C16.9556 7.74121 16.9208 7.29142 16.8292 6.85158C16.7423 6.52783 16.5794 6.22944 16.3542 5.98115C16.1775 5.78065 15.9612 5.61892 15.7189 5.50614C15.5108 5.40986 15.2919 5.33889 15.067 5.29477C14.9775 5.27999 14.8869 5.27323 14.7962 5.27458M14.5801 9.94977H14.4613V6.31127H14.4768C14.7216 6.2831 14.9693 6.32728 15.1893 6.43833C15.3504 6.56697 15.4816 6.72903 15.574 6.91333C15.6737 7.10729 15.7312 7.32018 15.7427 7.53796C15.7533 7.79921 15.7427 8.01296 15.7427 8.18989C15.7475 8.39371 15.7344 8.59756 15.7035 8.79908C15.6669 9.00598 15.5992 9.20616 15.5028 9.39283C15.3936 9.56639 15.2462 9.71264 15.0717 9.82033C14.9252 9.91509 14.7517 9.9593 14.5777 9.94621M20.6067 5.29714H17.721V10.9971H18.9418V8.73614H20.4855V7.6769H18.9418V6.3564H20.6043V5.29714" fill="white"/>
</svg>
