<svg width="18" height="16" viewBox="0 0 18 16" fill="none" xmlns="http://www.w3.org/2000/svg">
<path d="M6.47662 0.200272C6.54001 0.235982 6.5953 0.28309 6.63934 0.338905C6.68337 0.394721 6.71528 0.458151 6.73325 0.525571C6.75122 0.592991 6.75489 0.663081 6.74406 0.731838C6.73323 0.800594 6.70811 0.866669 6.67013 0.926289L3.80587 5.4168H14.1941L11.3287 0.926289C11.2521 0.805874 11.2294 0.661735 11.2657 0.525581C11.302 0.389426 11.3942 0.272409 11.5222 0.200272C11.6502 0.128136 11.8035 0.106788 11.9482 0.140926C12.0929 0.175064 12.2173 0.261891 12.294 0.382306L15.5059 5.4168H17.4375C17.5867 5.4168 17.7298 5.47255 17.8352 5.57179C17.9407 5.67103 18 5.80562 18 5.94597V7.0043C18 7.14464 17.9407 7.27924 17.8352 7.37848C17.7298 7.47772 17.5867 7.53347 17.4375 7.53347H0.5625C0.413316 7.53347 0.270242 7.47772 0.164752 7.37848C0.0592632 7.27924 0 7.14464 0 7.0043V5.94597C0 5.80562 0.0592632 5.67103 0.164752 5.57179C0.270242 5.47255 0.413316 5.4168 0.5625 5.4168H2.49412L5.70375 0.382306C5.74171 0.322673 5.79178 0.270659 5.85112 0.229236C5.91045 0.187813 5.97787 0.157792 6.04954 0.140888C6.12121 0.123983 6.19571 0.120527 6.2688 0.130717C6.34189 0.140906 6.41325 0.164541 6.47662 0.200272ZM2.7765 15.3927L1.06088 8.5918H16.9391L15.2235 15.3927C15.1791 15.5658 15.074 15.7198 14.9253 15.83C14.7765 15.9402 14.5927 16.0001 14.4034 16.0001H3.59663C3.4071 16.0004 3.22302 15.9406 3.07404 15.8304C2.92505 15.7201 2.82097 15.566 2.7765 15.3927Z" fill="#929CAD"/>
</svg>
