<svg width="20" height="20" viewBox="0 0 20 20" fill="none" xmlns="http://www.w3.org/2000/svg">
<path d="M3.11367 2.09473H1.93916V17.3634C1.93916 17.6749 2.06291 17.9736 2.28317 18.1939C2.50343 18.4141 2.80217 18.5379 3.11367 18.5379H18.3823V17.3634H3.11367V2.09473Z" fill="#1F2B6C"/>
<path d="M18.3823 6.20508H14.2715V7.37959H16.3798L11.9225 11.8369L9.40317 9.31166C9.34858 9.25662 9.28363 9.21293 9.21207 9.18311C9.1405 9.1533 9.06375 9.13795 8.98622 9.13795C8.9087 9.13795 8.83194 9.1533 8.76038 9.18311C8.68881 9.21293 8.62386 9.25662 8.56927 9.31166L4.28818 13.5986L5.11621 14.4267L8.98622 10.5566L11.5055 13.0818C11.5601 13.1369 11.6251 13.1806 11.6967 13.2104C11.7682 13.2402 11.845 13.2555 11.9225 13.2555C12 13.2555 12.0768 13.2402 12.1483 13.2104C12.2199 13.1806 12.2849 13.1369 12.3395 13.0818L17.2078 8.20762V10.3159H18.3823V6.20508Z" fill="#1F2B6C"/>
</svg>
