<svg width="32" height="32" viewBox="0 0 32 32" fill="none" xmlns="http://www.w3.org/2000/svg">
<g clip-path="url(#clip0_1901_935)">
<path d="M11.8347 18.2243V19.9531C11.8347 22.7157 14.2548 25 17.2299 25C20.2049 25 22.625 22.7157 22.625 19.9531V19.3402C23.9914 19.0815 25.0228 17.9572 25.0228 16.6133C25.0228 15.0787 23.6782 13.8301 22.0256 13.8301C20.3729 13.8301 19.0283 15.0787 19.0283 16.6133C19.0283 17.9572 20.0597 19.0815 21.4261 19.3402V19.9531C21.4261 22.1014 19.5434 23.8867 17.2299 23.8867C14.9163 23.8867 13.0337 22.1014 13.0337 19.9531V18.2251C15.4802 17.8083 18.3036 14.9875 18.7923 12.3042C19.1129 10.5417 18.3209 9.13084 16.6304 8.42513V7.66992C16.6304 6.74909 15.8237 6 14.832 6C13.8404 6 13.0337 6.74909 13.0337 7.66992C13.0337 8.59075 13.8404 9.33984 14.832 9.33984H15.8963C17.2757 9.81406 17.8554 10.7712 17.6098 12.1189C17.1889 14.4318 14.3836 17.1699 12.4342 17.1699C10.2509 17.1699 7.21623 13.9504 7.19785 11.5664C7.18966 10.5038 7.78924 9.74185 8.95598 9.33984H10.0364C11.028 9.33984 11.8347 8.59075 11.8347 7.66992C11.8347 6.74909 11.0281 6 10.0364 6C9.04466 6 8.23799 6.74909 8.23799 7.66992V8.41894C6.79597 9.01855 5.99689 10.1421 6.00001 11.5664C6.00612 14.3576 9.12043 17.7574 11.8347 18.2243ZM21.4261 16.0566H22.625V17.1699H21.4261V16.0566Z" fill="#929CAD"/>
</g>
<defs>
<clipPath id="clip0_1901_935">
<rect width="32" height="32" fill="white"/>
</clipPath>
</defs>
</svg>
