<svg width="18" height="14" viewBox="0 0 18 14" fill="none" xmlns="http://www.w3.org/2000/svg">
<path d="M14.875 1.75H13.4872L12.6122 0.875C12.1056 0.368375 11.2166 0 10.5 0H7C6.28337 0 5.39437 0.368375 4.88775 0.875L4.01275 1.75H2.625C1.17775 1.75 0 2.92775 0 4.375V11.375C0 12.8223 1.17775 14 2.625 14H14.875C16.3223 14 17.5 12.8223 17.5 11.375V4.375C17.5 2.92775 16.3223 1.75 14.875 1.75ZM8.75 10.5C7.93766 10.4999 7.15863 10.1771 6.5843 9.60258C6.00997 9.02808 5.68738 8.24897 5.6875 7.43662C5.68762 6.62428 6.01043 5.84526 6.58492 5.27093C7.15942 4.6966 7.93853 4.37401 8.75088 4.37412C9.56322 4.37424 10.3422 4.69705 10.9166 5.27155C11.4909 5.84604 11.8135 6.62516 11.8134 7.4375C11.8133 8.24984 11.4904 9.02886 10.916 9.6032C10.3415 10.1775 9.56234 10.5001 8.75 10.5ZM14 6.38662C13.8506 6.38662 13.7027 6.3572 13.5647 6.30004C13.4267 6.24287 13.3013 6.15909 13.1957 6.05346C13.09 5.94783 13.0063 5.82244 12.9491 5.68443C12.8919 5.54642 12.8625 5.3985 12.8625 5.24912C12.8625 5.09975 12.8919 4.95183 12.9491 4.81382C13.0063 4.67581 13.09 4.55042 13.1957 4.44479C13.3013 4.33916 13.4267 4.25538 13.5647 4.19821C13.7027 4.14105 13.8506 4.11163 14 4.11163C14.3017 4.11163 14.591 4.23147 14.8043 4.44479C15.0177 4.65811 15.1375 4.94744 15.1375 5.24912C15.1375 5.55081 15.0177 5.84014 14.8043 6.05346C14.591 6.26678 14.3017 6.38662 14 6.38662Z" fill="#1F2B6C"/>
</svg>
