<svg width="19" height="15" viewBox="0 0 19 15" fill="none" xmlns="http://www.w3.org/2000/svg">
<path d="M13.4375 2.25V2.90625M13.4375 5.53125V6.1875M13.4375 8.8125V9.46875M13.4375 12.0938V12.75M5.5625 8.15625H10.1562M5.5625 10.125H8.1875M1.95312 1.59375C1.40975 1.59375 0.96875 2.03475 0.96875 2.57812V5.22588C1.3684 5.45598 1.70036 5.78734 1.93118 6.18658C2.162 6.58582 2.28353 7.03884 2.28353 7.5C2.28353 7.96116 2.162 8.41418 1.93118 8.81342C1.70036 9.21266 1.3684 9.54402 0.96875 9.77412V12.4219C0.96875 12.9652 1.40975 13.4062 1.95312 13.4062H17.0469C17.5902 13.4062 18.0312 12.9652 18.0312 12.4219V9.77412C17.6316 9.54402 17.2996 9.21266 17.0688 8.81342C16.838 8.41418 16.7165 7.96116 16.7165 7.5C16.7165 7.03884 16.838 6.58582 17.0688 6.18658C17.2996 5.78734 17.6316 5.45598 18.0312 5.22588V2.57812C18.0312 2.03475 17.5902 1.59375 17.0469 1.59375H1.95312Z" stroke="#BFD2F8" stroke-width="1.3125" stroke-linecap="round" stroke-linejoin="round"/>
</svg>
