<svg width="16" height="16" viewBox="0 0 16 16" fill="none" xmlns="http://www.w3.org/2000/svg">
<path d="M1.2606 14.5905C1.2606 13.2635 1.78772 11.9909 2.72601 11.0527C3.66429 10.1144 4.93688 9.58726 6.26381 9.58726C7.59075 9.58726 8.86334 10.1144 9.80162 11.0527C10.7399 11.9909 11.267 13.2635 11.267 14.5905H1.2606ZM6.26381 8.96185C4.19061 8.96185 2.5114 7.28265 2.5114 5.20944C2.5114 3.13624 4.19061 1.45703 6.26381 1.45703C8.33702 1.45703 10.0162 3.13624 10.0162 5.20944C10.0162 7.28265 8.33702 8.96185 6.26381 8.96185Z" stroke="#1F2B6C" stroke-width="1.2508" stroke-linecap="round" stroke-linejoin="round"/>
<path d="M10.6415 2.08203C12.1964 2.08203 13.4558 3.60131 13.4558 5.47707C13.4558 7.35283 12.1964 8.81255 10.6415 8.81255C11.6367 8.81255 12.5912 9.28947 13.2949 10.1384C13.9986 10.9873 14.3939 12.1387 14.3939 13.3393H12.7857" stroke="#1F2B6C" stroke-width="1.2508" stroke-linecap="round" stroke-linejoin="round"/>
</svg>
