<svg width="20" height="20" viewBox="0 0 20 20" fill="none" xmlns="http://www.w3.org/2000/svg">
<path d="M17.0317 5.05078H9.53167C9.42116 5.05078 9.31518 5.00688 9.23704 4.92874C9.1589 4.8506 9.115 4.74462 9.115 4.63412C9.115 4.52361 9.1589 4.41763 9.23704 4.33949C9.31518 4.26135 9.42116 4.21745 9.53167 4.21745H17.0317C17.1422 4.21745 17.2482 4.26135 17.3263 4.33949C17.4044 4.41763 17.4483 4.52361 17.4483 4.63412C17.4483 4.74462 17.4044 4.8506 17.3263 4.92874C17.2482 5.00688 17.1422 5.05078 17.0317 5.05078ZM17.0317 10.4158H9.53167C9.42116 10.4158 9.31518 10.3719 9.23704 10.2937C9.1589 10.2156 9.115 10.1096 9.115 9.99911C9.115 9.88861 9.1589 9.78263 9.23704 9.70449C9.31518 9.62635 9.42116 9.58245 9.53167 9.58245H17.0317C17.1422 9.58245 17.2482 9.62635 17.3263 9.70449C17.4044 9.78263 17.4483 9.88861 17.4483 9.99911C17.4483 10.1096 17.4044 10.2156 17.3263 10.2937C17.2482 10.3719 17.1422 10.4158 17.0317 10.4158ZM17.0317 15.7783H9.53167C9.42116 15.7783 9.31518 15.7344 9.23704 15.6562C9.1589 15.5781 9.115 15.4721 9.115 15.3616C9.115 15.2511 9.1589 15.1451 9.23704 15.067C9.31518 14.9888 9.42116 14.9449 9.53167 14.9449H17.0317C17.1422 14.9449 17.2482 14.9888 17.3263 15.067C17.4044 15.1451 17.4483 15.2511 17.4483 15.3616C17.4483 15.4721 17.4044 15.5781 17.3263 15.6562C17.2482 15.7344 17.1422 15.7783 17.0317 15.7783ZM4.635 6.71745C4.22296 6.71745 3.82016 6.59526 3.47756 6.36634C3.13496 6.13742 2.86793 5.81205 2.71025 5.43137C2.55257 5.05069 2.51131 4.6318 2.5917 4.22768C2.67208 3.82355 2.8705 3.45234 3.16186 3.16098C3.45322 2.86962 3.82444 2.6712 4.22856 2.59081C4.63269 2.51043 5.05158 2.55168 5.43226 2.70937C5.81294 2.86705 6.13831 3.13407 6.36723 3.47668C6.59615 3.81928 6.71833 4.22207 6.71833 4.63412C6.71833 4.9077 6.66445 5.17861 6.55975 5.43137C6.45505 5.68413 6.30159 5.9138 6.10814 6.10725C5.91468 6.30071 5.68502 6.45417 5.43226 6.55886C5.1795 6.66356 4.90859 6.71745 4.635 6.71745ZM4.635 3.38412C4.38777 3.38412 4.1461 3.45743 3.94054 3.59478C3.73498 3.73213 3.57476 3.92735 3.48015 4.15576C3.38554 4.38417 3.36079 4.6355 3.40902 4.87798C3.45725 5.12045 3.5763 5.34318 3.75112 5.518C3.92593 5.69281 4.14866 5.81187 4.39114 5.8601C4.63361 5.90833 4.88495 5.88357 5.11335 5.78896C5.34176 5.69436 5.53699 5.53414 5.67434 5.32858C5.81169 5.12302 5.885 4.88134 5.885 4.63412C5.885 4.30259 5.7533 3.98465 5.51888 3.75023C5.28446 3.51581 4.96652 3.38412 4.635 3.38412ZM4.635 12.0824C4.22296 12.0824 3.82016 11.9603 3.47756 11.7313C3.13496 11.5024 2.86793 11.1771 2.71025 10.7964C2.55257 10.4157 2.51131 9.9968 2.5917 9.59268C2.67208 9.18855 2.8705 8.81734 3.16186 8.52598C3.45322 8.23462 3.82444 8.0362 4.22856 7.95581C4.63269 7.87543 5.05158 7.91668 5.43226 8.07437C5.81294 8.23205 6.13831 8.49907 6.36723 8.84168C6.59615 9.18428 6.71833 9.58707 6.71833 9.99911C6.71833 10.5516 6.49884 11.0816 6.10814 11.4723C5.71744 11.863 5.18753 12.0824 4.635 12.0824ZM4.635 8.74912C4.38777 8.74912 4.1461 8.82243 3.94054 8.95978C3.73498 9.09713 3.57476 9.29235 3.48015 9.52076C3.38554 9.74917 3.36079 10.0005 3.40902 10.243C3.45725 10.4855 3.5763 10.7082 3.75112 10.883C3.92593 11.0578 4.14866 11.1769 4.39114 11.2251C4.63361 11.2733 4.88495 11.2486 5.11335 11.154C5.34176 11.0594 5.53699 10.8991 5.67434 10.6936C5.81169 10.488 5.885 10.2463 5.885 9.99911C5.885 9.66759 5.7533 9.34965 5.51888 9.11523C5.28446 8.88081 4.96652 8.74912 4.635 8.74912ZM4.635 17.4474C4.22296 17.4474 3.82016 17.3253 3.47756 17.0963C3.13496 16.8674 2.86793 16.5421 2.71025 16.1614C2.55257 15.7807 2.51131 15.3618 2.5917 14.9577C2.67208 14.5535 2.8705 14.1823 3.16186 13.891C3.45322 13.5996 3.82444 13.4012 4.22856 13.3208C4.63269 13.2404 5.05158 13.2817 5.43226 13.4394C5.81294 13.597 6.13831 13.8641 6.36723 14.2067C6.59615 14.5493 6.71833 14.9521 6.71833 15.3641C6.71833 15.9166 6.49884 16.4466 6.10814 16.8373C5.71744 17.228 5.18753 17.4474 4.635 17.4474ZM4.635 14.1141C4.38777 14.1141 4.1461 14.1874 3.94054 14.3248C3.73498 14.4621 3.57476 14.6574 3.48015 14.8858C3.38554 15.1142 3.36079 15.3655 3.40902 15.608C3.45725 15.8505 3.5763 16.0732 3.75112 16.248C3.92593 16.4228 4.14866 16.5419 4.39114 16.5901C4.63361 16.6383 4.88495 16.6136 5.11335 16.519C5.34176 16.4244 5.53699 16.2641 5.67434 16.0586C5.81169 15.853 5.885 15.6113 5.885 15.3641C5.885 15.0326 5.7533 14.7147 5.51888 14.4802C5.28446 14.2458 4.96652 14.1141 4.635 14.1141Z" fill="#BFD2F8"/>
</svg>
