<svg width="35" height="21" viewBox="0 0 35 21" fill="none" xmlns="http://www.w3.org/2000/svg">
<path d="M19.5082 3.16039C19.5082 2.93213 19.5989 2.71322 19.7603 2.55181C19.9217 2.39041 20.1406 2.29973 20.3689 2.29973H34.1393C34.3676 2.29973 34.5865 2.39041 34.7479 2.55181C34.9093 2.71322 35 2.93213 35 3.16039C35 3.38865 34.9093 3.60756 34.7479 3.76896C34.5865 3.93037 34.3676 4.02104 34.1393 4.02104H20.3689C20.1406 4.02104 19.9217 3.93037 19.7603 3.76896C19.5989 3.60756 19.5082 3.38865 19.5082 3.16039ZM34.1393 9.18497H20.3689C20.1406 9.18497 19.9217 9.27564 19.7603 9.43705C19.5989 9.59845 19.5082 9.81736 19.5082 10.0456C19.5082 10.2739 19.5989 10.4928 19.7603 10.6542C19.9217 10.8156 20.1406 10.9063 20.3689 10.9063H34.1393C34.3676 10.9063 34.5865 10.8156 34.7479 10.6542C34.9093 10.4928 35 10.2739 35 10.0456C35 9.81736 34.9093 9.59845 34.7479 9.43705C34.5865 9.27564 34.3676 9.18497 34.1393 9.18497ZM34.1393 16.0702H23.8115C23.5832 16.0702 23.3643 16.1609 23.2029 16.3223C23.0415 16.4837 22.9508 16.7026 22.9508 16.9309C22.9508 17.1591 23.0415 17.378 23.2029 17.5394C23.3643 17.7008 23.5832 17.7915 23.8115 17.7915H34.1393C34.3676 17.7915 34.5865 17.7008 34.7479 17.5394C34.9093 17.378 35 17.1591 35 16.9309C35 16.7026 34.9093 16.4837 34.7479 16.3223C34.5865 16.1609 34.3676 16.0702 34.1393 16.0702ZM20.0547 19.0108C20.083 19.1202 20.0894 19.2341 20.0736 19.3461C20.0579 19.458 20.0202 19.5657 19.9628 19.6631C19.9054 19.7605 19.8294 19.8456 19.7391 19.9135C19.6488 19.9815 19.546 20.0311 19.4365 20.0593C19.3271 20.0876 19.2131 20.094 19.1012 20.0782C18.9893 20.0625 18.8816 20.0248 18.7842 19.9674C18.6868 19.91 18.6017 19.8339 18.5337 19.7436C18.4657 19.6533 18.4162 19.5505 18.3879 19.4411C17.457 15.8249 13.947 13.2014 10.041 13.2014C6.1351 13.2014 2.62507 15.8249 1.69413 19.4397C1.66587 19.5491 1.61634 19.6519 1.54835 19.7422C1.48036 19.8325 1.39525 19.9085 1.29789 19.9659C1.20052 20.0233 1.0928 20.061 0.98087 20.0768C0.868944 20.0926 0.755007 20.0861 0.645563 20.0579C0.53612 20.0296 0.433313 19.9801 0.343013 19.9121C0.252714 19.8441 0.176689 19.759 0.119281 19.6617C0.0618719 19.5643 0.0242037 19.4566 0.00842631 19.3446C-0.00735112 19.2327 -0.000928777 19.1188 0.0273269 19.0093C0.850686 15.8134 3.3265 13.2616 6.4349 12.1241C5.2443 11.3471 4.33651 10.2064 3.84668 8.87171C3.35686 7.53707 3.31121 6.0799 3.71652 4.71721C4.12183 3.35452 4.95644 2.15917 6.09605 1.30918C7.23567 0.459185 8.61934 0 10.041 0C11.4627 0 12.8464 0.459185 13.986 1.30918C15.1256 2.15917 15.9602 3.35452 16.3656 4.71721C16.7709 6.0799 16.7252 7.53707 16.2354 8.87171C15.7456 10.2064 14.8378 11.3471 13.6472 12.1241C16.7527 13.263 19.2328 15.8149 20.0547 19.0108ZM10.041 11.48C11.0056 11.48 11.9485 11.194 12.7506 10.6581C13.5526 10.1222 14.1777 9.36053 14.5468 8.46937C14.916 7.5782 15.0125 6.59759 14.8244 5.65154C14.6362 4.70549 14.1717 3.83648 13.4896 3.15442C12.8076 2.47235 11.9386 2.00786 10.9925 1.81968C10.0464 1.63149 9.06584 1.72808 8.17467 2.09721C7.28351 2.46634 6.52182 3.09144 5.98593 3.89347C5.45003 4.69549 5.164 5.63842 5.164 6.603C5.164 7.89647 5.67783 9.13697 6.59245 10.0516C7.50707 10.9662 8.74757 11.48 10.041 11.48Z" fill="#1F2B6C"/>
</svg>
