<svg width="19" height="19" viewBox="0 0 19 19" fill="none" xmlns="http://www.w3.org/2000/svg">
<path d="M7.125 3.95832C6.91503 3.95832 6.71367 4.04173 6.5652 4.19019C6.41674 4.33866 6.33333 4.54002 6.33333 4.74999C6.33333 4.95995 6.41674 5.16131 6.5652 5.30978C6.71367 5.45825 6.91503 5.54165 7.125 5.54165C7.33496 5.54165 7.53632 5.45825 7.68479 5.30978C7.83326 5.16131 7.91666 4.95995 7.91666 4.74999C7.91666 4.54002 7.83326 4.33866 7.68479 4.19019C7.53632 4.04173 7.33496 3.95832 7.125 3.95832ZM4.88458 3.95832C5.04814 3.49477 5.35146 3.09337 5.75272 2.80945C6.15399 2.52552 6.63344 2.37305 7.125 2.37305C7.61655 2.37305 8.09601 2.52552 8.49727 2.80945C8.89854 3.09337 9.20185 3.49477 9.36541 3.95832H15.0417C15.2516 3.95832 15.453 4.04173 15.6015 4.19019C15.7499 4.33866 15.8333 4.54002 15.8333 4.74999C15.8333 4.95995 15.7499 5.16131 15.6015 5.30978C15.453 5.45825 15.2516 5.54165 15.0417 5.54165H9.36541C9.20185 6.0052 8.89854 6.4066 8.49727 6.69053C8.09601 6.97446 7.61655 7.12693 7.125 7.12693C6.63344 7.12693 6.15399 6.97446 5.75272 6.69053C5.35146 6.4066 5.04814 6.0052 4.88458 5.54165H3.95833C3.74837 5.54165 3.547 5.45825 3.39854 5.30978C3.25007 5.16131 3.16666 4.95995 3.16666 4.74999C3.16666 4.54002 3.25007 4.33866 3.39854 4.19019C3.547 4.04173 3.74837 3.95832 3.95833 3.95832H4.88458ZM11.875 8.70832C11.665 8.70832 11.4637 8.79173 11.3152 8.94019C11.1667 9.08866 11.0833 9.29002 11.0833 9.49999C11.0833 9.70995 11.1667 9.91131 11.3152 10.0598C11.4637 10.2082 11.665 10.2917 11.875 10.2917C12.085 10.2917 12.2863 10.2082 12.4348 10.0598C12.5833 9.91131 12.6667 9.70995 12.6667 9.49999C12.6667 9.29002 12.5833 9.08866 12.4348 8.94019C12.2863 8.79173 12.085 8.70832 11.875 8.70832ZM9.63458 8.70832C9.79814 8.24477 10.1015 7.84337 10.5027 7.55944C10.904 7.27552 11.3834 7.12305 11.875 7.12305C12.3666 7.12305 12.846 7.27552 13.2473 7.55944C13.6485 7.84337 13.9519 8.24477 14.1154 8.70832H15.0417C15.2516 8.70832 15.453 8.79173 15.6015 8.94019C15.7499 9.08866 15.8333 9.29002 15.8333 9.49999C15.8333 9.70995 15.7499 9.91131 15.6015 10.0598C15.453 10.2082 15.2516 10.2917 15.0417 10.2917H14.1154C13.9519 10.7552 13.6485 11.1566 13.2473 11.4405C12.846 11.7245 12.3666 11.8769 11.875 11.8769C11.3834 11.8769 10.904 11.7245 10.5027 11.4405C10.1015 11.1566 9.79814 10.7552 9.63458 10.2917H3.95833C3.74837 10.2917 3.547 10.2082 3.39854 10.0598C3.25007 9.91131 3.16666 9.70995 3.16666 9.49999C3.16666 9.29002 3.25007 9.08866 3.39854 8.94019C3.547 8.79173 3.74837 8.70832 3.95833 8.70832H9.63458ZM7.125 13.4583C6.91503 13.4583 6.71367 13.5417 6.5652 13.6902C6.41674 13.8387 6.33333 14.04 6.33333 14.25C6.33333 14.46 6.41674 14.6613 6.5652 14.8098C6.71367 14.9582 6.91503 15.0417 7.125 15.0417C7.33496 15.0417 7.53632 14.9582 7.68479 14.8098C7.83326 14.6613 7.91666 14.46 7.91666 14.25C7.91666 14.04 7.83326 13.8387 7.68479 13.6902C7.53632 13.5417 7.33496 13.4583 7.125 13.4583ZM4.88458 13.4583C5.04814 12.9948 5.35146 12.5934 5.75272 12.3094C6.15399 12.0255 6.63344 11.873 7.125 11.873C7.61655 11.873 8.09601 12.0255 8.49727 12.3094C8.89854 12.5934 9.20185 12.9948 9.36541 13.4583H15.0417C15.2516 13.4583 15.453 13.5417 15.6015 13.6902C15.7499 13.8387 15.8333 14.04 15.8333 14.25C15.8333 14.46 15.7499 14.6613 15.6015 14.8098C15.453 14.9582 15.2516 15.0417 15.0417 15.0417H9.36541C9.20185 15.5052 8.89854 15.9066 8.49727 16.1905C8.09601 16.4745 7.61655 16.6269 7.125 16.6269C6.63344 16.6269 6.15399 16.4745 5.75272 16.1905C5.35146 15.9066 5.04814 15.5052 4.88458 15.0417H3.95833C3.74837 15.0417 3.547 14.9582 3.39854 14.8098C3.25007 14.6613 3.16666 14.46 3.16666 14.25C3.16666 14.04 3.25007 13.8387 3.39854 13.6902C3.547 13.5417 3.74837 13.4583 3.95833 13.4583H4.88458Z" fill="#1F2B6C"/>
</svg>
