<svg width="13" height="17" viewBox="0 0 13 17" fill="none" xmlns="http://www.w3.org/2000/svg">
<path d="M6.32 8.075C5.72137 8.075 5.14726 7.85112 4.72396 7.4526C4.30066 7.05409 4.06286 6.51359 4.06286 5.95C4.06286 5.38642 4.30066 4.84591 4.72396 4.4474C5.14726 4.04888 5.72137 3.825 6.32 3.825C6.91863 3.825 7.49274 4.04888 7.91604 4.4474C8.33934 4.84591 8.57714 5.38642 8.57714 5.95C8.57714 6.22906 8.51876 6.50539 8.40533 6.7632C8.2919 7.02102 8.12564 7.25528 7.91604 7.4526C7.70645 7.64993 7.45762 7.80645 7.18377 7.91324C6.90992 8.02004 6.61641 8.075 6.32 8.075ZM6.32 0C4.64383 0 3.03632 0.626873 1.85109 1.74271C0.665855 2.85856 0 4.37196 0 5.95C0 10.4125 6.32 17 6.32 17C6.32 17 12.64 10.4125 12.64 5.95C12.64 4.37196 11.9741 2.85856 10.7889 1.74271C9.60369 0.626873 7.99617 0 6.32 0Z" fill="#1F2B6C"/>
</svg>
