<svg width="16" height="16" viewBox="0 0 16 16" fill="none" xmlns="http://www.w3.org/2000/svg">
<path d="M8.51451 4.0083C8.51451 3.87569 8.46183 3.74852 8.36807 3.65475C8.2743 3.56098 8.14712 3.5083 8.01451 3.5083C7.8819 3.5083 7.75473 3.56098 7.66096 3.65475C7.56719 3.74852 7.51451 3.87569 7.51451 4.0083V7.1468C7.32541 7.25665 7.17782 7.4258 7.0946 7.62803C7.01137 7.83027 6.99717 8.0543 7.05418 8.26543C7.11119 8.47656 7.23623 8.66299 7.40994 8.79585C7.58365 8.9287 7.79632 9.00057 8.01501 9.0003C8.19701 9.0003 8.36801 8.9513 8.51451 8.8658L10.349 9.9253C10.4638 9.99056 10.5997 10.0078 10.7271 9.97318C10.8546 9.93858 10.9631 9.85499 11.0291 9.74065C11.0952 9.6263 11.1133 9.49049 11.0795 9.36284C11.0458 9.23519 10.9629 9.12608 10.849 9.0593L9.00901 7.9973C9.00768 7.82451 8.96132 7.65506 8.87452 7.50565C8.78771 7.35624 8.66346 7.23204 8.51401 7.1453L8.51451 4.0083Z" fill="#159EEC"/>
<path d="M15 8C15 4.134 11.866 1 8 1C4.134 1 1 4.134 1 8C1 11.866 4.134 15 8 15C11.866 15 15 11.866 15 8ZM13.5 8C13.5 11.0375 11.0375 13.5 8 13.5C4.9625 13.5 2.5 11.0375 2.5 8C2.5 4.9625 4.9625 2.5 8 2.5C11.0375 2.5 13.5 4.9625 13.5 8Z" fill="#159EEC"/>
</svg>
