<svg width="6" height="12" viewBox="0 0 6 12" fill="none" xmlns="http://www.w3.org/2000/svg">
<g clip-path="url(#clip0_1024_1278)">
<path fill-rule="evenodd" clip-rule="evenodd" d="M5.38275 7.74259C5.40021 7.76 5.41407 7.78069 5.42352 7.80347C5.43297 7.82625 5.43784 7.85067 5.43784 7.87534C5.43784 7.9 5.43297 7.92442 5.42352 7.9472C5.41407 7.96998 5.40021 7.99067 5.38275 8.00809L3.13275 10.2581C3.11533 10.2755 3.09464 10.2894 3.07186 10.2989C3.04908 10.3083 3.02466 10.3132 3 10.3132C2.97534 10.3132 2.95092 10.3083 2.92814 10.2989C2.90536 10.2894 2.88467 10.2755 2.86725 10.2581L0.61725 8.00808C0.582043 7.97288 0.562264 7.92513 0.562264 7.87533C0.562264 7.82554 0.582043 7.77779 0.61725 7.74258C0.652458 7.70738 0.70021 7.6876 0.75 7.6876C0.799791 7.6876 0.847543 7.70738 0.882751 7.74258L3 9.86021L5.11725 7.74259C5.13467 7.72512 5.15536 7.71127 5.17814 7.70182C5.20092 7.69237 5.22534 7.6875 5.25 7.6875C5.27466 7.6875 5.29908 7.69237 5.32186 7.70182C5.34464 7.71127 5.36533 7.72512 5.38275 7.74259Z" fill="#1F2B6C"/>
</g>
<g clip-path="url(#clip1_1024_1278)">
<path fill-rule="evenodd" clip-rule="evenodd" d="M0.61725 4.25741C0.599788 4.24 0.585935 4.21931 0.576482 4.19653C0.56703 4.17375 0.562164 4.14933 0.562164 4.12466C0.562164 4.1 0.56703 4.07558 0.576482 4.0528C0.585935 4.03002 0.599788 4.00933 0.61725 3.99191L2.86725 1.74191C2.88467 1.72445 2.90536 1.7106 2.92814 1.70115C2.95092 1.6917 2.97534 1.68683 3 1.68683C3.02466 1.68683 3.04908 1.6917 3.07186 1.70115C3.09464 1.7106 3.11533 1.72445 3.13275 1.74191L5.38275 3.99191C5.41796 4.02712 5.43774 4.07487 5.43774 4.12466C5.43774 4.17446 5.41796 4.22221 5.38275 4.25741C5.34754 4.29262 5.29979 4.3124 5.25 4.3124C5.20021 4.3124 5.15246 4.29262 5.11725 4.25741L3 2.13979L0.88275 4.25741C0.865332 4.27488 0.844642 4.28873 0.821862 4.29818C0.799083 4.30763 0.774662 4.3125 0.749999 4.3125C0.725337 4.3125 0.700916 4.30763 0.678137 4.29818C0.655357 4.28873 0.634667 4.27488 0.61725 4.25741Z" fill="#1F2B6C"/>
</g>
<defs>
<clipPath id="clip0_1024_1278">
<rect width="6" height="6" fill="white" transform="translate(6 6) rotate(90)"/>
</clipPath>
<clipPath id="clip1_1024_1278">
<rect width="6" height="6" fill="white" transform="translate(0 6) rotate(-90)"/>
</clipPath>
</defs>
</svg>
