<svg width="27" height="27" viewBox="0 0 27 27" fill="none" xmlns="http://www.w3.org/2000/svg">
<path d="M9.53937 0.93158H4.68274C2.17369 0.93158 0.93158 2.17369 0.93158 4.68274V9.55179C0.93158 12.1105 2.17369 13.3526 4.68274 13.2905H9.55179C12.1105 13.3526 13.3526 12.1105 13.2905 9.53937V4.68274C13.3526 2.17369 12.1105 0.93158 9.53937 0.93158ZM9.63874 10.5703C8.79411 10.5703 7.97432 10.2474 7.29116 9.676C6.52105 10.235 5.58948 10.5703 4.58337 10.5703C4.07411 10.5703 3.65179 10.148 3.65179 9.63874C3.65179 9.12948 4.07411 8.70716 4.58337 8.70716C5.85032 8.70716 6.90611 7.83769 7.29116 6.64527H4.58337C4.07411 6.64527 3.65179 6.22295 3.65179 5.71369C3.65179 5.20442 4.07411 4.78211 4.58337 4.78211H6.18569C6.23537 4.31011 6.62042 3.93748 7.10484 3.93748C7.58927 3.93748 7.97432 4.31011 8.024 4.78211H8.34695H8.37179H8.39663H9.62632C10.1356 4.78211 10.5579 5.20442 10.5579 5.71369C10.5579 6.22295 10.148 6.64527 9.62632 6.64527H9.21642C9.10463 7.24148 8.86863 7.80042 8.55811 8.30969C8.89348 8.55811 9.25369 8.70716 9.63874 8.70716C10.148 8.70716 10.5703 9.12948 10.5703 9.63874C10.5703 10.148 10.148 10.5703 9.63874 10.5703Z" fill="#BFD2F8"/>
<path d="M9.62632 26.7053C4.32253 26.7053 0 22.3827 0 17.0789C0 16.5697 0.422316 16.1474 0.931579 16.1474C1.44084 16.1474 1.86316 16.5697 1.86316 17.0789C1.86316 20.7556 4.4219 23.836 7.86253 24.6434L7.52716 24.0844C7.26632 23.6373 7.40295 23.0659 7.85011 22.8051C8.28484 22.5442 8.86863 22.6808 9.12948 23.128L10.4337 25.3017C10.6076 25.5874 10.6076 25.9476 10.4461 26.2333C10.2722 26.519 9.96169 26.7053 9.62632 26.7053Z" fill="#BFD2F8"/>
<path d="M25.7718 10.5579C25.2626 10.5579 24.8403 10.1356 24.8403 9.62632C24.8403 5.94969 22.2815 2.86926 18.8409 2.0619L19.1763 2.62084C19.4371 3.068 19.3005 3.63937 18.8533 3.90021C18.4186 4.16105 17.8348 4.02442 17.5739 3.57726L16.2697 1.40358C16.0958 1.1179 16.0958 0.757684 16.2573 0.472C16.4312 0.186316 16.7417 0 17.0771 0C22.3809 0 26.7034 4.32253 26.7034 9.62632C26.7034 10.1356 26.2811 10.5579 25.7718 10.5579Z" fill="#BFD2F8"/>
<path d="M19.4635 13.1683C15.9856 13.1683 13.1536 15.9879 13.1536 19.4782C13.1536 22.9561 15.9732 25.7881 19.4635 25.7881C22.9414 25.7881 25.7734 22.9685 25.7734 19.4782C25.7734 15.9879 22.9539 13.1683 19.4635 13.1683ZM22.544 22.4717C22.0844 22.6953 21.5254 22.5214 21.2894 22.0494L21.0783 21.627H17.8612L17.6501 22.0494C17.4886 22.3723 17.1532 22.5586 16.8179 22.5586C16.6812 22.5586 16.5322 22.5214 16.408 22.4593C15.9484 22.2233 15.7621 21.6643 15.9856 21.2047L18.6438 15.9009C18.8052 15.5904 19.1282 15.3917 19.476 15.3917C19.8238 15.3917 20.1467 15.5904 20.3082 15.9134L22.9663 21.2171C23.1899 21.6767 23.0035 22.2357 22.544 22.4717Z" fill="#BFD2F8"/>
<path d="M18.7917 19.7623H20.1456L19.4624 18.4084L18.7917 19.7623Z" fill="#BFD2F8"/>
</svg>
