<svg width="22" height="22" viewBox="0 0 22 22" fill="none" xmlns="http://www.w3.org/2000/svg">
<path fill-rule="evenodd" clip-rule="evenodd" d="M19.667 4.96466C19.7541 5.09685 19.7929 5.25504 19.7769 5.41253C19.7608 5.57002 19.6909 5.71715 19.579 5.82907L11.1521 14.2551C11.0659 14.3412 10.9583 14.4029 10.8404 14.4338L7.33049 15.3505C7.21446 15.3808 7.09254 15.3801 6.97683 15.3487C6.86112 15.3173 6.75563 15.2562 6.67085 15.1714C6.58606 15.0866 6.52493 14.9811 6.49351 14.8654C6.46209 14.7497 6.46148 14.6278 6.49174 14.5117L7.4084 11.0027C7.43516 10.8974 7.48564 10.7996 7.55599 10.7167L16.0141 2.26416C16.143 2.13541 16.3177 2.0631 16.4999 2.0631C16.6821 2.0631 16.8568 2.13541 16.9857 2.26416L19.579 4.85649C19.6119 4.8895 19.6414 4.92573 19.667 4.96466ZM18.1206 5.34232L16.4999 3.72257L8.69174 11.5307L8.11882 13.7243L10.3124 13.1514L18.1206 5.34232Z" fill="#1F2B6C"/>
<path d="M18.0041 15.73C18.2546 13.5886 18.3346 11.4307 18.2433 9.27665C18.2414 9.2259 18.2499 9.17529 18.2683 9.12797C18.2868 9.08066 18.3148 9.03765 18.3506 9.00165L19.2526 8.09965C19.2772 8.07486 19.3085 8.05772 19.3427 8.05028C19.3768 8.04285 19.4124 8.04543 19.4451 8.05772C19.4779 8.07002 19.5063 8.0915 19.5271 8.11959C19.548 8.14768 19.5602 8.18118 19.5624 8.21607C19.7322 10.7747 19.6678 13.3435 19.3699 15.8904C19.1536 17.7439 17.6649 19.1968 15.8197 19.4031C12.6162 19.7578 9.38344 19.7578 6.18001 19.4031C4.33568 19.1968 2.8461 17.7439 2.62976 15.8904C2.24971 12.6412 2.24971 9.35877 2.62976 6.10957C2.8461 4.25607 4.33476 2.80315 6.18001 2.5969C8.61135 2.32729 11.061 2.26198 13.5033 2.40165C13.5382 2.40416 13.5717 2.41663 13.5998 2.43759C13.6279 2.45855 13.6494 2.48712 13.6617 2.51992C13.6741 2.55271 13.6767 2.58836 13.6695 2.62263C13.6622 2.65691 13.6452 2.68838 13.6206 2.71332L12.7103 3.62265C12.6747 3.65817 12.6321 3.68601 12.5853 3.70446C12.5385 3.7229 12.4884 3.73156 12.4381 3.7299C10.4001 3.66062 8.35981 3.73874 6.3331 3.96365C5.74088 4.0292 5.18804 4.29248 4.76391 4.71096C4.33977 5.12945 4.06909 5.6787 3.9956 6.26998C3.62806 9.41261 3.62806 12.5874 3.9956 15.73C4.06909 16.3213 4.33977 16.8705 4.76391 17.289C5.18804 17.7075 5.74088 17.9708 6.3331 18.0363C9.40851 18.3801 12.5912 18.3801 15.6675 18.0363C16.2597 17.9708 16.8126 17.7075 17.2367 17.289C17.6608 16.8705 17.9306 16.3213 18.0041 15.73Z" fill="#1F2B6C"/>
</svg>
