<svg width="21" height="22" viewBox="0 0 21 22" fill="none" xmlns="http://www.w3.org/2000/svg">
<path d="M10.4718 2.60889C15.1591 2.60889 18.959 6.40873 18.959 11.0961C18.959 15.7834 15.1591 19.5833 10.4718 19.5833C5.78446 19.5833 1.98462 15.7834 1.98462 11.0961C1.98462 6.40873 5.78446 2.60889 10.4718 2.60889ZM10.6074 14.491C8.87987 14.491 7.32461 15.2282 6.23904 16.4053C7.39978 17.332 8.87113 17.8858 10.4718 17.8858C12.1434 17.8858 13.6738 17.2818 14.8568 16.2801C13.7781 15.1762 12.2727 14.491 10.6074 14.491ZM10.4718 4.30632C6.72193 4.30632 3.68206 7.3462 3.68206 11.0961C3.68206 12.6328 4.19256 14.0502 5.05322 15.1881C6.44582 13.7136 8.41913 12.7935 10.6074 12.7935C12.7159 12.7935 14.6248 13.6478 16.007 15.0292C16.797 13.9195 17.2616 12.5621 17.2616 11.0961C17.2616 7.3462 14.2217 4.30632 10.4718 4.30632ZM10.4718 5.15504C12.3467 5.15504 13.8667 6.67498 13.8667 8.54992C13.8667 10.4248 12.3467 11.9448 10.4718 11.9448C8.59687 11.9448 7.07693 10.4248 7.07693 8.54992C7.07693 6.67498 8.59687 5.15504 10.4718 5.15504ZM10.4718 6.85248C9.53431 6.85248 8.77437 7.61245 8.77437 8.54992C8.77437 9.48741 9.53431 10.2474 10.4718 10.2474C11.4093 10.2474 12.1692 9.48741 12.1692 8.54992C12.1692 7.61245 11.4093 6.85248 10.4718 6.85248Z" fill="#1F2B6C"/>
</svg>
