<svg width="20" height="16" viewBox="0 0 20 16" fill="none" xmlns="http://www.w3.org/2000/svg">
<path d="M3.63636 3.63636C3.63636 3.34984 3.6928 3.06613 3.80244 2.80142C3.91209 2.53671 4.0728 2.29619 4.2754 2.09359C4.478 1.89098 4.71853 1.73027 4.98324 1.62063C5.24795 1.51098 5.53166 1.45455 5.81818 1.45455C6.1047 1.45455 6.38842 1.51098 6.65313 1.62063C6.91784 1.73027 7.15836 1.89098 7.36096 2.09359C7.56356 2.29619 7.72427 2.53671 7.83392 2.80142C7.94357 3.06613 8 3.34984 8 3.63636C8 4.21502 7.77013 4.76997 7.36096 5.17914C6.95179 5.58831 6.39684 5.81818 5.81818 5.81818C5.23953 5.81818 4.68457 5.58831 4.2754 5.17914C3.86623 4.76997 3.63636 4.21502 3.63636 3.63636ZM5.81818 0C4.85376 0 3.92883 0.383116 3.24688 1.06507C2.56493 1.74702 2.18182 2.67194 2.18182 3.63636C2.18182 4.60079 2.56493 5.52571 3.24688 6.20766C3.92883 6.88961 4.85376 7.27273 5.81818 7.27273C6.78261 7.27273 7.70753 6.88961 8.38948 6.20766C9.07143 5.52571 9.45455 4.60079 9.45455 3.63636C9.45455 2.67194 9.07143 1.74702 8.38948 1.06507C7.70753 0.383116 6.78261 0 5.81818 0ZM13.0909 4.36364C13.0909 3.97787 13.2442 3.6079 13.5169 3.33512C13.7897 3.06234 14.1597 2.90909 14.5455 2.90909C14.9312 2.90909 15.3012 3.06234 15.574 3.33512C15.8468 3.6079 16 3.97787 16 4.36364C16 4.74941 15.8468 5.11938 15.574 5.39216C15.3012 5.66494 14.9312 5.81818 14.5455 5.81818C14.1597 5.81818 13.7897 5.66494 13.5169 5.39216C13.2442 5.11938 13.0909 4.74941 13.0909 4.36364ZM14.5455 1.45455C13.7739 1.45455 13.034 1.76104 12.4884 2.3066C11.9429 2.85216 11.6364 3.5921 11.6364 4.36364C11.6364 5.13518 11.9429 5.87511 12.4884 6.42067C13.034 6.96624 13.7739 7.27273 14.5455 7.27273C15.317 7.27273 16.0569 6.96624 16.6025 6.42067C17.1481 5.87511 17.4545 5.13518 17.4545 4.36364C17.4545 3.5921 17.1481 2.85216 16.6025 2.3066C16.0569 1.76104 15.317 1.45455 14.5455 1.45455ZM9.45455 8.72727C9.49527 8.72727 9.53745 8.72727 9.57818 8.73018C9.41092 9.20386 9.41246 9.72078 9.58255 10.1935C9.5403 10.1859 9.49747 10.182 9.45455 10.1818H2.18182C1.98893 10.1818 1.80395 10.2584 1.66756 10.3948C1.53117 10.5312 1.45455 10.7162 1.45455 10.9091V11.0502L1.46036 11.1215C1.51669 11.5717 1.6858 12.0005 1.952 12.368C2.42618 13.0196 3.45891 13.8182 5.81818 13.8182C7.872 13.8182 8.92073 13.2131 9.46909 12.6255C9.52436 13.0822 9.71927 13.4938 10.0102 13.8182C9.87129 13.973 9.75521 14.1469 9.66546 14.3345C8.78546 14.8916 7.54618 15.2727 5.81818 15.2727C3.08655 15.2727 1.57382 14.3215 0.775273 13.2233C0.358926 12.6484 0.0970035 11.9763 0.0145454 11.2713C0.00730417 11.205 0.00245255 11.1386 0 11.072V10.9091C0 10.3304 0.22987 9.77548 0.63904 9.36631C1.04821 8.95714 1.60316 8.72727 2.18182 8.72727H9.45455ZM11.6364 8.72727C11.4435 8.72727 11.2585 8.8039 11.1221 8.94029C10.9857 9.07668 10.9091 9.26166 10.9091 9.45455C10.9091 9.64743 10.9857 9.83242 11.1221 9.96881C11.2585 10.1052 11.4435 10.1818 11.6364 10.1818H18.9091C19.102 10.1818 19.287 10.1052 19.4234 9.96881C19.5597 9.83242 19.6364 9.64743 19.6364 9.45455C19.6364 9.26166 19.5597 9.07668 19.4234 8.94029C19.287 8.8039 19.102 8.72727 18.9091 8.72727H11.6364ZM11.6364 11.6364C11.4435 11.6364 11.2585 11.713 11.1221 11.8494C10.9857 11.9858 10.9091 12.1708 10.9091 12.3636C10.9091 12.5565 10.9857 12.7415 11.1221 12.8779C11.2585 13.0143 11.4435 13.0909 11.6364 13.0909H18.9091C19.102 13.0909 19.287 13.0143 19.4234 12.8779C19.5597 12.7415 19.6364 12.5565 19.6364 12.3636C19.6364 12.1708 19.5597 11.9858 19.4234 11.8494C19.287 11.713 19.102 11.6364 18.9091 11.6364H11.6364ZM11.6364 14.5455C11.4435 14.5455 11.2585 14.6221 11.1221 14.7585C10.9857 14.8949 10.9091 15.0798 10.9091 15.2727C10.9091 15.4656 10.9857 15.6506 11.1221 15.787C11.2585 15.9234 11.4435 16 11.6364 16H18.9091C19.102 16 19.287 15.9234 19.4234 15.787C19.5597 15.6506 19.6364 15.4656 19.6364 15.2727C19.6364 15.0798 19.5597 14.8949 19.4234 14.7585C19.287 14.6221 19.102 14.5455 18.9091 14.5455H11.6364Z" fill="#BFD2F8"/>
</svg>
