<svg width="15" height="16" viewBox="0 0 15 16" fill="none" xmlns="http://www.w3.org/2000/svg">
<path d="M0.656036 14.5905C0.656036 13.2635 1.18316 11.9909 2.12144 11.0527C3.05973 10.1144 4.33232 9.58726 5.65925 9.58726C6.98619 9.58726 8.25878 10.1144 9.19706 11.0527C10.1353 11.9909 10.6625 13.2635 10.6625 14.5905H0.656036ZM5.65925 8.96185C3.58604 8.96185 1.90684 7.28265 1.90684 5.20944C1.90684 3.13624 3.58604 1.45703 5.65925 1.45703C7.73246 1.45703 9.41166 3.13624 9.41166 5.20944C9.41166 7.28265 7.73246 8.96185 5.65925 8.96185Z" stroke="#1F2B6C" stroke-width="1.2508" stroke-linecap="round" stroke-linejoin="round"/>
<path d="M10.0369 2.08203C11.5918 2.08203 12.8513 3.60131 12.8513 5.47707C12.8513 7.35283 11.5918 8.81255 10.0369 8.81255C11.0321 8.81255 11.9866 9.28947 12.6903 10.1384C13.394 10.9873 13.7894 12.1387 13.7894 13.3393H12.1812" stroke="#1F2B6C" stroke-width="1.2508" stroke-linecap="round" stroke-linejoin="round"/>
</svg>
