<svg width="21" height="21" viewBox="0 0 21 21" fill="none" xmlns="http://www.w3.org/2000/svg">
<path d="M18.9632 6.23741H19.8119V14.7246H18.9632V17.2708C18.9632 17.7395 18.5832 18.1195 18.1144 18.1195H2.83749C2.36876 18.1195 1.98877 17.7395 1.98877 17.2708V3.69125C1.98877 3.22252 2.36876 2.84253 2.83749 2.84253H18.1144C18.5832 2.84253 18.9632 3.22252 18.9632 3.69125V6.23741ZM17.2657 14.7246H12.1734C9.82976 14.7246 7.9298 12.8247 7.9298 10.481C7.9298 8.13733 9.82976 6.23741 12.1734 6.23741H17.2657V4.53997H3.68621V16.422H17.2657V14.7246ZM18.1144 13.0272V7.93484H12.1734C10.7672 7.93484 9.62726 9.07476 9.62726 10.481C9.62726 11.8872 10.7672 13.0272 12.1734 13.0272H18.1144ZM12.1734 9.63228H14.7196V11.3297H12.1734V9.63228Z" fill="#1F2B6C"/>
</svg>
